{"glyphs":{"0":{"ha":863,"x_min":28,"x_max":835,"o":"m 431 944 q 733 822 632 944 q 835 471 835 700 q 731 106 835 242 q 431 -31 626 -31 q 212 29 303 -31 q 74 198 121 89 q 28 453 28 307 q 130 814 28 683 q 431 944 232 944 m 431 72 q 513 177 489 72 q 536 463 536 282 q 513 742 536 643 q 431 842 490 842 q 349 742 372 842 q 326 463 326 642 q 349 177 326 282 q 431 72 372 72 z "},"1":{"ha":863,"x_min":46,"x_max":831,"o":"m 831 125 l 831 0 l 115 0 l 115 125 l 338 125 l 338 671 q 256 626 303 644 q 164 608 208 608 q 74 642 101 608 q 46 747 46 676 q 563 944 364 840 l 636 910 l 636 125 l 831 125 z "},"2":{"ha":863,"x_min":51,"x_max":799,"o":"m 375 944 q 666 874 556 944 q 776 667 776 803 q 513 281 776 456 q 360 188 460 246 l 799 201 l 799 0 l 67 0 l 57 101 q 169 201 124 158 q 394 403 310 306 q 479 594 479 500 q 428 715 479 675 q 282 754 376 754 q 182 724 224 754 q 107 639 140 694 q 51 739 51 674 q 99 856 51 810 q 220 923 146 901 q 375 944 294 944 z "},"3":{"ha":863,"x_min":79,"x_max":793,"o":"m 411 944 q 655 891 564 944 q 746 722 746 838 q 700 588 746 644 q 578 504 654 531 q 739 431 685 488 q 793 272 793 374 q 681 49 793 128 q 374 -31 569 -31 q 233 -9 300 -31 q 122 58 165 13 q 79 175 79 104 q 115 263 79 231 q 195 185 146 211 q 308 160 244 160 q 444 194 393 160 q 494 292 494 229 q 350 417 494 417 q 281 414 322 417 l 281 519 q 442 545 379 519 q 504 643 504 571 q 451 726 504 697 q 321 754 399 754 q 222 725 263 754 q 144 638 182 696 q 90 739 99 671 q 186 894 90 843 q 411 944 282 944 z "},"4":{"ha":863,"x_min":7,"x_max":869,"o":"m 725 349 l 869 349 l 857 167 l 726 167 l 726 0 l 415 0 l 415 167 l 39 167 q 7 247 7 194 q 46 356 7 300 l 426 917 l 725 917 l 725 349 m 424 713 l 186 349 l 424 349 l 424 713 z "},"5":{"ha":863,"x_min":60,"x_max":801,"o":"m 725 715 l 264 715 l 249 578 q 424 586 328 586 q 705 518 608 586 q 801 299 801 450 q 748 122 801 196 q 599 8 694 47 q 381 -31 504 -31 q 156 20 251 -31 q 60 175 60 71 q 96 263 60 231 q 174 185 119 210 q 318 160 229 160 q 449 195 394 160 q 504 292 504 231 q 442 405 504 376 q 264 433 381 433 q 96 428 176 433 l 146 917 l 711 917 l 725 715 z "},"6":{"ha":863,"x_min":35,"x_max":839,"o":"m 500 944 q 628 929 563 944 q 738 881 693 914 q 783 796 783 847 q 749 710 783 740 q 658 749 714 735 q 551 764 601 764 q 432 740 475 764 q 372 666 389 715 q 354 535 354 617 q 571 608 439 608 q 778 520 717 608 q 839 317 839 432 q 790 130 839 208 q 656 10 742 51 q 458 -31 569 -31 q 233 26 329 -31 q 86 185 138 83 q 35 419 35 288 q 86 690 35 571 q 242 876 138 808 q 500 944 346 944 m 458 492 q 353 285 353 492 q 458 72 353 72 q 563 285 563 72 q 458 492 563 492 z "},"7":{"ha":863,"x_min":54,"x_max":826,"o":"m 817 917 l 826 815 l 460 -32 l 139 1 l 535 729 l 54 701 l 54 917 l 817 917 z "},"8":{"ha":863,"x_min":46,"x_max":818,"o":"m 758 726 q 709 603 758 660 q 589 513 660 546 q 758 394 699 454 q 818 242 818 333 q 706 36 818 103 q 426 -31 593 -31 q 155 35 264 -31 q 46 235 46 100 q 239 457 46 363 q 122 565 165 504 q 78 700 78 626 q 179 887 78 829 q 436 944 281 944 q 665 890 571 944 q 758 726 758 836 m 344 740 q 381 657 344 696 q 486 575 418 618 q 519 647 507 604 q 531 726 531 689 q 507 810 531 778 q 436 842 483 842 q 367 815 390 842 q 344 740 344 789 m 528 189 q 483 282 528 240 q 344 383 438 324 q 314 306 325 350 q 303 225 303 263 q 335 115 303 158 q 426 72 367 72 q 502 103 476 72 q 528 189 528 135 z "},"9":{"ha":863,"x_min":24,"x_max":828,"o":"m 404 944 q 628 887 532 944 q 776 727 725 829 q 828 494 828 625 q 776 224 828 343 q 620 38 725 106 q 363 -31 515 -31 q 235 -15 300 -31 q 124 33 169 0 q 79 118 79 67 q 114 204 79 174 q 205 165 149 179 q 311 150 261 150 q 431 174 389 150 q 491 248 474 199 q 508 379 508 297 q 292 306 424 306 q 85 394 146 306 q 24 597 24 482 q 72 784 24 706 q 207 903 121 863 q 404 944 293 944 m 404 842 q 300 629 300 842 q 404 422 300 422 q 510 629 510 422 q 404 842 510 842 z "},"\u0000":{"ha":0,"x_min":0,"x_max":0,"o":""},"\r":{"ha":243,"x_min":0,"x_max":0,"o":""}," ":{"ha":243,"x_min":0,"x_max":0,"o":""},"A":{"ha":819,"x_min":-10,"x_max":818,"o":"m 586 917 l 818 0 l 514 0 l 463 219 l 221 219 l 171 0 l -10 0 l 240 917 l 586 917 m 247 336 l 436 336 l 340 747 l 247 336 z "},"Á":{"ha":819,"x_min":-10,"x_max":818,"o":"m 0 0 m 586 917 l 818 0 l 514 0 l 463 219 l 221 219 l 171 0 l -10 0 l 240 917 l 586 917 m 247 336 l 436 336 l 340 747 l 247 336 m 608 1225 q 646 1178 631 1206 q 661 1122 661 1150 q 635 1063 661 1083 q 575 1037 610 1043 q 485 1026 540 1031 l 282 1013 l 265 1083 l 608 1225 z "},"Ă":{"ha":819,"x_min":-10,"x_max":818,"o":"m 0 0 m 586 917 l 818 0 l 514 0 l 463 219 l 221 219 l 171 0 l -10 0 l 240 917 l 586 917 m 247 336 l 436 336 l 340 747 l 247 336 m 682 1190 q 621 1051 682 1101 q 413 1000 560 1000 q 205 1051 265 1000 q 144 1190 144 1101 l 349 1190 l 347 1146 q 360 1091 347 1110 q 413 1072 374 1072 q 469 1097 458 1072 q 478 1151 479 1121 q 478 1190 478 1181 l 682 1190 z "},"Â":{"ha":819,"x_min":-10,"x_max":818,"o":"m 0 0 m 586 917 l 818 0 l 514 0 l 463 219 l 221 219 l 171 0 l -10 0 l 240 917 l 586 917 m 247 336 l 436 336 l 340 747 l 247 336 m 221 950 l 167 1015 l 378 1175 l 438 1175 l 651 1015 l 597 950 l 410 1021 l 221 950 z "},"Ä":{"ha":819,"x_min":-10,"x_max":818,"o":"m 0 0 m 586 917 l 818 0 l 514 0 l 463 219 l 221 219 l 171 0 l -10 0 l 240 917 l 586 917 m 247 336 l 436 336 l 340 747 l 247 336 m 572 1210 q 679 1181 639 1210 q 719 1099 719 1151 q 677 1017 719 1046 q 567 988 635 988 q 459 1016 500 988 q 418 1096 418 1044 q 462 1180 418 1150 q 572 1210 506 1210 m 253 1210 q 360 1181 319 1210 q 400 1099 400 1151 q 358 1017 400 1046 q 247 988 315 988 q 140 1016 181 988 q 99 1096 99 1044 q 142 1180 99 1150 q 253 1210 186 1210 z "},"À":{"ha":819,"x_min":-10,"x_max":818,"o":"m 0 0 m 586 917 l 818 0 l 514 0 l 463 219 l 221 219 l 171 0 l -10 0 l 240 917 l 586 917 m 247 336 l 436 336 l 340 747 l 247 336 m 340 1028 q 250 1038 285 1032 q 190 1065 215 1044 q 164 1124 164 1085 q 179 1179 164 1151 q 217 1226 194 1207 l 560 1085 l 543 1014 l 340 1028 z "},"Ā":{"ha":819,"x_min":-10,"x_max":818,"o":"m 0 0 m 586 917 l 818 0 l 514 0 l 463 219 l 221 219 l 171 0 l -10 0 l 240 917 l 586 917 m 247 336 l 436 336 l 340 747 l 247 336 m 611 1199 q 624 1144 624 1178 q 602 1091 624 1111 q 544 1071 581 1071 l 208 1071 q 196 1125 196 1092 q 217 1178 196 1158 q 275 1199 239 1199 l 611 1199 z "},"Ą":{"ha":819,"x_min":-10,"x_max":901,"o":"m 865 -212 q 892 -239 882 -225 q 901 -272 901 -253 q 851 -343 901 -319 q 749 -367 801 -367 q 601 -332 660 -367 q 543 -224 543 -297 q 590 -97 543 -153 q 714 0 638 -42 l 514 0 l 463 219 l 221 219 l 171 0 l -10 0 l 240 917 l 586 917 l 814 17 l 835 14 l 818 1 l 818 0 l 815 0 q 711 -175 711 -82 q 729 -232 711 -217 q 789 -247 747 -247 q 833 -238 811 -247 q 865 -212 856 -229 m 247 336 l 436 336 l 340 747 l 247 336 z "},"Å":{"ha":819,"x_min":-10,"x_max":818,"o":"m 0 0 m 586 917 l 818 0 l 514 0 l 463 219 l 221 219 l 171 0 l -10 0 l 240 917 l 586 917 m 247 336 l 436 336 l 340 747 l 247 336 m 413 999 q 298 1035 343 999 q 253 1133 253 1072 q 297 1231 253 1196 q 413 1265 340 1265 q 529 1231 485 1265 q 574 1133 574 1196 q 528 1035 574 1072 q 413 999 483 999 m 413 1054 q 459 1076 443 1054 q 475 1133 475 1099 q 459 1188 475 1167 q 413 1208 443 1208 q 366 1188 382 1208 q 350 1133 350 1167 q 365 1076 350 1097 q 413 1054 381 1054 z "},"Ǻ":{"ha":819,"x_min":-10,"x_max":818,"o":"m 282 1101 l 265 1172 l 608 1314 q 646 1267 631 1294 q 661 1211 661 1239 q 635 1152 661 1172 q 575 1126 610 1132 q 485 1115 540 1119 l 282 1101 m 818 0 l 514 0 l 463 219 l 221 219 l 171 0 l -10 0 l 240 917 l 279 917 q 253 983 253 946 q 297 1064 253 1035 q 413 1093 340 1093 q 528 1064 485 1093 q 572 983 572 1035 q 546 917 572 946 l 586 917 l 818 0 m 350 983 q 365 935 350 953 q 413 917 381 917 q 459 935 443 917 q 475 983 475 954 q 459 1028 475 1011 q 413 1046 443 1046 q 366 1028 382 1046 q 350 983 350 1011 m 247 336 l 436 336 l 340 747 l 247 336 z "},"Ã":{"ha":819,"x_min":-10,"x_max":818,"o":"m 0 0 m 586 917 l 818 0 l 514 0 l 463 219 l 221 219 l 171 0 l -10 0 l 240 917 l 586 917 m 247 336 l 436 336 l 340 747 l 247 336 m 658 1188 q 681 1148 672 1171 q 690 1104 690 1125 q 653 1034 690 1053 q 551 1015 617 1015 q 407 1029 515 1015 q 258 1043 299 1043 q 169 1015 197 1043 q 147 1055 156 1032 q 138 1099 138 1078 q 174 1169 138 1150 q 276 1188 211 1188 q 422 1174 314 1188 q 569 1160 531 1160 q 658 1188 631 1160 z "},"Æ":{"ha":1021,"x_min":-18,"x_max":1021,"o":"m 1000 917 l 1000 800 l 782 800 l 782 529 l 958 529 l 958 413 l 782 413 l 782 117 l 1021 117 l 1010 0 l 485 0 l 485 219 l 265 219 l 176 0 l -18 0 l 383 917 l 1000 917 m 485 775 l 313 336 l 485 336 l 485 775 z "},"Ǽ":{"ha":1021,"x_min":-18,"x_max":1021,"o":"m 0 0 m 1000 917 l 1000 800 l 782 800 l 782 529 l 958 529 l 958 413 l 782 413 l 782 117 l 1021 117 l 1010 0 l 485 0 l 485 219 l 265 219 l 176 0 l -18 0 l 383 917 l 1000 917 m 485 775 l 313 336 l 485 336 l 485 775 m 767 1199 q 804 1151 789 1179 q 819 1096 819 1124 q 794 1037 819 1057 q 733 1010 768 1017 q 643 1000 699 1004 l 440 986 l 424 1057 l 767 1199 z "},"B":{"ha":867,"x_min":69,"x_max":847,"o":"m 774 706 q 731 589 774 639 q 619 518 688 539 q 788 436 728 499 q 847 268 847 374 q 722 54 847 122 q 418 -14 597 -14 q 69 6 260 -14 l 69 907 q 424 924 260 924 q 680 878 586 924 q 774 706 774 832 m 367 539 q 404 535 386 535 q 501 577 469 535 q 532 692 532 619 q 425 821 532 821 q 367 813 396 821 l 367 539 m 367 97 q 424 89 393 89 q 524 136 493 89 q 556 264 556 183 q 521 397 556 351 q 406 442 486 442 q 367 439 392 442 l 367 97 z "},"C":{"ha":818,"x_min":28,"x_max":799,"o":"m 465 842 q 369 742 390 842 q 347 507 347 643 q 394 262 347 350 q 556 174 442 174 q 744 290 678 174 q 799 189 799 257 q 751 68 799 118 q 630 -6 704 18 q 476 -31 556 -31 q 223 33 324 -31 q 75 204 122 96 q 28 453 28 313 q 142 817 28 689 q 485 944 257 944 q 706 901 617 944 q 796 757 796 858 q 746 642 796 685 q 622 600 696 600 q 550 608 576 600 q 558 685 558 650 q 539 799 558 756 q 465 842 519 842 z "},"Ć":{"ha":818,"x_min":28,"x_max":799,"o":"m 28 0 m 465 842 q 369 742 390 842 q 347 507 347 643 q 394 262 347 350 q 556 174 442 174 q 744 290 678 174 q 799 189 799 257 q 751 68 799 118 q 630 -6 704 18 q 476 -31 556 -31 q 223 33 324 -31 q 75 204 122 96 q 28 453 28 313 q 142 817 28 689 q 485 944 257 944 q 706 901 617 944 q 796 757 796 858 q 746 642 796 685 q 622 600 696 600 q 550 608 576 600 q 558 685 558 650 q 539 799 558 756 q 465 842 519 842 m 661 1197 q 699 1150 683 1178 q 714 1094 714 1122 q 688 1035 714 1056 q 628 1009 663 1015 q 538 999 593 1003 l 335 985 l 318 1056 l 661 1197 z "},"Č":{"ha":818,"x_min":28,"x_max":799,"o":"m 28 0 m 465 842 q 369 742 390 842 q 347 507 347 643 q 394 262 347 350 q 556 174 442 174 q 744 290 678 174 q 799 189 799 257 q 751 68 799 118 q 630 -6 704 18 q 476 -31 556 -31 q 223 33 324 -31 q 75 204 122 96 q 28 453 28 313 q 142 817 28 689 q 485 944 257 944 q 706 901 617 944 q 796 757 796 858 q 746 642 796 685 q 622 600 696 600 q 550 608 576 600 q 558 685 558 650 q 539 799 558 756 q 465 842 519 842 m 651 1190 l 706 1126 l 510 965 l 421 965 l 219 1126 l 275 1190 l 463 1118 l 651 1190 z "},"Ç":{"ha":818,"x_min":28,"x_max":799,"o":"m 474 -31 l 453 -81 l 488 -79 q 614 -112 567 -79 q 661 -214 661 -144 q 601 -321 661 -283 q 458 -358 540 -358 q 356 -340 401 -358 q 310 -274 310 -321 q 326 -218 310 -239 q 436 -264 363 -264 q 475 -249 458 -264 q 492 -210 492 -233 q 466 -165 492 -176 q 399 -153 440 -153 q 343 -156 379 -153 l 390 -25 q 118 130 208 1 q 28 453 28 258 q 142 817 28 689 q 485 944 257 944 q 706 901 617 944 q 796 757 796 858 q 746 642 796 685 q 622 600 696 600 q 550 608 576 600 q 558 685 558 650 q 539 799 558 756 q 465 842 519 842 q 369 742 390 842 q 347 507 347 643 q 394 262 347 350 q 556 174 442 174 q 744 290 678 174 q 799 189 799 257 q 751 68 799 118 q 630 -6 704 18 q 476 -31 556 -31 l 474 -31 z "},"Ĉ":{"ha":818,"x_min":28,"x_max":799,"o":"m 28 0 m 465 842 q 369 742 390 842 q 347 507 347 643 q 394 262 347 350 q 556 174 442 174 q 744 290 678 174 q 799 189 799 257 q 751 68 799 118 q 630 -6 704 18 q 476 -31 556 -31 q 223 33 324 -31 q 75 204 122 96 q 28 453 28 313 q 142 817 28 689 q 485 944 257 944 q 706 901 617 944 q 796 757 796 858 q 746 642 796 685 q 622 600 696 600 q 550 608 576 600 q 558 685 558 650 q 539 799 558 756 q 465 842 519 842 m 274 950 l 219 1015 l 431 1175 l 490 1175 l 704 1015 l 650 950 l 463 1021 l 274 950 z "},"Ċ":{"ha":818,"x_min":28,"x_max":799,"o":"m 28 0 m 465 842 q 369 742 390 842 q 347 507 347 643 q 394 262 347 350 q 556 174 442 174 q 744 290 678 174 q 799 189 799 257 q 751 68 799 118 q 630 -6 704 18 q 476 -31 556 -31 q 223 33 324 -31 q 75 204 122 96 q 28 453 28 313 q 142 817 28 689 q 485 944 257 944 q 706 901 617 944 q 796 757 796 858 q 746 642 796 685 q 622 600 696 600 q 550 608 576 600 q 558 685 558 650 q 539 799 558 756 q 465 842 519 842 m 471 1250 q 578 1221 538 1250 q 618 1139 618 1192 q 576 1057 618 1086 q 465 1028 533 1028 q 358 1056 399 1028 q 317 1136 317 1085 q 360 1220 317 1190 q 471 1250 404 1250 z "},"D":{"ha":922,"x_min":69,"x_max":896,"o":"m 69 907 q 438 924 260 924 q 783 813 671 924 q 896 471 896 703 q 775 110 896 233 q 418 -14 654 -14 q 69 6 260 -14 l 69 907 m 439 89 q 547 195 519 89 q 575 463 575 301 q 547 721 575 621 q 438 821 519 821 q 401 818 417 821 q 367 810 386 815 l 367 99 q 439 89 401 89 z "},"Ǳ":{"ha":1588,"x_min":69,"x_max":1593,"o":"m 69 0 m 69 907 q 438 924 260 924 q 783 813 671 924 q 896 471 896 703 q 775 110 896 233 q 418 -14 654 -14 q 69 6 260 -14 l 69 907 m 439 89 q 547 195 519 89 q 575 463 575 301 q 547 721 575 621 q 438 821 519 821 q 401 818 417 821 q 367 810 386 815 l 367 99 q 439 89 401 89 m 1565 917 l 1575 811 l 1250 125 l 1593 125 l 1578 0 l 942 0 l 932 106 l 1257 792 l 960 792 l 960 917 l 1565 917 z "},"Ǆ":{"ha":1588,"x_min":69,"x_max":1593,"o":"m 69 0 m 69 907 q 438 924 260 924 q 783 813 671 924 q 896 471 896 703 q 775 110 896 233 q 418 -14 654 -14 q 69 6 260 -14 l 69 907 m 439 89 q 547 195 519 89 q 575 463 575 301 q 547 721 575 621 q 438 821 519 821 q 401 818 417 821 q 367 810 386 815 l 367 99 q 439 89 401 89 m 1565 917 l 1575 811 l 1250 125 l 1593 125 l 1578 0 l 942 0 l 932 106 l 1257 792 l 960 792 l 960 917 l 1565 917 m 1442 1190 l 1496 1126 l 1300 965 l 1211 965 l 1010 1126 l 1065 1190 l 1253 1118 l 1442 1190 z "},"Ð":{"ha":922,"x_min":-10,"x_max":896,"o":"m 438 924 q 783 813 671 924 q 896 471 896 703 q 775 110 896 233 q 418 -14 654 -14 q 69 6 260 -14 l 69 403 l -4 403 q -10 444 -10 419 q 69 529 -10 522 l 69 907 q 438 924 260 924 m 439 89 q 547 195 519 89 q 575 463 575 301 q 547 721 575 621 q 438 821 519 821 q 401 818 417 821 q 367 810 386 815 l 367 531 l 493 531 q 499 489 499 514 q 474 424 499 446 q 403 403 449 403 l 367 403 l 367 99 q 439 89 401 89 z "},"Ď":{"ha":922,"x_min":69,"x_max":896,"o":"m 69 0 m 69 907 q 438 924 260 924 q 783 813 671 924 q 896 471 896 703 q 775 110 896 233 q 418 -14 654 -14 q 69 6 260 -14 l 69 907 m 439 89 q 547 195 519 89 q 575 463 575 301 q 547 721 575 621 q 438 821 519 821 q 401 818 417 821 q 367 810 386 815 l 367 99 q 439 89 401 89 m 624 1190 l 678 1126 l 482 965 l 393 965 l 192 1126 l 247 1190 l 435 1118 l 624 1190 z "},"Đ":{"ha":922,"x_min":-10,"x_max":896,"o":"m 438 924 q 783 813 671 924 q 896 471 896 703 q 775 110 896 233 q 418 -14 654 -14 q 69 6 260 -14 l 69 403 l -4 403 q -10 444 -10 419 q 69 529 -10 522 l 69 907 q 438 924 260 924 m 439 89 q 547 195 519 89 q 575 463 575 301 q 547 721 575 621 q 438 821 519 821 q 401 818 417 821 q 367 810 386 815 l 367 531 l 492 531 q 499 489 499 510 q 474 424 499 446 q 403 403 449 403 l 367 403 l 367 99 q 439 89 401 89 z "},"Ḍ":{"ha":922,"x_min":69,"x_max":896,"o":"m 69 0 m 69 907 q 438 924 260 924 q 783 813 671 924 q 896 471 896 703 q 775 110 896 233 q 418 -14 654 -14 q 69 6 260 -14 l 69 907 m 439 89 q 547 195 519 89 q 575 463 575 301 q 547 721 575 621 q 438 821 519 821 q 401 818 417 821 q 367 810 386 815 l 367 99 q 439 89 401 89 m 433 -57 q 540 -86 500 -57 q 581 -168 581 -115 q 538 -250 581 -221 q 428 -279 496 -279 q 320 -251 361 -279 q 279 -171 279 -222 q 323 -87 279 -117 q 433 -57 367 -57 z "},"ǲ":{"ha":1522,"x_min":69,"x_max":1504,"o":"m 69 0 m 69 907 q 438 924 260 924 q 783 813 671 924 q 896 471 896 703 q 775 110 896 233 q 418 -14 654 -14 q 69 6 260 -14 l 69 907 m 439 89 q 547 195 519 89 q 575 463 575 301 q 547 721 575 621 q 438 821 519 821 q 401 818 417 821 q 367 810 386 815 l 367 99 q 439 89 401 89 m 1493 708 l 1501 626 l 1233 117 l 1504 138 l 1490 0 l 932 0 l 924 82 l 1190 590 l 950 572 l 964 708 l 1493 708 z "},"ǅ":{"ha":1522,"x_min":69,"x_max":1504,"o":"m 69 0 m 69 907 q 438 924 260 924 q 783 813 671 924 q 896 471 896 703 q 775 110 896 233 q 418 -14 654 -14 q 69 6 260 -14 l 69 907 m 439 89 q 547 195 519 89 q 575 463 575 301 q 547 721 575 621 q 438 821 519 821 q 401 818 417 821 q 367 810 386 815 l 367 99 q 439 89 401 89 m 1493 708 l 1501 626 l 1233 117 l 1504 138 l 1490 0 l 932 0 l 924 82 l 1190 590 l 950 572 l 964 708 l 1493 708 m 1410 982 l 1464 918 l 1268 757 l 1179 757 l 978 918 l 1033 982 l 1221 910 l 1410 982 z "},"E":{"ha":633,"x_min":69,"x_max":633,"o":"m 613 917 l 613 800 l 367 800 l 367 529 l 571 529 l 571 413 l 367 413 l 367 117 l 633 117 l 622 0 l 69 0 l 69 917 l 613 917 z "},"É":{"ha":633,"x_min":69,"x_max":633,"o":"m 69 0 m 613 917 l 613 800 l 367 800 l 367 529 l 571 529 l 571 413 l 367 413 l 367 117 l 633 117 l 622 0 l 69 0 l 69 917 l 613 917 m 536 1197 q 574 1150 558 1178 q 589 1094 589 1122 q 563 1035 589 1056 q 503 1009 538 1015 q 413 999 468 1003 l 210 985 l 193 1056 l 536 1197 z "},"Ĕ":{"ha":633,"x_min":69,"x_max":633,"o":"m 69 0 m 613 917 l 613 800 l 367 800 l 367 529 l 571 529 l 571 413 l 367 413 l 367 117 l 633 117 l 622 0 l 69 0 l 69 917 l 613 917 m 610 1163 q 549 1023 610 1074 q 340 972 488 972 q 133 1023 193 972 q 72 1163 72 1074 l 276 1163 l 275 1118 q 288 1063 275 1082 q 340 1044 301 1044 q 397 1069 386 1044 q 406 1123 407 1093 q 406 1163 406 1153 l 610 1163 z "},"Ě":{"ha":633,"x_min":69,"x_max":633,"o":"m 69 0 m 613 917 l 613 800 l 367 800 l 367 529 l 571 529 l 571 413 l 367 413 l 367 117 l 633 117 l 622 0 l 69 0 l 69 917 l 613 917 m 526 1190 l 581 1126 l 385 965 l 296 965 l 94 1126 l 150 1190 l 338 1118 l 526 1190 z "},"Ê":{"ha":633,"x_min":69,"x_max":633,"o":"m 69 0 m 613 917 l 613 800 l 367 800 l 367 529 l 571 529 l 571 413 l 367 413 l 367 117 l 633 117 l 622 0 l 69 0 l 69 917 l 613 917 m 153 950 l 99 1015 l 310 1175 l 369 1175 l 583 1015 l 529 950 l 342 1021 l 153 950 z "},"Ë":{"ha":633,"x_min":31,"x_max":651,"o":"m 31 0 m 613 917 l 613 800 l 367 800 l 367 529 l 571 529 l 571 413 l 367 413 l 367 117 l 633 117 l 622 0 l 69 0 l 69 917 l 613 917 m 504 1210 q 611 1181 571 1210 q 651 1099 651 1151 q 609 1017 651 1046 q 499 988 567 988 q 391 1016 432 988 q 350 1096 350 1044 q 394 1180 350 1150 q 504 1210 438 1210 m 185 1210 q 292 1181 251 1210 q 332 1099 332 1151 q 290 1017 332 1046 q 179 988 247 988 q 72 1016 113 988 q 31 1096 31 1044 q 74 1180 31 1150 q 185 1210 118 1210 z "},"Ė":{"ha":633,"x_min":69,"x_max":633,"o":"m 69 0 m 347 1207 q 454 1178 414 1207 q 494 1096 494 1149 q 452 1014 494 1043 q 342 985 410 985 q 234 1013 275 985 q 193 1093 193 1042 q 237 1177 193 1147 q 347 1207 281 1207 m 613 917 l 613 800 l 367 800 l 367 529 l 571 529 l 571 413 l 367 413 l 367 117 l 633 117 l 622 0 l 69 0 l 69 917 l 613 917 z "},"Ẹ":{"ha":633,"x_min":69,"x_max":633,"o":"m 69 0 m 613 917 l 613 800 l 367 800 l 367 529 l 571 529 l 571 413 l 367 413 l 367 117 l 633 117 l 622 0 l 69 0 l 69 917 l 613 917 m 325 -57 q 432 -86 392 -57 q 472 -168 472 -115 q 430 -250 472 -221 q 319 -279 388 -279 q 212 -251 253 -279 q 171 -171 171 -222 q 215 -87 171 -117 q 325 -57 258 -57 z "},"È":{"ha":633,"x_min":69,"x_max":633,"o":"m 69 0 m 613 917 l 613 800 l 367 800 l 367 529 l 571 529 l 571 413 l 367 413 l 367 117 l 633 117 l 622 0 l 69 0 l 69 917 l 613 917 m 268 1000 q 178 1010 213 1004 q 117 1037 143 1017 q 92 1096 92 1057 q 107 1151 92 1124 q 144 1199 122 1179 l 488 1057 l 471 986 l 268 1000 z "},"Ē":{"ha":633,"x_min":69,"x_max":633,"o":"m 69 0 m 564 1147 q 576 1093 576 1126 q 555 1040 576 1060 q 497 1019 533 1019 l 161 1019 q 149 1074 149 1040 q 170 1127 149 1107 q 228 1147 192 1147 l 564 1147 m 613 917 l 613 800 l 367 800 l 367 529 l 571 529 l 571 413 l 367 413 l 367 117 l 633 117 l 622 0 l 69 0 l 69 917 l 613 917 z "},"Ę":{"ha":633,"x_min":69,"x_max":699,"o":"m 663 -212 q 689 -239 679 -225 q 699 -272 699 -253 q 649 -343 699 -319 q 546 -367 600 -367 q 399 -332 457 -367 q 340 -224 340 -297 q 388 -97 340 -153 q 511 0 435 -42 l 69 0 l 69 917 l 613 917 l 613 800 l 367 800 l 367 529 l 571 529 l 571 413 l 367 413 l 367 117 l 633 117 l 624 15 l 632 14 l 624 7 l 622 0 l 613 0 q 508 -175 508 -82 q 526 -232 508 -217 q 586 -247 544 -247 q 631 -238 608 -247 q 663 -212 653 -229 z "},"Ẽ":{"ha":633,"x_min":65,"x_max":633,"o":"m 65 0 m 613 917 l 613 800 l 367 800 l 367 529 l 571 529 l 571 413 l 367 413 l 367 117 l 633 117 l 622 0 l 69 0 l 69 917 l 613 917 m 586 1160 q 609 1120 600 1143 q 618 1076 618 1097 q 581 1006 618 1025 q 479 988 544 988 q 335 1001 443 988 q 186 1015 226 1015 q 97 988 125 1015 q 74 1027 83 1004 q 65 1071 65 1050 q 102 1141 65 1122 q 204 1160 139 1160 q 350 1146 242 1160 q 497 1132 458 1132 q 586 1160 558 1132 z "},"F":{"ha":614,"x_min":69,"x_max":613,"o":"m 613 917 l 613 800 l 367 800 l 367 510 l 571 510 l 571 393 l 367 393 l 367 0 l 69 0 l 69 917 l 613 917 z "},"G":{"ha":849,"x_min":28,"x_max":824,"o":"m 479 842 q 347 507 347 842 q 382 242 347 340 q 526 144 417 144 q 597 156 564 144 l 588 421 l 804 440 l 804 26 q 476 -31 660 -31 q 139 103 250 -31 q 28 453 28 236 q 146 819 28 693 q 499 944 264 944 q 824 757 824 944 q 774 642 824 685 q 650 600 724 600 q 578 608 604 600 q 586 685 586 650 q 561 798 586 754 q 479 842 536 842 z "},"Ğ":{"ha":849,"x_min":28,"x_max":824,"o":"m 28 0 m 479 842 q 347 507 347 842 q 382 242 347 340 q 526 144 417 144 q 597 156 564 144 l 588 421 l 804 440 l 804 26 q 476 -31 660 -31 q 139 103 250 -31 q 28 453 28 236 q 146 819 28 693 q 499 944 264 944 q 824 757 824 944 q 774 642 824 685 q 650 600 724 600 q 578 608 604 600 q 586 685 586 650 q 561 798 586 754 q 479 842 536 842 m 750 1163 q 689 1023 750 1074 q 481 972 628 972 q 273 1023 333 972 q 213 1163 213 1074 l 417 1163 l 415 1118 q 428 1063 415 1082 q 481 1044 442 1044 q 537 1069 526 1044 q 547 1123 547 1093 q 546 1163 546 1153 l 750 1163 z "},"Ĝ":{"ha":849,"x_min":28,"x_max":824,"o":"m 28 0 m 479 842 q 347 507 347 842 q 382 242 347 340 q 526 144 417 144 q 597 156 564 144 l 588 421 l 804 440 l 804 26 q 476 -31 660 -31 q 139 103 250 -31 q 28 453 28 236 q 146 819 28 693 q 499 944 264 944 q 824 757 824 944 q 774 642 824 685 q 650 600 724 600 q 578 608 604 600 q 586 685 586 650 q 561 798 586 754 q 479 842 536 842 m 285 950 l 231 1015 l 442 1175 l 501 1175 l 715 1015 l 661 950 l 474 1021 l 285 950 z "},"Ģ":{"ha":849,"x_min":28,"x_max":824,"o":"m 28 0 m 479 842 q 347 507 347 842 q 382 242 347 340 q 526 144 417 144 q 597 156 564 144 l 588 421 l 804 440 l 804 26 q 476 -31 660 -31 q 139 103 250 -31 q 28 453 28 236 q 146 819 28 693 q 499 944 264 944 q 824 757 824 944 q 774 642 824 685 q 650 600 724 600 q 578 608 604 600 q 586 685 586 650 q 561 798 586 754 q 479 842 536 842 m 499 -71 q 598 -98 567 -71 q 629 -183 629 -125 q 603 -269 629 -229 q 534 -334 578 -310 q 438 -358 490 -358 q 382 -354 432 -358 q 439 -208 439 -282 q 407 -92 439 -143 q 447 -77 419 -83 q 499 -71 474 -71 z "},"Ġ":{"ha":849,"x_min":28,"x_max":824,"o":"m 28 0 m 479 842 q 347 507 347 842 q 382 242 347 340 q 526 144 417 144 q 597 156 564 144 l 588 421 l 804 440 l 804 26 q 476 -31 660 -31 q 139 103 250 -31 q 28 453 28 236 q 146 819 28 693 q 499 944 264 944 q 824 757 824 944 q 774 642 824 685 q 650 600 724 600 q 578 608 604 600 q 586 685 586 650 q 561 798 586 754 q 479 842 536 842 m 482 1250 q 589 1221 549 1250 q 629 1139 629 1192 q 587 1057 629 1086 q 476 1028 544 1028 q 369 1056 410 1028 q 328 1136 328 1085 q 372 1220 328 1190 q 482 1250 415 1250 z "},"H":{"ha":936,"x_min":69,"x_max":867,"o":"m 867 917 l 867 0 l 569 0 l 569 406 l 367 406 l 367 0 l 69 0 l 69 917 l 367 917 l 367 522 l 569 522 l 569 917 l 867 917 z "},"Ħ":{"ha":988,"x_min":1,"x_max":988,"o":"m 988 758 q 962 694 988 715 q 893 672 936 672 l 893 0 l 596 0 l 596 406 l 392 406 l 392 0 l 94 0 l 94 672 l 7 672 q 1 714 1 689 q 26 778 1 757 q 94 800 50 800 l 94 917 l 392 917 l 392 800 l 596 800 l 596 917 l 893 917 l 893 800 l 982 800 q 988 758 988 775 m 596 522 l 596 672 l 392 672 l 392 522 l 596 522 z "},"Ĥ":{"ha":936,"x_min":69,"x_max":867,"o":"m 69 0 m 867 917 l 867 0 l 569 0 l 569 406 l 367 406 l 367 0 l 69 0 l 69 917 l 367 917 l 367 522 l 569 522 l 569 917 l 867 917 m 279 950 l 225 1015 l 436 1175 l 496 1175 l 710 1015 l 656 950 l 468 1021 l 279 950 z "},"Ḥ":{"ha":936,"x_min":69,"x_max":867,"o":"m 69 0 m 867 917 l 867 0 l 569 0 l 569 406 l 367 406 l 367 0 l 69 0 l 69 917 l 367 917 l 367 522 l 569 522 l 569 917 l 867 917 m 467 -57 q 574 -86 533 -57 q 614 -168 614 -115 q 572 -250 614 -221 q 461 -279 529 -279 q 353 -251 394 -279 q 313 -171 313 -222 q 356 -87 313 -117 q 467 -57 400 -57 z "},"I":{"ha":436,"x_min":69,"x_max":367,"o":"m 367 917 l 367 0 l 69 0 l 69 917 l 367 917 z "},"Ĳ":{"ha":872,"x_min":69,"x_max":803,"o":"m 69 0 m 367 917 l 367 0 l 69 0 l 69 917 l 367 917 m 803 110 q 748 -164 803 -62 q 554 -265 693 -265 q 448 -247 496 -265 q 381 -189 400 -229 q 465 -145 438 -182 q 499 -58 492 -108 q 506 72 506 -7 l 506 917 l 803 917 l 803 110 z "},"Í":{"ha":436,"x_min":69,"x_max":467,"o":"m 69 0 m 367 917 l 367 0 l 69 0 l 69 917 l 367 917 m 414 1197 q 451 1150 436 1178 q 467 1094 467 1122 q 441 1035 467 1056 q 381 1009 415 1015 q 290 999 346 1003 l 88 985 l 71 1056 l 414 1197 z "},"Ĭ":{"ha":436,"x_min":-50,"x_max":488,"o":"m 0 0 m 367 917 l 367 0 l 69 0 l 69 917 l 367 917 m 488 1163 q 426 1023 488 1074 q 218 972 365 972 q 10 1023 71 972 q -50 1163 -50 1074 l 154 1163 l 153 1118 q 166 1063 153 1082 q 218 1044 179 1044 q 274 1069 264 1044 q 284 1123 285 1093 q 283 1163 283 1153 l 488 1163 z "},"Î":{"ha":436,"x_min":-25,"x_max":460,"o":"m 0 0 m 367 917 l 367 0 l 69 0 l 69 917 l 367 917 m 29 950 l -25 1015 l 186 1175 l 246 1175 l 460 1015 l 406 950 l 218 1021 l 29 950 z "},"Ï":{"ha":436,"x_min":-93,"x_max":528,"o":"m 0 0 m 367 917 l 367 0 l 69 0 l 69 917 l 367 917 m 381 1210 q 488 1181 447 1210 q 528 1099 528 1151 q 485 1017 528 1046 q 375 988 443 988 q 267 1016 308 988 q 226 1096 226 1044 q 270 1180 226 1150 q 381 1210 314 1210 m 61 1210 q 168 1181 128 1210 q 208 1099 208 1151 q 166 1017 208 1046 q 56 988 124 988 q -52 1016 -11 988 q -93 1096 -93 1044 q -49 1180 -93 1150 q 61 1210 -6 1210 z "},"İ":{"ha":436,"x_min":69,"x_max":374,"o":"m 69 0 m 367 917 l 367 0 l 69 0 l 69 917 l 367 917 m 226 1250 q 333 1221 293 1250 q 374 1139 374 1192 q 331 1057 374 1086 q 221 1028 289 1028 q 113 1056 154 1028 q 72 1136 72 1085 q 116 1220 72 1190 q 226 1250 160 1250 z "},"Ị":{"ha":436,"x_min":68,"x_max":369,"o":"m 68 0 m 367 917 l 367 0 l 69 0 l 69 917 l 367 917 m 222 -57 q 329 -86 289 -57 q 369 -168 369 -115 q 327 -250 369 -221 q 217 -279 285 -279 q 109 -251 150 -279 q 68 -171 68 -222 q 112 -87 68 -117 q 222 -57 156 -57 z "},"Ì":{"ha":436,"x_min":-31,"x_max":367,"o":"m 0 0 m 367 917 l 367 0 l 69 0 l 69 917 l 367 917 m 146 1000 q 56 1010 90 1004 q -5 1037 21 1017 q -31 1096 -31 1057 q -15 1151 -31 1124 q 22 1199 0 1179 l 365 1057 l 349 986 l 146 1000 z "},"Ī":{"ha":436,"x_min":4,"x_max":432,"o":"m 4 0 m 367 917 l 367 0 l 69 0 l 69 917 l 367 917 m 419 1199 q 432 1144 432 1178 q 410 1091 432 1111 q 353 1071 389 1071 l 17 1071 q 4 1125 4 1092 q 26 1178 4 1158 q 83 1199 47 1199 l 419 1199 z "},"Į":{"ha":436,"x_min":69,"x_max":442,"o":"m 406 -212 q 432 -239 422 -225 q 442 -272 442 -253 q 392 -343 442 -319 q 289 -367 343 -367 q 142 -332 200 -367 q 83 -224 83 -297 q 131 -97 83 -153 q 254 0 178 -42 l 69 0 l 69 917 l 367 917 l 367 15 l 375 14 l 367 8 l 367 0 l 356 0 q 251 -175 251 -82 q 269 -232 251 -217 q 329 -247 288 -247 q 374 -238 351 -247 q 406 -212 396 -229 z "},"Ĩ":{"ha":436,"x_min":-57,"x_max":496,"o":"m 0 0 m 367 917 l 367 0 l 69 0 l 69 917 l 367 917 m 464 1160 q 487 1120 478 1143 q 496 1076 496 1097 q 459 1006 496 1025 q 357 988 422 988 q 213 1001 321 988 q 64 1015 104 1015 q -25 988 3 1015 q -48 1027 -39 1004 q -57 1071 -57 1050 q -20 1141 -57 1122 q 82 1160 17 1160 q 228 1146 119 1160 q 375 1132 336 1132 q 464 1160 436 1132 z "},"J":{"ha":436,"x_min":-56,"x_max":367,"o":"m 367 110 q 312 -164 367 -62 q 118 -265 257 -265 q 12 -247 60 -265 q -56 -189 -36 -229 q 28 -145 1 -182 q 63 -58 56 -108 q 69 72 69 -7 l 69 917 l 367 917 l 367 110 z "},"Ĵ":{"ha":436,"x_min":-56,"x_max":460,"o":"m 0 0 m 367 110 q 312 -164 367 -62 q 118 -265 257 -265 q 12 -247 60 -265 q -56 -189 -36 -229 q 28 -145 1 -182 q 63 -58 56 -108 q 69 72 69 -7 l 69 917 l 367 917 l 367 110 m 29 950 l -25 1015 l 186 1175 l 246 1175 l 460 1015 l 406 950 l 218 1021 l 29 950 z "},"K":{"ha":894,"x_min":69,"x_max":914,"o":"m 367 0 l 69 0 l 69 917 l 367 917 l 367 0 m 600 917 l 894 917 l 676 490 l 914 0 l 610 0 l 394 464 l 600 917 z "},"Ķ":{"ha":894,"x_min":69,"x_max":914,"o":"m 69 0 m 367 0 l 69 0 l 69 917 l 367 917 l 367 0 m 600 917 l 894 917 l 676 490 l 914 0 l 610 0 l 394 464 l 600 917 m 460 -71 q 559 -98 528 -71 q 590 -183 590 -125 q 565 -269 590 -229 q 495 -334 539 -310 q 399 -358 451 -358 q 343 -354 393 -358 q 400 -208 400 -282 q 368 -92 400 -143 q 408 -77 381 -83 q 460 -71 435 -71 z "},"L":{"ha":624,"x_min":69,"x_max":617,"o":"m 69 917 l 367 917 l 367 125 l 617 125 l 603 0 l 69 0 l 69 917 z "},"Ǉ":{"ha":1060,"x_min":69,"x_max":990,"o":"m 69 0 m 69 917 l 367 917 l 367 125 l 617 125 l 603 0 l 69 0 l 69 917 m 990 110 q 935 -164 990 -62 q 742 -265 881 -265 q 635 -247 683 -265 q 568 -189 588 -229 q 652 -145 625 -182 q 686 -58 679 -108 q 693 72 693 -7 l 693 917 l 990 917 l 990 110 z "},"Ĺ":{"ha":624,"x_min":69,"x_max":617,"o":"m 69 0 m 69 917 l 367 917 l 367 125 l 617 125 l 603 0 l 69 0 l 69 917 m 414 1197 q 451 1150 436 1178 q 467 1094 467 1122 q 441 1035 467 1056 q 381 1009 415 1015 q 290 999 346 1003 l 88 985 l 71 1056 l 414 1197 z "},"Ľ":{"ha":624,"x_min":69,"x_max":636,"o":"m 69 0 m 69 917 l 367 917 l 367 125 l 617 125 l 603 0 l 69 0 l 69 917 m 438 979 q 477 994 450 989 q 531 1000 504 1000 q 607 970 578 1000 q 636 882 636 940 q 618 812 636 847 q 564 753 600 776 q 478 731 528 731 q 429 739 453 731 q 460 794 451 765 q 469 864 469 824 q 438 979 469 928 z "},"Ļ":{"ha":624,"x_min":69,"x_max":617,"o":"m 69 0 m 69 917 l 367 917 l 367 125 l 617 125 l 603 0 l 69 0 l 69 917 m 318 -71 q 417 -98 386 -71 q 449 -183 449 -125 q 423 -269 449 -229 q 353 -334 397 -310 q 257 -358 310 -358 q 201 -354 251 -358 q 258 -208 258 -282 q 226 -92 258 -143 q 266 -77 239 -83 q 318 -71 293 -71 z "},"Ŀ":{"ha":676,"x_min":69,"x_max":628,"o":"m 69 917 l 367 917 l 367 125 l 617 125 l 603 0 l 69 0 l 69 917 m 539 549 q 604 522 581 549 q 628 451 628 496 q 602 381 628 407 q 533 354 576 354 q 466 380 490 354 q 442 447 442 406 q 469 521 442 493 q 539 549 496 549 z "},"ǈ":{"ha":624,"x_min":-28,"x_max":617,"o":"m 222 1028 q 115 1056 156 1028 q 74 1136 74 1085 q 117 1220 74 1190 q 228 1250 161 1250 q 335 1221 294 1250 q 375 1139 375 1192 q 333 1057 375 1086 q 222 1028 290 1028 m 603 0 l 292 0 q 132 -69 236 -69 q 34 -53 79 -69 q -28 0 -11 -37 q 69 78 44 10 l 69 917 l 367 917 l 367 125 l 617 125 l 603 0 z "},"Ł":{"ha":708,"x_min":7,"x_max":701,"o":"m 33 278 q 13 315 19 294 q 7 351 7 336 q 24 399 7 381 q 74 429 40 417 l 153 457 l 153 917 l 450 917 l 450 567 l 596 619 q 622 546 622 585 q 606 497 622 515 q 556 467 589 479 l 450 429 l 450 125 l 701 125 l 688 0 l 153 0 l 153 321 l 33 278 z "},"M":{"ha":1204,"x_min":69,"x_max":1135,"o":"m 1135 917 l 1135 0 l 838 0 l 838 710 l 613 0 l 451 0 l 226 710 l 226 0 l 69 0 l 69 917 l 453 917 l 604 406 l 754 917 l 1135 917 z "},"N":{"ha":928,"x_min":69,"x_max":860,"o":"m 511 0 l 226 679 l 226 0 l 69 0 l 69 917 l 418 917 l 701 238 l 701 917 l 860 917 l 860 0 l 511 0 z "},"Ǌ":{"ha":1364,"x_min":69,"x_max":1294,"o":"m 69 0 m 511 0 l 226 679 l 226 0 l 69 0 l 69 917 l 418 917 l 701 238 l 701 917 l 860 917 l 860 0 l 511 0 m 1294 110 q 1240 -164 1294 -62 q 1046 -265 1185 -265 q 940 -247 988 -265 q 872 -189 892 -229 q 956 -145 929 -182 q 990 -58 983 -108 q 997 72 997 -7 l 997 917 l 1294 917 l 1294 110 z "},"Ń":{"ha":928,"x_min":69,"x_max":860,"o":"m 69 0 m 511 0 l 226 679 l 226 0 l 69 0 l 69 917 l 418 917 l 701 238 l 701 917 l 860 917 l 860 0 l 511 0 m 660 1197 q 697 1150 682 1178 q 713 1094 713 1122 q 687 1035 713 1056 q 626 1009 661 1015 q 536 999 592 1003 l 333 985 l 317 1056 l 660 1197 z "},"Ň":{"ha":928,"x_min":69,"x_max":860,"o":"m 69 0 m 511 0 l 226 679 l 226 0 l 69 0 l 69 917 l 418 917 l 701 238 l 701 917 l 860 917 l 860 0 l 511 0 m 650 1190 l 704 1126 l 508 965 l 419 965 l 218 1126 l 274 1190 l 461 1118 l 650 1190 z "},"Ņ":{"ha":928,"x_min":69,"x_max":860,"o":"m 69 0 m 511 0 l 226 679 l 226 0 l 69 0 l 69 917 l 418 917 l 701 238 l 701 917 l 860 917 l 860 0 l 511 0 m 438 -71 q 537 -98 506 -71 q 568 -183 568 -125 q 542 -269 568 -229 q 473 -334 517 -310 q 376 -358 429 -358 q 321 -354 371 -358 q 378 -208 378 -282 q 346 -92 378 -143 q 385 -77 358 -83 q 438 -71 413 -71 z "},"Ṅ":{"ha":928,"x_min":69,"x_max":860,"o":"m 69 0 m 511 0 l 226 679 l 226 0 l 69 0 l 69 917 l 418 917 l 701 238 l 701 917 l 860 917 l 860 0 l 511 0 m 472 1250 q 579 1221 539 1250 q 619 1139 619 1192 q 577 1057 619 1086 q 467 1028 535 1028 q 359 1056 400 1028 q 318 1136 318 1085 q 362 1220 318 1190 q 472 1250 406 1250 z "},"Ŋ":{"ha":928,"x_min":69,"x_max":860,"o":"m 860 917 l 860 76 q 851 -106 860 -35 q 808 -228 843 -178 q 696 -279 772 -279 q 630 -267 658 -279 q 588 -232 601 -254 q 678 -162 657 -222 q 701 0 700 -103 l 511 0 l 226 679 l 226 0 l 69 0 l 69 917 l 418 917 l 701 238 l 701 917 l 860 917 z "},"ǋ":{"ha":928,"x_min":69,"x_max":860,"o":"m 467 1028 q 359 1056 400 1028 q 318 1136 318 1085 q 362 1220 318 1190 q 472 1250 406 1250 q 579 1221 539 1250 q 619 1139 619 1192 q 577 1057 619 1086 q 467 1028 535 1028 m 860 0 l 536 0 q 376 -69 481 -69 q 278 -53 324 -69 q 217 0 233 -37 l 69 0 l 69 917 l 603 917 l 603 474 l 701 238 l 701 917 l 860 917 l 860 0 m 226 1 q 297 44 274 11 q 325 123 319 78 q 331 238 331 168 l 331 431 l 226 679 l 226 1 z "},"Ñ":{"ha":928,"x_min":69,"x_max":860,"o":"m 69 0 m 511 0 l 226 679 l 226 0 l 69 0 l 69 917 l 418 917 l 701 238 l 701 917 l 860 917 l 860 0 l 511 0 m 710 1160 q 733 1120 724 1143 q 742 1076 742 1097 q 705 1006 742 1025 q 603 988 668 988 q 458 1001 567 988 q 310 1015 350 1015 q 221 988 249 1015 q 198 1027 207 1004 q 189 1071 189 1050 q 226 1141 189 1122 q 328 1160 263 1160 q 474 1146 365 1160 q 621 1132 582 1132 q 710 1160 682 1132 z "},"O":{"ha":931,"x_min":28,"x_max":903,"o":"m 465 944 q 794 822 686 944 q 903 471 903 700 q 791 106 903 242 q 465 -31 679 -31 q 228 30 326 -31 q 78 200 129 90 q 28 453 28 310 q 138 814 28 683 q 465 944 247 944 m 465 72 q 561 183 539 72 q 583 463 583 294 q 561 735 583 628 q 465 842 539 842 q 369 735 392 842 q 347 463 347 628 q 369 183 347 294 q 465 72 392 72 z "},"Ó":{"ha":931,"x_min":28,"x_max":903,"o":"m 28 0 m 465 944 q 794 822 686 944 q 903 471 903 700 q 791 106 903 242 q 465 -31 679 -31 q 228 30 326 -31 q 78 200 129 90 q 28 453 28 310 q 138 814 28 683 q 465 944 247 944 m 465 72 q 561 183 539 72 q 583 463 583 294 q 561 735 583 628 q 465 842 539 842 q 369 735 392 842 q 347 463 347 628 q 369 183 347 294 q 465 72 392 72 m 661 1197 q 699 1150 683 1178 q 714 1094 714 1122 q 688 1035 714 1056 q 628 1009 663 1015 q 538 999 593 1003 l 335 985 l 318 1056 l 661 1197 z "},"Ŏ":{"ha":931,"x_min":28,"x_max":903,"o":"m 28 0 m 465 944 q 794 822 686 944 q 903 471 903 700 q 791 106 903 242 q 465 -31 679 -31 q 228 30 326 -31 q 78 200 129 90 q 28 453 28 310 q 138 814 28 683 q 465 944 247 944 m 465 72 q 561 183 539 72 q 583 463 583 294 q 561 735 583 628 q 465 842 539 842 q 369 735 392 842 q 347 463 347 628 q 369 183 347 294 q 465 72 392 72 m 735 1163 q 674 1023 735 1074 q 465 972 613 972 q 258 1023 318 972 q 197 1163 197 1074 l 401 1163 l 400 1118 q 413 1063 400 1082 q 465 1044 426 1044 q 522 1069 511 1044 q 531 1123 532 1093 q 531 1163 531 1153 l 735 1163 z "},"Ô":{"ha":931,"x_min":28,"x_max":903,"o":"m 28 0 m 465 944 q 794 822 686 944 q 903 471 903 700 q 791 106 903 242 q 465 -31 679 -31 q 228 30 326 -31 q 78 200 129 90 q 28 453 28 310 q 138 814 28 683 q 465 944 247 944 m 465 72 q 561 183 539 72 q 583 463 583 294 q 561 735 583 628 q 465 842 539 842 q 369 735 392 842 q 347 463 347 628 q 369 183 347 294 q 465 72 392 72 m 276 950 l 222 1015 l 433 1175 l 493 1175 l 707 1015 l 653 950 l 465 1021 l 276 950 z "},"Ö":{"ha":931,"x_min":28,"x_max":903,"o":"m 28 0 m 465 944 q 794 822 686 944 q 903 471 903 700 q 791 106 903 242 q 465 -31 679 -31 q 228 30 326 -31 q 78 200 129 90 q 28 453 28 310 q 138 814 28 683 q 465 944 247 944 m 465 72 q 561 183 539 72 q 583 463 583 294 q 561 735 583 628 q 465 842 539 842 q 369 735 392 842 q 347 463 347 628 q 369 183 347 294 q 465 72 392 72 m 628 1210 q 735 1181 694 1210 q 775 1099 775 1151 q 733 1017 775 1046 q 622 988 690 988 q 515 1016 556 988 q 474 1096 474 1044 q 517 1180 474 1150 q 628 1210 561 1210 m 308 1210 q 415 1181 375 1210 q 456 1099 456 1151 q 413 1017 456 1046 q 303 988 371 988 q 195 1016 236 988 q 154 1096 154 1044 q 198 1180 154 1150 q 308 1210 242 1210 z "},"Ọ":{"ha":931,"x_min":28,"x_max":903,"o":"m 28 0 m 465 944 q 794 822 686 944 q 903 471 903 700 q 791 106 903 242 q 465 -31 679 -31 q 228 30 326 -31 q 78 200 129 90 q 28 453 28 310 q 138 814 28 683 q 465 944 247 944 m 465 72 q 561 183 539 72 q 583 463 583 294 q 561 735 583 628 q 465 842 539 842 q 369 735 392 842 q 347 463 347 628 q 369 183 347 294 q 465 72 392 72 m 472 -57 q 579 -86 539 -57 q 619 -168 619 -115 q 577 -250 619 -221 q 467 -279 535 -279 q 359 -251 400 -279 q 318 -171 318 -222 q 362 -87 318 -117 q 472 -57 406 -57 z "},"Ò":{"ha":931,"x_min":28,"x_max":903,"o":"m 28 0 m 465 944 q 794 822 686 944 q 903 471 903 700 q 791 106 903 242 q 465 -31 679 -31 q 228 30 326 -31 q 78 200 129 90 q 28 453 28 310 q 138 814 28 683 q 465 944 247 944 m 465 72 q 561 183 539 72 q 583 463 583 294 q 561 735 583 628 q 465 842 539 842 q 369 735 392 842 q 347 463 347 628 q 369 183 347 294 q 465 72 392 72 m 393 1000 q 303 1010 338 1004 q 242 1037 268 1017 q 217 1096 217 1057 q 232 1151 217 1124 q 269 1199 247 1179 l 613 1057 l 596 986 l 393 1000 z "},"Ő":{"ha":931,"x_min":28,"x_max":903,"o":"m 28 0 m 465 944 q 794 822 686 944 q 903 471 903 700 q 791 106 903 242 q 465 -31 679 -31 q 228 30 326 -31 q 78 200 129 90 q 28 453 28 310 q 138 814 28 683 q 465 944 247 944 m 465 72 q 561 183 539 72 q 583 463 583 294 q 561 735 583 628 q 465 842 539 842 q 369 735 392 842 q 347 463 347 628 q 369 183 347 294 q 465 72 392 72 m 492 1197 q 531 1160 517 1182 q 546 1110 546 1138 q 517 1040 546 1067 q 425 1000 489 1013 l 278 972 l 249 1043 l 492 1197 m 788 1197 q 826 1159 811 1182 q 840 1110 840 1136 q 811 1040 840 1067 q 719 1000 782 1013 l 574 972 l 544 1043 l 788 1197 z "},"Ō":{"ha":931,"x_min":28,"x_max":903,"o":"m 28 0 m 465 944 q 794 822 686 944 q 903 471 903 700 q 791 106 903 242 q 465 -31 679 -31 q 228 30 326 -31 q 78 200 129 90 q 28 453 28 310 q 138 814 28 683 q 465 944 247 944 m 465 72 q 561 183 539 72 q 583 463 583 294 q 561 735 583 628 q 465 842 539 842 q 369 735 392 842 q 347 463 347 628 q 369 183 347 294 q 465 72 392 72 m 667 1199 q 679 1144 679 1178 q 658 1091 679 1111 q 600 1071 636 1071 l 264 1071 q 251 1125 251 1092 q 273 1178 251 1158 q 331 1199 294 1199 l 667 1199 z "},"Ǫ":{"ha":931,"x_min":28,"x_max":903,"o":"m 640 0 q 551 -87 585 -39 q 518 -189 518 -135 q 536 -246 518 -231 q 596 -261 554 -261 q 640 -252 618 -261 q 672 -226 663 -243 q 699 -253 689 -239 q 708 -286 708 -267 q 659 -357 708 -333 q 556 -381 610 -381 q 408 -346 467 -381 q 350 -237 350 -311 q 493 -31 350 -118 l 465 -31 q 228 30 326 -31 q 78 200 129 90 q 28 453 28 310 q 138 814 28 683 q 465 944 247 944 q 794 822 686 944 q 903 471 903 700 q 836 172 903 296 q 640 0 769 49 m 347 463 q 369 183 347 294 q 465 72 392 72 q 561 183 539 72 q 583 463 583 294 q 561 735 583 628 q 465 842 539 842 q 369 735 392 842 q 347 463 347 628 z "},"Ø":{"ha":931,"x_min":28,"x_max":903,"o":"m 767 850 q 903 471 903 731 q 791 106 903 242 q 465 -31 679 -31 q 226 31 329 -31 l 154 -79 q 88 -63 117 -79 q 60 -18 60 -47 q 82 38 60 6 l 132 114 q 54 264 81 178 q 28 453 28 350 q 138 814 28 683 q 465 944 247 944 q 660 913 575 944 l 717 1000 q 783 984 754 1000 q 811 939 811 968 q 789 883 811 915 l 767 850 m 347 440 l 554 754 q 465 842 526 842 q 369 735 392 842 q 347 463 347 628 l 347 440 m 465 72 q 561 183 539 72 q 583 463 583 294 q 582 569 583 532 l 360 233 q 465 72 385 72 z "},"Ǿ":{"ha":931,"x_min":28,"x_max":903,"o":"m 28 0 m 767 850 q 903 471 903 731 q 791 106 903 242 q 465 -31 679 -31 q 226 31 329 -31 l 154 -79 q 88 -63 117 -79 q 60 -18 60 -47 q 82 38 60 6 l 132 114 q 54 264 81 178 q 28 453 28 350 q 138 814 28 683 q 465 944 247 944 q 660 913 575 944 l 717 1000 q 783 984 754 1000 q 811 939 811 968 q 789 883 811 915 l 767 850 m 347 440 l 554 754 q 465 842 526 842 q 369 735 392 842 q 347 463 347 628 l 347 440 m 465 72 q 561 183 539 72 q 583 463 583 294 q 582 569 583 532 l 360 233 q 465 72 385 72 m 661 1197 q 699 1150 683 1178 q 714 1094 714 1122 q 688 1035 714 1056 q 628 1009 663 1015 q 538 999 593 1003 l 335 985 l 318 1056 l 661 1197 z "},"Õ":{"ha":931,"x_min":28,"x_max":903,"o":"m 28 0 m 465 944 q 794 822 686 944 q 903 471 903 700 q 791 106 903 242 q 465 -31 679 -31 q 228 30 326 -31 q 78 200 129 90 q 28 453 28 310 q 138 814 28 683 q 465 944 247 944 m 465 72 q 561 183 539 72 q 583 463 583 294 q 561 735 583 628 q 465 842 539 842 q 369 735 392 842 q 347 463 347 628 q 369 183 347 294 q 465 72 392 72 m 711 1160 q 734 1120 725 1143 q 743 1076 743 1097 q 706 1006 743 1025 q 604 988 669 988 q 460 1001 568 988 q 311 1015 351 1015 q 222 988 250 1015 q 199 1027 208 1004 q 190 1071 190 1050 q 227 1141 190 1122 q 329 1160 264 1160 q 475 1146 367 1160 q 622 1132 583 1132 q 711 1160 683 1132 z "},"Œ":{"ha":1122,"x_min":28,"x_max":1122,"o":"m 1111 0 l 642 0 q 465 -31 561 -31 q 228 30 326 -31 q 78 200 129 90 q 28 453 28 310 q 138 814 28 683 q 465 944 247 944 q 649 917 568 944 l 1101 917 l 1101 800 l 854 800 l 854 529 l 1060 529 l 1060 413 l 854 413 l 854 117 l 1122 117 l 1111 0 m 465 72 q 561 183 539 72 q 583 463 583 294 q 561 735 583 628 q 465 842 539 842 q 369 735 392 842 q 347 463 347 628 q 369 183 347 294 q 465 72 392 72 z "},"P":{"ha":858,"x_min":69,"x_max":839,"o":"m 839 646 q 803 499 839 563 q 704 400 768 435 q 557 365 640 365 q 448 389 490 365 q 406 468 406 413 q 516 510 485 468 q 547 642 547 553 q 520 773 547 725 q 425 821 493 821 q 367 813 393 821 l 367 0 l 69 0 l 69 904 q 424 924 264 924 q 727 863 615 924 q 839 646 839 801 z "},"Þ":{"ha":858,"x_min":69,"x_max":839,"o":"m 367 746 l 426 746 q 728 685 618 746 q 839 468 839 624 q 803 321 839 385 q 704 222 768 257 q 557 188 640 188 q 448 212 490 188 q 406 290 406 236 q 516 333 485 290 q 547 464 547 375 q 520 594 547 546 q 425 643 493 643 q 367 635 393 643 l 367 0 l 69 0 l 69 917 l 367 917 l 367 746 z "},"Q":{"ha":931,"x_min":28,"x_max":903,"o":"m 465 944 q 794 822 686 944 q 903 471 903 700 q 844 214 903 328 q 687 35 786 100 q 467 -31 588 -29 q 722 -69 625 -69 q 797 -60 765 -69 q 857 -25 829 -51 q 885 -83 875 -57 q 894 -139 894 -108 q 761 -262 894 -262 q 656 -248 708 -262 q 526 -204 604 -233 q 397 -160 450 -175 q 289 -144 343 -144 q 176 -162 211 -144 q 147 -90 147 -129 q 184 -19 147 -37 q 289 0 221 -1 q 95 168 163 50 q 28 453 28 286 q 138 814 28 683 q 465 944 247 944 m 465 842 q 369 735 392 842 q 347 463 347 628 q 369 183 347 294 q 465 72 392 72 q 561 183 539 72 q 583 463 583 294 q 561 735 583 628 q 465 842 539 842 z "},"R":{"ha":864,"x_min":69,"x_max":883,"o":"m 825 646 q 783 485 825 553 q 664 388 740 418 l 883 0 l 579 0 l 418 414 q 406 468 406 446 q 506 511 479 468 q 532 642 532 554 q 509 772 532 724 q 425 821 486 821 q 367 813 393 821 l 367 0 l 69 0 l 69 904 q 424 924 264 924 q 720 864 615 924 q 825 646 825 804 z "},"Ŕ":{"ha":864,"x_min":69,"x_max":883,"o":"m 69 0 m 825 646 q 783 485 825 553 q 664 388 740 418 l 883 0 l 579 0 l 418 414 q 406 468 406 446 q 506 511 479 468 q 532 642 532 554 q 509 772 532 724 q 425 821 486 821 q 367 813 393 821 l 367 0 l 69 0 l 69 904 q 424 924 264 924 q 720 864 615 924 q 825 646 825 804 m 619 1197 q 657 1150 642 1178 q 672 1094 672 1122 q 647 1035 672 1056 q 586 1009 621 1015 q 496 999 551 1003 l 293 985 l 276 1056 l 619 1197 z "},"Ř":{"ha":864,"x_min":69,"x_max":883,"o":"m 69 0 m 825 646 q 783 485 825 553 q 664 388 740 418 l 883 0 l 579 0 l 418 414 q 406 468 406 446 q 506 511 479 468 q 532 642 532 554 q 509 772 532 724 q 425 821 486 821 q 367 813 393 821 l 367 0 l 69 0 l 69 904 q 424 924 264 924 q 720 864 615 924 q 825 646 825 804 m 610 1190 l 664 1126 l 468 965 l 379 965 l 178 1126 l 233 1190 l 421 1118 l 610 1190 z "},"Ŗ":{"ha":864,"x_min":69,"x_max":883,"o":"m 69 0 m 825 646 q 783 485 825 553 q 664 388 740 418 l 883 0 l 579 0 l 418 414 q 406 468 406 446 q 506 511 479 468 q 532 642 532 554 q 509 772 532 724 q 425 821 486 821 q 367 813 393 821 l 367 0 l 69 0 l 69 904 q 424 924 264 924 q 720 864 615 924 q 825 646 825 804 m 443 -71 q 542 -98 511 -71 q 574 -183 574 -125 q 548 -269 574 -229 q 478 -334 522 -310 q 382 -358 435 -358 q 326 -354 376 -358 q 383 -208 383 -282 q 351 -92 383 -143 q 391 -77 364 -83 q 443 -71 418 -71 z "},"Ṛ":{"ha":864,"x_min":69,"x_max":883,"o":"m 69 0 m 825 646 q 783 485 825 553 q 664 388 740 418 l 883 0 l 579 0 l 418 414 q 406 468 406 446 q 506 511 479 468 q 532 642 532 554 q 509 772 532 724 q 425 821 486 821 q 367 813 393 821 l 367 0 l 69 0 l 69 904 q 424 924 264 924 q 720 864 615 924 q 825 646 825 804 m 476 -57 q 583 -86 543 -57 q 624 -168 624 -115 q 581 -250 624 -221 q 471 -279 539 -279 q 363 -251 404 -279 q 322 -171 322 -222 q 366 -87 322 -117 q 476 -57 410 -57 z "},"S":{"ha":771,"x_min":19,"x_max":743,"o":"m 411 944 q 628 903 533 944 q 722 771 722 863 q 674 664 722 700 q 549 628 625 628 q 476 638 507 628 q 485 728 485 683 q 392 842 485 842 q 326 817 350 842 q 301 751 301 793 q 327 666 301 701 q 392 607 353 631 q 497 551 431 583 q 626 480 578 511 q 709 396 675 449 q 743 267 743 343 q 633 42 743 114 q 350 -31 524 -31 q 117 13 215 -31 q 19 157 19 56 q 69 272 19 229 q 193 314 118 314 q 265 306 239 314 q 257 229 257 264 q 282 114 257 156 q 369 72 307 72 q 451 100 421 72 q 481 178 481 128 q 455 263 481 228 q 390 322 429 299 q 285 378 351 346 q 156 449 204 418 q 74 533 108 481 q 40 663 40 586 q 92 816 40 753 q 230 912 144 879 q 411 944 315 944 z "},"Ś":{"ha":771,"x_min":19,"x_max":743,"o":"m 19 0 m 411 944 q 628 903 533 944 q 722 771 722 863 q 674 664 722 700 q 549 628 625 628 q 476 638 507 628 q 485 728 485 683 q 392 842 485 842 q 326 817 350 842 q 301 751 301 793 q 327 666 301 701 q 392 607 353 631 q 497 551 431 583 q 626 480 578 511 q 709 396 675 449 q 743 267 743 343 q 633 42 743 114 q 350 -31 524 -31 q 117 13 215 -31 q 19 157 19 56 q 69 272 19 229 q 193 314 118 314 q 265 306 239 314 q 257 229 257 264 q 282 114 257 156 q 369 72 307 72 q 451 100 421 72 q 481 178 481 128 q 455 263 481 228 q 390 322 429 299 q 285 378 351 346 q 156 449 204 418 q 74 533 108 481 q 40 663 40 586 q 92 816 40 753 q 230 912 144 879 q 411 944 315 944 m 588 1197 q 625 1150 610 1178 q 640 1094 640 1122 q 615 1035 640 1056 q 554 1009 589 1015 q 464 999 519 1003 l 261 985 l 244 1056 l 588 1197 z "},"Š":{"ha":771,"x_min":19,"x_max":743,"o":"m 19 0 m 411 944 q 628 903 533 944 q 722 771 722 863 q 674 664 722 700 q 549 628 625 628 q 476 638 507 628 q 485 728 485 683 q 392 842 485 842 q 326 817 350 842 q 301 751 301 793 q 327 666 301 701 q 392 607 353 631 q 497 551 431 583 q 626 480 578 511 q 709 396 675 449 q 743 267 743 343 q 633 42 743 114 q 350 -31 524 -31 q 117 13 215 -31 q 19 157 19 56 q 69 272 19 229 q 193 314 118 314 q 265 306 239 314 q 257 229 257 264 q 282 114 257 156 q 369 72 307 72 q 451 100 421 72 q 481 178 481 128 q 455 263 481 228 q 390 322 429 299 q 285 378 351 346 q 156 449 204 418 q 74 533 108 481 q 40 663 40 586 q 92 816 40 753 q 230 912 144 879 q 411 944 315 944 m 578 1190 l 632 1126 l 436 965 l 347 965 l 146 1126 l 201 1190 l 389 1118 l 578 1190 z "},"Ş":{"ha":771,"x_min":19,"x_max":743,"o":"m 346 -31 l 325 -81 l 360 -79 q 486 -112 439 -79 q 533 -214 533 -144 q 473 -321 533 -283 q 331 -358 413 -358 q 228 -340 274 -358 q 182 -274 182 -321 q 199 -218 182 -239 q 308 -264 235 -264 q 347 -249 331 -264 q 364 -210 364 -233 q 338 -165 364 -176 q 271 -153 313 -153 q 215 -156 251 -153 l 263 -26 q 88 30 156 -14 q 19 157 19 74 q 69 272 19 229 q 193 314 118 314 q 265 306 239 314 q 257 229 257 264 q 282 114 257 156 q 369 72 307 72 q 451 100 421 72 q 481 178 481 128 q 455 263 481 228 q 390 322 429 299 q 285 378 351 346 q 156 449 204 418 q 74 533 108 481 q 40 663 40 586 q 92 816 40 753 q 230 912 144 879 q 411 944 315 944 q 628 903 533 944 q 722 771 722 863 q 674 664 722 700 q 549 628 625 628 q 476 638 507 628 q 485 728 485 683 q 392 842 485 842 q 326 817 350 842 q 301 751 301 793 q 327 666 301 701 q 392 607 353 631 q 497 551 431 583 q 626 480 578 511 q 709 396 675 449 q 743 267 743 343 q 633 42 743 114 q 350 -31 524 -31 l 346 -31 z "},"Ŝ":{"ha":771,"x_min":19,"x_max":743,"o":"m 19 0 m 411 944 q 628 903 533 944 q 722 771 722 863 q 674 664 722 700 q 549 628 625 628 q 476 638 507 628 q 485 728 485 683 q 392 842 485 842 q 326 817 350 842 q 301 751 301 793 q 327 666 301 701 q 392 607 353 631 q 497 551 431 583 q 626 480 578 511 q 709 396 675 449 q 743 267 743 343 q 633 42 743 114 q 350 -31 524 -31 q 117 13 215 -31 q 19 157 19 56 q 69 272 19 229 q 193 314 118 314 q 265 306 239 314 q 257 229 257 264 q 282 114 257 156 q 369 72 307 72 q 451 100 421 72 q 481 178 481 128 q 455 263 481 228 q 390 322 429 299 q 285 378 351 346 q 156 449 204 418 q 74 533 108 481 q 40 663 40 586 q 92 816 40 753 q 230 912 144 879 q 411 944 315 944 m 201 950 l 147 1015 l 358 1175 l 418 1175 l 632 1015 l 578 950 l 390 1021 l 201 950 z "},"Ș":{"ha":771,"x_min":19,"x_max":743,"o":"m 19 0 m 411 944 q 628 903 533 944 q 722 771 722 863 q 674 664 722 700 q 549 628 625 628 q 476 638 507 628 q 485 728 485 683 q 392 842 485 842 q 326 817 350 842 q 301 751 301 793 q 327 666 301 701 q 392 607 353 631 q 497 551 431 583 q 626 480 578 511 q 709 396 675 449 q 743 267 743 343 q 633 42 743 114 q 350 -31 524 -31 q 117 13 215 -31 q 19 157 19 56 q 69 272 19 229 q 193 314 118 314 q 265 306 239 314 q 257 229 257 264 q 282 114 257 156 q 369 72 307 72 q 451 100 421 72 q 481 178 481 128 q 455 263 481 228 q 390 322 429 299 q 285 378 351 346 q 156 449 204 418 q 74 533 108 481 q 40 663 40 586 q 92 816 40 753 q 230 912 144 879 q 411 944 315 944 m 322 -71 q 422 -98 390 -71 q 453 -183 453 -125 q 427 -269 453 -229 q 358 -334 401 -310 q 261 -358 314 -358 q 206 -354 256 -358 q 263 -208 263 -282 q 231 -92 263 -143 q 270 -77 243 -83 q 322 -71 297 -71 z "},"Ṣ":{"ha":771,"x_min":19,"x_max":743,"o":"m 19 0 m 411 944 q 628 903 533 944 q 722 771 722 863 q 674 664 722 700 q 549 628 625 628 q 476 638 507 628 q 485 728 485 683 q 392 842 485 842 q 326 817 350 842 q 301 751 301 793 q 327 666 301 701 q 392 607 353 631 q 497 551 431 583 q 626 480 578 511 q 709 396 675 449 q 743 267 743 343 q 633 42 743 114 q 350 -31 524 -31 q 117 13 215 -31 q 19 157 19 56 q 69 272 19 229 q 193 314 118 314 q 265 306 239 314 q 257 229 257 264 q 282 114 257 156 q 369 72 307 72 q 451 100 421 72 q 481 178 481 128 q 455 263 481 228 q 390 322 429 299 q 285 378 351 346 q 156 449 204 418 q 74 533 108 481 q 40 663 40 586 q 92 816 40 753 q 230 912 144 879 q 411 944 315 944 m 356 -57 q 463 -86 422 -57 q 503 -168 503 -115 q 460 -250 503 -221 q 350 -279 418 -279 q 242 -251 283 -279 q 201 -171 201 -222 q 245 -87 201 -117 q 356 -57 289 -57 z "},"ẞ":{"ha":1054,"x_min":56,"x_max":1032,"o":"m 56 446 q 172 821 56 697 q 536 944 289 944 q 755 903 660 944 q 911 769 850 863 q 775 724 831 757 q 719 629 719 690 q 753 549 719 586 q 856 456 786 511 q 948 376 913 410 q 1008 300 983 343 q 1032 207 1032 257 q 941 26 1032 83 q 704 -31 850 -31 q 503 4 590 -31 q 415 121 415 39 q 460 206 415 178 q 572 235 506 235 q 613 232 590 235 q 646 222 636 229 q 640 153 640 178 q 714 49 640 49 q 770 73 750 49 q 790 135 790 97 q 754 233 790 189 q 646 336 718 276 q 530 446 569 397 q 490 557 490 494 q 546 690 490 638 q 686 769 601 742 q 536 840 626 840 q 425 799 464 840 q 372 676 386 757 q 357 461 357 596 l 357 0 l 56 0 l 56 446 z "},"Ə":{"ha":894,"x_min":28,"x_max":867,"o":"m 397 949 q 747 819 626 949 q 867 457 867 690 q 748 92 867 215 q 393 -31 629 -31 q 215 -4 297 -31 q 80 80 132 22 q 28 226 28 138 q 133 447 28 388 q 431 506 238 506 q 490 504 458 506 q 544 500 522 503 q 489 684 538 614 q 342 754 440 754 q 207 713 272 754 q 110 607 142 672 q 72 646 86 618 q 58 704 58 674 q 107 839 58 783 q 233 922 156 894 q 397 949 311 949 m 418 75 q 519 181 493 75 q 546 419 544 286 q 369 376 429 421 q 308 226 308 332 q 340 122 308 168 q 418 75 371 75 z "},"T":{"ha":703,"x_min":11,"x_max":696,"o":"m 696 917 l 685 800 l 500 800 l 500 0 l 203 0 l 203 800 l 11 800 l 11 917 l 696 917 z "},"Ŧ":{"ha":703,"x_min":11,"x_max":696,"o":"m 681 526 q 686 485 686 510 q 661 420 686 442 q 592 399 636 399 l 500 399 l 500 0 l 203 0 l 203 399 l 21 399 q 15 439 15 415 q 40 505 15 483 q 110 526 65 526 l 203 526 l 203 800 l 11 800 l 11 917 l 696 917 l 685 800 l 500 800 l 500 526 l 681 526 z "},"Ť":{"ha":703,"x_min":11,"x_max":696,"o":"m 11 0 m 696 917 l 685 800 l 500 800 l 500 0 l 203 0 l 203 800 l 11 800 l 11 917 l 696 917 m 538 1190 l 592 1126 l 396 965 l 307 965 l 106 1126 l 161 1190 l 349 1118 l 538 1190 z "},"Ţ":{"ha":703,"x_min":11,"x_max":696,"o":"m 361 0 l 328 -81 l 363 -79 q 489 -112 442 -79 q 536 -214 536 -144 q 476 -321 536 -283 q 333 -358 415 -358 q 231 -340 276 -358 q 185 -274 185 -321 q 201 -218 185 -239 q 311 -264 238 -264 q 350 -249 333 -264 q 367 -210 367 -233 q 341 -165 367 -176 q 274 -153 315 -153 q 218 -156 254 -153 l 275 0 l 203 0 l 203 800 l 11 800 l 11 917 l 696 917 l 685 800 l 500 800 l 500 0 l 361 0 z "},"Ț":{"ha":703,"x_min":11,"x_max":696,"o":"m 11 0 m 696 917 l 685 800 l 500 800 l 500 0 l 203 0 l 203 800 l 11 800 l 11 917 l 696 917 m 325 -71 q 424 -98 393 -71 q 456 -183 456 -125 q 430 -269 456 -229 q 360 -334 404 -310 q 264 -358 317 -358 q 208 -354 258 -358 q 265 -208 265 -282 q 233 -92 265 -143 q 273 -77 246 -83 q 325 -71 300 -71 z "},"Ṭ":{"ha":703,"x_min":11,"x_max":696,"o":"m 11 0 m 696 917 l 685 800 l 500 800 l 500 0 l 203 0 l 203 800 l 11 800 l 11 917 l 696 917 m 358 -57 q 465 -86 425 -57 q 506 -168 506 -115 q 463 -250 506 -221 q 353 -279 421 -279 q 245 -251 286 -279 q 204 -171 204 -222 q 248 -87 204 -117 q 358 -57 292 -57 z "},"U":{"ha":847,"x_min":58,"x_max":790,"o":"m 790 381 q 710 71 790 172 q 438 -31 631 -31 q 151 57 243 -31 q 58 335 58 144 l 58 917 l 356 917 l 356 350 q 364 199 356 254 q 396 115 372 144 q 467 86 419 86 q 539 116 514 86 q 572 205 564 146 q 581 365 581 264 l 581 917 l 790 917 l 790 381 z "},"Ú":{"ha":847,"x_min":58,"x_max":790,"o":"m 58 0 m 790 381 q 710 71 790 172 q 438 -31 631 -31 q 151 57 243 -31 q 58 335 58 144 l 58 917 l 356 917 l 356 350 q 364 199 356 254 q 396 115 372 144 q 467 86 419 86 q 539 116 514 86 q 572 205 564 146 q 581 365 581 264 l 581 917 l 790 917 l 790 381 m 661 1197 q 699 1150 683 1178 q 714 1094 714 1122 q 688 1035 714 1056 q 628 1009 663 1015 q 538 999 593 1003 l 335 985 l 318 1056 l 661 1197 z "},"Ŭ":{"ha":847,"x_min":58,"x_max":790,"o":"m 58 0 m 790 381 q 710 71 790 172 q 438 -31 631 -31 q 151 57 243 -31 q 58 335 58 144 l 58 917 l 356 917 l 356 350 q 364 199 356 254 q 396 115 372 144 q 467 86 419 86 q 539 116 514 86 q 572 205 564 146 q 581 365 581 264 l 581 917 l 790 917 l 790 381 m 735 1163 q 674 1023 735 1074 q 465 972 613 972 q 258 1023 318 972 q 197 1163 197 1074 l 401 1163 l 400 1118 q 413 1063 400 1082 q 465 1044 426 1044 q 522 1069 511 1044 q 531 1123 532 1093 q 531 1163 531 1153 l 735 1163 z "},"Û":{"ha":847,"x_min":58,"x_max":790,"o":"m 58 0 m 790 381 q 710 71 790 172 q 438 -31 631 -31 q 151 57 243 -31 q 58 335 58 144 l 58 917 l 356 917 l 356 350 q 364 199 356 254 q 396 115 372 144 q 467 86 419 86 q 539 116 514 86 q 572 205 564 146 q 581 365 581 264 l 581 917 l 790 917 l 790 381 m 275 950 l 221 1015 l 432 1175 l 492 1175 l 706 1015 l 651 950 l 464 1021 l 275 950 z "},"Ü":{"ha":847,"x_min":58,"x_max":790,"o":"m 58 0 m 790 381 q 710 71 790 172 q 438 -31 631 -31 q 151 57 243 -31 q 58 335 58 144 l 58 917 l 356 917 l 356 350 q 364 199 356 254 q 396 115 372 144 q 467 86 419 86 q 539 116 514 86 q 572 205 564 146 q 581 365 581 264 l 581 917 l 790 917 l 790 381 m 626 1210 q 733 1181 693 1210 q 774 1099 774 1151 q 731 1017 774 1046 q 621 988 689 988 q 513 1016 554 988 q 472 1096 472 1044 q 516 1180 472 1150 q 626 1210 560 1210 m 307 1210 q 414 1181 374 1210 q 454 1099 454 1151 q 412 1017 454 1046 q 301 988 369 988 q 194 1016 235 988 q 153 1096 153 1044 q 197 1180 153 1150 q 307 1210 240 1210 z "},"Ụ":{"ha":847,"x_min":58,"x_max":790,"o":"m 58 0 m 790 381 q 710 71 790 172 q 438 -31 631 -31 q 151 57 243 -31 q 58 335 58 144 l 58 917 l 356 917 l 356 350 q 364 199 356 254 q 396 115 372 144 q 467 86 419 86 q 539 116 514 86 q 572 205 564 146 q 581 365 581 264 l 581 917 l 790 917 l 790 381 m 471 -57 q 578 -86 538 -57 q 618 -168 618 -115 q 576 -250 618 -221 q 465 -279 533 -279 q 358 -251 399 -279 q 317 -171 317 -222 q 360 -87 317 -117 q 471 -57 404 -57 z "},"Ù":{"ha":847,"x_min":58,"x_max":790,"o":"m 58 0 m 790 381 q 710 71 790 172 q 438 -31 631 -31 q 151 57 243 -31 q 58 335 58 144 l 58 917 l 356 917 l 356 350 q 364 199 356 254 q 396 115 372 144 q 467 86 419 86 q 539 116 514 86 q 572 205 564 146 q 581 365 581 264 l 581 917 l 790 917 l 790 381 m 393 1000 q 303 1010 338 1004 q 242 1037 268 1017 q 217 1096 217 1057 q 232 1151 217 1124 q 269 1199 247 1179 l 613 1057 l 596 986 l 393 1000 z "},"Ű":{"ha":847,"x_min":58,"x_max":840,"o":"m 58 0 m 790 381 q 710 71 790 172 q 438 -31 631 -31 q 151 57 243 -31 q 58 335 58 144 l 58 917 l 356 917 l 356 350 q 364 199 356 254 q 396 115 372 144 q 467 86 419 86 q 539 116 514 86 q 572 205 564 146 q 581 365 581 264 l 581 917 l 790 917 l 790 381 m 492 1197 q 531 1160 517 1182 q 546 1110 546 1138 q 517 1040 546 1067 q 425 1000 489 1013 l 278 972 l 249 1043 l 492 1197 m 788 1197 q 826 1159 811 1182 q 840 1110 840 1136 q 811 1040 840 1067 q 719 1000 782 1013 l 574 972 l 544 1043 l 788 1197 z "},"Ū":{"ha":847,"x_min":58,"x_max":790,"o":"m 58 0 m 790 381 q 710 71 790 172 q 438 -31 631 -31 q 151 57 243 -31 q 58 335 58 144 l 58 917 l 356 917 l 356 350 q 364 199 356 254 q 396 115 372 144 q 467 86 419 86 q 539 116 514 86 q 572 205 564 146 q 581 365 581 264 l 581 917 l 790 917 l 790 381 m 665 1199 q 678 1144 678 1178 q 656 1091 678 1111 q 599 1071 635 1071 l 263 1071 q 250 1125 250 1092 q 272 1178 250 1158 q 329 1199 293 1199 l 665 1199 z "},"Ų":{"ha":847,"x_min":58,"x_max":790,"o":"m 633 8 q 549 -76 581 -29 q 517 -175 517 -122 q 535 -232 517 -217 q 594 -247 553 -247 q 639 -238 617 -247 q 671 -212 661 -229 q 697 -239 688 -225 q 707 -272 707 -253 q 658 -343 707 -319 q 554 -367 608 -367 q 407 -332 465 -367 q 349 -224 349 -297 q 471 -29 349 -115 q 438 -31 460 -31 q 151 57 243 -31 q 58 335 58 144 l 58 917 l 356 917 l 356 350 q 364 199 356 254 q 396 115 372 144 q 467 86 419 86 q 539 116 514 86 q 572 205 564 146 q 581 365 581 264 l 581 917 l 790 917 l 790 381 q 753 144 790 236 q 633 8 717 51 z "},"Ů":{"ha":847,"x_min":58,"x_max":790,"o":"m 58 0 m 790 381 q 710 71 790 172 q 438 -31 631 -31 q 151 57 243 -31 q 58 335 58 144 l 58 917 l 356 917 l 356 350 q 364 199 356 254 q 396 115 372 144 q 467 86 419 86 q 539 116 514 86 q 572 205 564 146 q 581 365 581 264 l 581 917 l 790 917 l 790 381 m 465 971 q 351 1008 396 971 q 306 1106 306 1044 q 349 1203 306 1168 q 465 1238 393 1238 q 582 1203 538 1238 q 626 1106 626 1168 q 581 1008 626 1044 q 465 971 536 971 m 465 1026 q 512 1049 496 1026 q 528 1106 528 1071 q 512 1160 528 1139 q 465 1181 496 1181 q 419 1160 435 1181 q 403 1106 403 1139 q 418 1048 403 1069 q 465 1026 433 1026 z "},"Ũ":{"ha":847,"x_min":58,"x_max":790,"o":"m 58 0 m 790 381 q 710 71 790 172 q 438 -31 631 -31 q 151 57 243 -31 q 58 335 58 144 l 58 917 l 356 917 l 356 350 q 364 199 356 254 q 396 115 372 144 q 467 86 419 86 q 539 116 514 86 q 572 205 564 146 q 581 365 581 264 l 581 917 l 790 917 l 790 381 m 711 1160 q 734 1120 725 1143 q 743 1076 743 1097 q 706 1006 743 1025 q 604 988 669 988 q 460 1001 568 988 q 311 1015 351 1015 q 222 988 250 1015 q 199 1027 208 1004 q 190 1071 190 1050 q 227 1141 190 1122 q 329 1160 264 1160 q 475 1146 367 1160 q 622 1132 583 1132 q 711 1160 683 1132 z "},"V":{"ha":811,"x_min":4,"x_max":832,"o":"m 832 917 l 576 0 l 222 0 l 4 917 l 310 917 l 463 169 l 613 917 l 832 917 z "},"W":{"ha":1340,"x_min":4,"x_max":1360,"o":"m 1360 917 l 1106 0 l 750 0 l 661 457 l 578 0 l 222 0 l 4 917 l 310 917 l 463 169 l 613 917 l 836 917 l 990 169 l 1140 917 l 1360 917 z "},"Ẃ":{"ha":1340,"x_min":4,"x_max":1360,"o":"m 4 0 m 1360 917 l 1106 0 l 750 0 l 661 457 l 578 0 l 222 0 l 4 917 l 310 917 l 463 169 l 613 917 l 836 917 l 990 169 l 1140 917 l 1360 917 m 918 1197 q 956 1150 940 1178 q 971 1094 971 1122 q 945 1035 971 1056 q 885 1009 919 1015 q 794 999 850 1003 l 592 985 l 575 1056 l 918 1197 z "},"Ŵ":{"ha":1340,"x_min":4,"x_max":1360,"o":"m 4 0 m 1360 917 l 1106 0 l 750 0 l 661 457 l 578 0 l 222 0 l 4 917 l 310 917 l 463 169 l 613 917 l 836 917 l 990 169 l 1140 917 l 1360 917 m 532 950 l 478 1015 l 689 1175 l 749 1175 l 963 1015 l 908 950 l 721 1021 l 532 950 z "},"Ẅ":{"ha":1340,"x_min":4,"x_max":1360,"o":"m 4 0 m 1360 917 l 1106 0 l 750 0 l 661 457 l 578 0 l 222 0 l 4 917 l 310 917 l 463 169 l 613 917 l 836 917 l 990 169 l 1140 917 l 1360 917 m 883 1210 q 990 1181 950 1210 q 1031 1099 1031 1151 q 988 1017 1031 1046 q 878 988 946 988 q 770 1016 811 988 q 729 1096 729 1044 q 773 1180 729 1150 q 883 1210 817 1210 m 564 1210 q 671 1181 631 1210 q 711 1099 711 1151 q 669 1017 711 1046 q 558 988 626 988 q 451 1016 492 988 q 410 1096 410 1044 q 453 1180 410 1150 q 564 1210 497 1210 z "},"Ẁ":{"ha":1340,"x_min":4,"x_max":1360,"o":"m 4 0 m 1360 917 l 1106 0 l 750 0 l 661 457 l 578 0 l 222 0 l 4 917 l 310 917 l 463 169 l 613 917 l 836 917 l 990 169 l 1140 917 l 1360 917 m 650 1000 q 560 1010 594 1004 q 499 1037 525 1017 q 474 1096 474 1057 q 489 1151 474 1124 q 526 1199 504 1179 l 869 1057 l 853 986 l 650 1000 z "},"X":{"ha":735,"x_min":-19,"x_max":756,"o":"m 756 917 l 525 465 l 754 0 l 450 0 l 307 310 l 200 0 l -19 0 l 217 472 l 0 917 l 304 917 l 435 624 l 536 917 l 756 917 z "},"Y":{"ha":768,"x_min":1,"x_max":757,"o":"m 524 415 l 524 0 l 225 0 l 225 403 l 1 917 l 306 917 l 433 554 l 538 917 l 757 917 l 524 415 z "},"Ý":{"ha":768,"x_min":1,"x_max":757,"o":"m 1 0 m 524 415 l 524 0 l 225 0 l 225 403 l 1 917 l 306 917 l 433 554 l 538 917 l 757 917 l 524 415 m 600 1197 q 638 1150 622 1178 q 653 1094 653 1122 q 627 1035 653 1056 q 567 1009 601 1015 q 476 999 532 1003 l 274 985 l 257 1056 l 600 1197 z "},"Ŷ":{"ha":768,"x_min":1,"x_max":757,"o":"m 1 0 m 524 415 l 524 0 l 225 0 l 225 403 l 1 917 l 306 917 l 433 554 l 538 917 l 757 917 l 524 415 m 214 950 l 160 1015 l 371 1175 l 431 1175 l 644 1015 l 590 950 l 403 1021 l 214 950 z "},"Ÿ":{"ha":768,"x_min":1,"x_max":757,"o":"m 1 0 m 524 415 l 524 0 l 225 0 l 225 403 l 1 917 l 306 917 l 433 554 l 538 917 l 757 917 l 524 415 m 565 1210 q 672 1181 632 1210 q 713 1099 713 1151 q 670 1017 713 1046 q 560 988 628 988 q 452 1016 493 988 q 411 1096 411 1044 q 455 1180 411 1150 q 565 1210 499 1210 m 246 1210 q 353 1181 313 1210 q 393 1099 393 1151 q 351 1017 393 1046 q 240 988 308 988 q 133 1016 174 988 q 92 1096 92 1044 q 135 1180 92 1150 q 246 1210 179 1210 z "},"Ỳ":{"ha":768,"x_min":1,"x_max":757,"o":"m 1 0 m 524 415 l 524 0 l 225 0 l 225 403 l 1 917 l 306 917 l 433 554 l 538 917 l 757 917 l 524 415 m 332 1000 q 242 1010 276 1004 q 181 1037 207 1017 q 156 1096 156 1057 q 171 1151 156 1124 q 208 1199 186 1179 l 551 1057 l 535 986 l 332 1000 z "},"Ỹ":{"ha":768,"x_min":1,"x_max":757,"o":"m 1 0 m 524 415 l 524 0 l 225 0 l 225 403 l 1 917 l 306 917 l 433 554 l 538 917 l 757 917 l 524 415 m 650 1160 q 673 1120 664 1143 q 682 1076 682 1097 q 645 1006 682 1025 q 543 988 608 988 q 399 1001 507 988 q 250 1015 290 1015 q 161 988 189 1015 q 138 1027 147 1004 q 129 1071 129 1050 q 166 1141 129 1122 q 268 1160 203 1160 q 414 1146 306 1160 q 561 1132 522 1132 q 650 1160 622 1132 z "},"Z":{"ha":665,"x_min":10,"x_max":671,"o":"m 643 917 l 653 811 l 328 125 l 671 125 l 656 0 l 19 0 l 10 106 l 335 792 l 38 792 l 38 917 l 643 917 z "},"Ź":{"ha":665,"x_min":10,"x_max":671,"o":"m 10 0 m 643 917 l 653 811 l 328 125 l 671 125 l 656 0 l 19 0 l 10 106 l 335 792 l 38 792 l 38 917 l 643 917 m 529 1197 q 567 1150 551 1178 q 582 1094 582 1122 q 556 1035 582 1056 q 496 1009 531 1015 q 406 999 461 1003 l 203 985 l 186 1056 l 529 1197 z "},"Ž":{"ha":665,"x_min":10,"x_max":671,"o":"m 10 0 m 643 917 l 653 811 l 328 125 l 671 125 l 656 0 l 19 0 l 10 106 l 335 792 l 38 792 l 38 917 l 643 917 m 519 1190 l 574 1126 l 378 965 l 289 965 l 88 1126 l 143 1190 l 331 1118 l 519 1190 z "},"Ż":{"ha":665,"x_min":10,"x_max":671,"o":"m 10 0 m 643 917 l 653 811 l 328 125 l 671 125 l 656 0 l 19 0 l 10 106 l 335 792 l 38 792 l 38 917 l 643 917 m 342 1250 q 449 1221 408 1250 q 489 1139 489 1192 q 447 1057 489 1086 q 336 1028 404 1028 q 228 1056 269 1028 q 188 1136 188 1085 q 231 1220 188 1190 q 342 1250 275 1250 z "},"Ẓ":{"ha":665,"x_min":10,"x_max":671,"o":"m 10 0 m 643 917 l 653 811 l 328 125 l 671 125 l 656 0 l 19 0 l 10 106 l 335 792 l 38 792 l 38 917 l 643 917 m 335 -57 q 442 -86 401 -57 q 482 -168 482 -115 q 440 -250 482 -221 q 329 -279 397 -279 q 222 -251 263 -279 q 181 -171 181 -222 q 224 -87 181 -117 q 335 -57 268 -57 z "},"a":{"ha":807,"x_min":22,"x_max":785,"o":"m 488 63 q 415 -8 465 14 q 303 -31 365 -31 q 103 23 183 -31 q 22 179 22 76 q 149 358 22 313 q 469 404 275 404 l 469 525 q 453 622 469 588 q 392 657 438 657 q 293 531 293 657 q 299 461 293 506 q 265 451 289 454 q 224 449 242 449 q 113 477 157 449 q 68 564 68 506 q 171 696 68 656 q 401 736 274 736 q 654 678 567 736 q 742 475 742 619 l 742 163 q 785 17 742 72 q 727 -11 764 -1 q 657 -21 690 -21 q 488 63 528 -21 m 381 68 q 449 110 428 68 q 469 213 469 151 l 469 335 q 338 300 382 335 q 293 185 293 265 q 315 101 293 133 q 381 68 336 68 z "},"á":{"ha":807,"x_min":22,"x_max":785,"o":"m 22 0 m 488 63 q 415 -8 465 14 q 303 -31 365 -31 q 103 23 183 -31 q 22 179 22 76 q 149 358 22 313 q 469 404 275 404 l 469 525 q 453 622 469 588 q 392 657 438 657 q 293 531 293 657 q 299 461 293 506 q 265 451 289 454 q 224 449 242 449 q 113 477 157 449 q 68 564 68 506 q 171 696 68 656 q 401 736 274 736 q 654 678 567 736 q 742 475 742 619 l 742 163 q 785 17 742 72 q 727 -11 764 -1 q 657 -21 690 -21 q 488 63 528 -21 m 381 68 q 449 110 428 68 q 469 213 469 151 l 469 335 q 338 300 382 335 q 293 185 293 265 q 315 101 293 133 q 381 68 336 68 m 554 1071 q 607 1028 585 1057 q 629 968 629 999 q 590 898 629 921 q 475 853 551 875 l 279 797 l 249 863 l 554 1071 z "},"ă":{"ha":807,"x_min":22,"x_max":785,"o":"m 22 0 m 488 63 q 415 -8 465 14 q 303 -31 365 -31 q 103 23 183 -31 q 22 179 22 76 q 149 358 22 313 q 469 404 275 404 l 469 525 q 453 622 469 588 q 392 657 438 657 q 293 531 293 657 q 299 461 293 506 q 265 451 289 454 q 224 449 242 449 q 113 477 157 449 q 68 564 68 506 q 171 696 68 656 q 401 736 274 736 q 654 678 567 736 q 742 475 742 619 l 742 163 q 785 17 742 72 q 727 -11 764 -1 q 657 -21 690 -21 q 488 63 528 -21 m 381 68 q 449 110 428 68 q 469 213 469 151 l 469 335 q 338 300 382 335 q 293 185 293 265 q 315 101 293 133 q 381 68 336 68 m 661 1035 q 592 876 661 936 q 392 815 524 815 q 192 876 260 815 q 124 1035 124 936 l 328 1035 l 326 981 q 340 912 326 936 q 392 888 353 888 q 445 913 432 888 q 458 985 458 939 l 457 1035 l 661 1035 z "},"â":{"ha":807,"x_min":22,"x_max":785,"o":"m 22 0 m 488 63 q 415 -8 465 14 q 303 -31 365 -31 q 103 23 183 -31 q 22 179 22 76 q 149 358 22 313 q 469 404 275 404 l 469 525 q 453 622 469 588 q 392 657 438 657 q 293 531 293 657 q 299 461 293 506 q 265 451 289 454 q 224 449 242 449 q 113 477 157 449 q 68 564 68 506 q 171 696 68 656 q 401 736 274 736 q 654 678 567 736 q 742 475 742 619 l 742 163 q 785 17 742 72 q 727 -11 764 -1 q 657 -21 690 -21 q 488 63 528 -21 m 381 68 q 449 110 428 68 q 469 213 469 151 l 469 335 q 338 300 382 335 q 293 185 293 265 q 315 101 293 133 q 381 68 336 68 m 204 813 l 150 878 l 361 1038 l 421 1038 l 635 878 l 581 813 l 393 883 l 204 813 z "},"ä":{"ha":807,"x_min":22,"x_max":785,"o":"m 22 0 m 488 63 q 415 -8 465 14 q 303 -31 365 -31 q 103 23 183 -31 q 22 179 22 76 q 149 358 22 313 q 469 404 275 404 l 469 525 q 453 622 469 588 q 392 657 438 657 q 293 531 293 657 q 299 461 293 506 q 265 451 289 454 q 224 449 242 449 q 113 477 157 449 q 68 564 68 506 q 171 696 68 656 q 401 736 274 736 q 654 678 567 736 q 742 475 742 619 l 742 163 q 785 17 742 72 q 727 -11 764 -1 q 657 -21 690 -21 q 488 63 528 -21 m 381 68 q 449 110 428 68 q 469 213 469 151 l 469 335 q 338 300 382 335 q 293 185 293 265 q 315 101 293 133 q 381 68 336 68 m 553 1042 q 660 1013 619 1042 q 700 931 700 983 q 658 849 700 878 q 547 819 615 819 q 440 848 481 819 q 399 928 399 876 q 442 1012 399 982 q 553 1042 486 1042 m 233 1042 q 340 1013 300 1042 q 381 931 381 983 q 338 849 381 878 q 228 819 296 819 q 120 848 161 819 q 79 928 79 876 q 123 1012 79 982 q 233 1042 167 1042 z "},"à":{"ha":807,"x_min":22,"x_max":785,"o":"m 22 0 m 488 63 q 415 -8 465 14 q 303 -31 365 -31 q 103 23 183 -31 q 22 179 22 76 q 149 358 22 313 q 469 404 275 404 l 469 525 q 453 622 469 588 q 392 657 438 657 q 293 531 293 657 q 299 461 293 506 q 265 451 289 454 q 224 449 242 449 q 113 477 157 449 q 68 564 68 506 q 171 696 68 656 q 401 736 274 736 q 654 678 567 736 q 742 475 742 619 l 742 163 q 785 17 742 72 q 727 -11 764 -1 q 657 -21 690 -21 q 488 63 528 -21 m 381 68 q 449 110 428 68 q 469 213 469 151 l 469 335 q 338 300 382 335 q 293 185 293 265 q 315 101 293 133 q 381 68 336 68 m 310 853 q 194 898 233 875 q 154 968 154 921 q 176 1028 154 999 q 229 1071 199 1057 l 535 863 l 504 797 l 310 853 z "},"ā":{"ha":807,"x_min":22,"x_max":785,"o":"m 22 0 m 488 63 q 415 -8 465 14 q 303 -31 365 -31 q 103 23 183 -31 q 22 179 22 76 q 149 358 22 313 q 469 404 275 404 l 469 525 q 453 622 469 588 q 392 657 438 657 q 293 531 293 657 q 299 461 293 506 q 265 451 289 454 q 224 449 242 449 q 113 477 157 449 q 68 564 68 506 q 171 696 68 656 q 401 736 274 736 q 654 678 567 736 q 742 475 742 619 l 742 163 q 785 17 742 72 q 727 -11 764 -1 q 657 -21 690 -21 q 488 63 528 -21 m 381 68 q 449 110 428 68 q 469 213 469 151 l 469 335 q 338 300 382 335 q 293 185 293 265 q 315 101 293 133 q 381 68 336 68 m 593 990 q 606 936 606 969 q 584 883 606 903 q 526 863 563 863 l 190 863 q 178 917 178 883 q 199 970 178 950 q 257 990 221 990 l 593 990 z "},"ą":{"ha":807,"x_min":22,"x_max":851,"o":"m 815 -210 q 842 -236 832 -222 q 851 -269 851 -250 q 801 -340 851 -317 q 699 -364 751 -364 q 551 -329 610 -364 q 493 -221 493 -294 q 626 -19 493 -107 q 488 63 522 -11 q 415 -8 465 14 q 303 -31 365 -31 q 103 23 183 -31 q 22 179 22 76 q 149 358 22 313 q 469 404 275 404 l 469 525 q 453 622 469 588 q 392 657 438 657 q 293 531 293 657 q 299 461 293 506 q 265 451 289 454 q 224 449 242 449 q 113 477 157 449 q 68 564 68 506 q 171 696 68 656 q 401 736 274 736 q 654 678 567 736 q 742 475 742 619 l 742 163 q 785 17 742 72 q 776 10 781 13 q 769 6 772 8 q 690 -77 719 -32 q 661 -172 661 -122 q 679 -229 661 -214 q 739 -244 697 -244 q 783 -235 761 -244 q 815 -210 806 -226 m 469 335 q 338 300 382 335 q 293 185 293 265 q 315 101 293 133 q 381 68 336 68 q 449 110 428 68 q 469 213 469 151 l 469 335 z "},"å":{"ha":807,"x_min":22,"x_max":785,"o":"m 22 0 m 488 63 q 415 -8 465 14 q 303 -31 365 -31 q 103 23 183 -31 q 22 179 22 76 q 149 358 22 313 q 469 404 275 404 l 469 525 q 453 622 469 588 q 392 657 438 657 q 293 531 293 657 q 299 461 293 506 q 265 451 289 454 q 224 449 242 449 q 113 477 157 449 q 68 564 68 506 q 171 696 68 656 q 401 736 274 736 q 654 678 567 736 q 742 475 742 619 l 742 163 q 785 17 742 72 q 727 -11 764 -1 q 657 -21 690 -21 q 488 63 528 -21 m 381 68 q 449 110 428 68 q 469 213 469 151 l 469 335 q 338 300 382 335 q 293 185 293 265 q 315 101 293 133 q 381 68 336 68 m 392 804 q 277 841 322 804 q 232 939 232 878 q 276 1035 232 1001 q 392 1069 319 1069 q 508 1035 464 1069 q 551 939 551 1001 q 506 841 551 878 q 392 804 461 804 m 392 861 q 438 883 422 861 q 454 939 454 904 q 438 993 454 972 q 392 1014 422 1014 q 345 993 361 1014 q 329 939 329 972 q 344 883 329 904 q 392 861 360 861 z "},"ǻ":{"ha":807,"x_min":22,"x_max":785,"o":"m 586 1276 q 624 1231 608 1258 q 639 1175 639 1203 q 613 1116 639 1136 q 553 1090 588 1096 q 463 1079 518 1083 l 260 1065 l 243 1136 l 586 1276 m 390 767 q 276 803 321 767 q 231 901 231 840 q 274 998 231 964 q 390 1032 318 1032 q 506 998 463 1032 q 550 901 550 964 q 505 803 550 840 q 390 767 460 767 m 390 824 q 437 845 421 824 q 453 901 453 867 q 437 956 453 935 q 390 976 421 976 q 344 956 360 976 q 328 901 328 935 q 343 845 328 867 q 390 824 358 824 m 488 63 q 415 -8 465 14 q 303 -31 365 -31 q 103 23 183 -31 q 22 179 22 76 q 149 358 22 313 q 469 404 275 404 l 469 525 q 453 622 469 588 q 392 657 438 657 q 293 531 293 657 q 299 461 293 506 q 265 451 289 454 q 224 449 242 449 q 113 477 157 449 q 68 564 68 506 q 171 696 68 656 q 401 736 274 736 q 654 678 567 736 q 742 475 742 619 l 742 163 q 785 17 742 72 q 727 -11 764 -1 q 657 -21 690 -21 q 488 63 528 -21 m 381 68 q 449 110 428 68 q 469 213 469 151 l 469 335 q 338 300 382 335 q 293 185 293 265 q 315 101 293 133 q 381 68 336 68 z "},"ã":{"ha":807,"x_min":22,"x_max":785,"o":"m 22 0 m 488 63 q 415 -8 465 14 q 303 -31 365 -31 q 103 23 183 -31 q 22 179 22 76 q 149 358 22 313 q 469 404 275 404 l 469 525 q 453 622 469 588 q 392 657 438 657 q 293 531 293 657 q 299 461 293 506 q 265 451 289 454 q 224 449 242 449 q 113 477 157 449 q 68 564 68 506 q 171 696 68 656 q 401 736 274 736 q 654 678 567 736 q 742 475 742 619 l 742 163 q 785 17 742 72 q 727 -11 764 -1 q 657 -21 690 -21 q 488 63 528 -21 m 381 68 q 449 110 428 68 q 469 213 469 151 l 469 335 q 338 300 382 335 q 293 185 293 265 q 315 101 293 133 q 381 68 336 68 m 636 1011 q 659 970 650 993 q 668 926 668 947 q 631 856 668 875 q 529 838 593 838 q 383 851 492 838 q 236 865 275 865 q 147 838 175 865 q 124 877 133 854 q 115 921 115 900 q 152 991 115 972 q 254 1010 189 1010 q 399 996 290 1010 q 547 982 507 982 q 636 1011 608 982 z "},"æ":{"ha":1174,"x_min":22,"x_max":1154,"o":"m 1083 238 q 1113 206 1103 228 q 1124 160 1124 185 q 1082 54 1124 97 q 975 -10 1040 11 q 840 -31 910 -31 q 560 76 656 -31 q 451 -5 514 21 q 303 -31 388 -31 q 103 23 183 -31 q 22 179 22 76 q 147 356 22 313 q 469 399 272 399 l 469 525 q 453 622 469 588 q 392 657 438 657 q 293 531 293 657 q 299 461 293 506 q 265 451 289 454 q 224 449 242 449 q 113 477 157 449 q 68 564 68 506 q 171 696 68 656 q 401 736 274 736 q 636 689 557 736 q 863 736 731 736 q 1069 686 985 736 q 1154 535 1154 636 q 1064 366 1154 410 q 814 322 974 322 q 743 326 768 322 q 783 188 749 238 q 894 138 817 138 q 1006 163 954 138 q 1083 238 1057 189 m 843 653 q 765 576 788 653 q 742 389 743 499 q 874 420 833 389 q 915 535 915 451 q 899 619 915 585 q 843 653 882 653 m 469 329 q 337 297 381 329 q 293 185 293 264 q 315 101 293 133 q 381 68 336 68 q 449 110 428 68 q 469 213 469 151 l 469 329 z "},"ǽ":{"ha":1174,"x_min":22,"x_max":1154,"o":"m 22 0 m 1083 238 q 1113 206 1103 228 q 1124 160 1124 185 q 1082 54 1124 97 q 975 -10 1040 11 q 840 -31 910 -31 q 560 76 656 -31 q 451 -5 514 21 q 303 -31 388 -31 q 103 23 183 -31 q 22 179 22 76 q 147 356 22 313 q 469 399 272 399 l 469 525 q 453 622 469 588 q 392 657 438 657 q 293 531 293 657 q 299 461 293 506 q 265 451 289 454 q 224 449 242 449 q 113 477 157 449 q 68 564 68 506 q 171 696 68 656 q 401 736 274 736 q 636 689 557 736 q 863 736 731 736 q 1069 686 985 736 q 1154 535 1154 636 q 1064 366 1154 410 q 814 322 974 322 q 743 326 768 322 q 783 188 749 238 q 894 138 817 138 q 1006 163 954 138 q 1083 238 1057 189 m 843 653 q 765 576 788 653 q 742 389 743 499 q 874 420 833 389 q 915 535 915 451 q 899 619 915 585 q 843 653 882 653 m 469 329 q 337 297 381 329 q 293 185 293 264 q 315 101 293 133 q 381 68 336 68 q 449 110 428 68 q 469 213 469 151 l 469 329 m 743 1071 q 796 1028 774 1057 q 818 968 818 999 q 779 898 818 921 q 664 853 740 875 l 468 797 l 438 863 l 743 1071 z "},"b":{"ha":835,"x_min":75,"x_max":796,"o":"m 347 833 q 335 653 347 704 q 528 736 397 736 q 733 635 671 736 q 796 364 796 533 q 696 72 796 174 q 408 -31 596 -31 q 236 -10 329 -31 q 75 44 143 11 l 75 972 l 347 1000 l 347 833 m 347 78 q 418 53 376 53 q 500 136 482 53 q 518 357 518 219 q 501 557 518 483 q 428 631 485 631 q 372 603 390 631 q 351 538 354 575 q 347 443 347 501 l 347 78 z "},"c":{"ha":701,"x_min":39,"x_max":696,"o":"m 406 653 q 317 367 317 653 q 349 198 317 258 q 469 138 382 138 q 563 166 524 138 q 625 246 603 194 q 664 219 650 240 q 678 169 678 197 q 601 21 678 72 q 414 -31 524 -31 q 137 73 235 -31 q 39 360 39 176 q 140 640 39 543 q 425 736 240 736 q 619 696 542 736 q 696 561 696 656 q 651 475 696 504 q 539 446 606 446 q 498 449 521 446 q 465 458 475 451 q 471 529 471 503 q 458 618 471 583 q 406 653 444 653 z "},"ć":{"ha":701,"x_min":39,"x_max":696,"o":"m 39 0 m 406 653 q 317 367 317 653 q 349 198 317 258 q 469 138 382 138 q 563 166 524 138 q 625 246 603 194 q 664 219 650 240 q 678 169 678 197 q 601 21 678 72 q 414 -31 524 -31 q 137 73 235 -31 q 39 360 39 176 q 140 640 39 543 q 425 736 240 736 q 619 696 542 736 q 696 561 696 656 q 651 475 696 504 q 539 446 606 446 q 498 449 521 446 q 465 458 475 451 q 471 529 471 503 q 458 618 471 583 q 406 653 444 653 m 568 1071 q 621 1028 599 1057 q 643 968 643 999 q 604 898 643 921 q 489 853 565 875 l 293 797 l 263 863 l 568 1071 z "},"č":{"ha":701,"x_min":39,"x_max":696,"o":"m 39 0 m 406 653 q 317 367 317 653 q 349 198 317 258 q 469 138 382 138 q 563 166 524 138 q 625 246 603 194 q 664 219 650 240 q 678 169 678 197 q 601 21 678 72 q 414 -31 524 -31 q 137 73 235 -31 q 39 360 39 176 q 140 640 39 543 q 425 736 240 736 q 619 696 542 736 q 696 561 696 656 q 651 475 696 504 q 539 446 606 446 q 498 449 521 446 q 465 458 475 451 q 471 529 471 503 q 458 618 471 583 q 406 653 444 653 m 593 1053 l 647 989 l 451 799 l 363 799 l 163 989 l 217 1053 l 406 953 l 593 1053 z "},"ç":{"ha":701,"x_min":39,"x_max":696,"o":"m 625 246 q 664 219 650 240 q 678 169 678 197 q 601 21 678 72 q 414 -31 524 -31 l 411 -31 l 390 -81 l 425 -79 q 551 -112 504 -79 q 599 -214 599 -144 q 538 -321 599 -283 q 396 -358 478 -358 q 293 -340 339 -358 q 247 -274 247 -321 q 264 -218 247 -239 q 374 -264 300 -264 q 413 -249 396 -264 q 429 -210 429 -233 q 403 -165 429 -176 q 336 -153 378 -153 q 281 -156 317 -153 l 329 -24 q 114 100 189 0 q 39 360 39 200 q 140 640 39 543 q 425 736 240 736 q 619 696 542 736 q 696 561 696 656 q 651 475 696 504 q 539 446 606 446 q 498 449 521 446 q 465 458 475 451 q 471 529 471 503 q 458 618 471 583 q 406 653 444 653 q 317 367 317 653 q 349 198 317 258 q 469 138 382 138 q 563 166 524 138 q 625 246 603 194 z "},"ĉ":{"ha":701,"x_min":39,"x_max":696,"o":"m 39 0 m 406 653 q 317 367 317 653 q 349 198 317 258 q 469 138 382 138 q 563 166 524 138 q 625 246 603 194 q 664 219 650 240 q 678 169 678 197 q 601 21 678 72 q 414 -31 524 -31 q 137 73 235 -31 q 39 360 39 176 q 140 640 39 543 q 425 736 240 736 q 619 696 542 736 q 696 561 696 656 q 651 475 696 504 q 539 446 606 446 q 498 449 521 446 q 465 458 475 451 q 471 529 471 503 q 458 618 471 583 q 406 653 444 653 m 218 813 l 164 878 l 375 1038 l 435 1038 l 649 878 l 594 813 l 407 883 l 218 813 z "},"ċ":{"ha":701,"x_min":39,"x_max":696,"o":"m 39 0 m 406 653 q 317 367 317 653 q 349 198 317 258 q 469 138 382 138 q 563 166 524 138 q 625 246 603 194 q 664 219 650 240 q 678 169 678 197 q 601 21 678 72 q 414 -31 524 -31 q 137 73 235 -31 q 39 360 39 176 q 140 640 39 543 q 425 736 240 736 q 619 696 542 736 q 696 561 696 656 q 651 475 696 504 q 539 446 606 446 q 498 449 521 446 q 465 458 475 451 q 471 529 471 503 q 458 618 471 583 q 406 653 444 653 m 414 1042 q 521 1013 481 1042 q 561 931 561 983 q 519 849 561 878 q 408 819 476 819 q 301 848 342 819 q 260 928 260 876 q 303 1012 260 982 q 414 1042 347 1042 z "},"d":{"ha":835,"x_min":39,"x_max":803,"o":"m 760 163 q 803 17 760 72 q 744 -11 782 -1 q 674 -21 707 -21 q 506 63 546 -21 q 311 -31 444 -31 q 103 77 167 -31 q 39 357 39 185 q 135 640 39 543 q 417 736 232 736 q 488 732 456 736 l 488 972 l 760 1000 l 760 163 m 488 628 q 417 653 456 653 q 336 572 356 653 q 317 364 317 492 q 333 155 317 235 q 407 75 350 75 q 469 117 451 75 q 488 219 488 160 l 488 628 z "},"ð":{"ha":833,"x_min":39,"x_max":785,"o":"m 396 1000 q 638 906 546 1000 l 751 947 q 760 933 756 942 q 767 921 765 924 q 774 893 774 904 q 724 836 774 856 l 699 826 q 785 438 785 679 q 695 96 785 222 q 413 -31 606 -31 q 221 12 306 -31 q 88 133 136 54 q 39 315 39 211 q 100 535 39 453 q 249 651 161 618 q 426 685 336 685 q 494 678 468 685 q 483 749 490 724 l 378 710 q 363 736 367 725 q 357 764 357 749 q 404 821 357 803 l 438 833 q 351 857 406 857 q 276 836 307 857 q 264 872 269 850 q 258 910 258 893 q 297 979 258 958 q 396 1000 335 1000 m 413 53 q 476 100 456 53 q 502 217 497 147 q 507 404 507 288 q 497 571 507 500 q 426 601 464 601 q 336 524 356 601 q 317 325 317 446 q 334 132 317 211 q 413 53 351 53 z "},"ď":{"ha":835,"x_min":39,"x_max":1015,"o":"m 39 0 m 760 163 q 803 17 760 72 q 744 -11 782 -1 q 674 -21 707 -21 q 506 63 546 -21 q 311 -31 444 -31 q 103 77 167 -31 q 39 357 39 185 q 135 640 39 543 q 417 736 232 736 q 488 732 456 736 l 488 972 l 760 1000 l 760 163 m 488 628 q 417 653 456 653 q 336 572 356 653 q 317 364 317 492 q 333 155 317 235 q 407 75 350 75 q 469 117 451 75 q 488 219 488 160 l 488 628 m 817 979 q 856 994 829 989 q 910 1000 883 1000 q 986 970 957 1000 q 1015 882 1015 940 q 997 812 1015 847 q 943 753 979 776 q 857 731 907 731 q 808 739 832 731 q 840 794 831 765 q 849 864 849 824 q 817 979 849 928 z "},"đ":{"ha":935,"x_min":39,"x_max":903,"o":"m 897 907 q 903 867 903 890 q 878 801 903 822 q 808 779 853 779 l 760 779 l 760 163 q 803 17 760 72 q 744 -11 782 -1 q 674 -21 707 -21 q 506 63 546 -21 q 311 -31 444 -31 q 103 77 167 -31 q 39 357 39 185 q 135 640 39 543 q 417 736 232 736 q 488 732 456 736 l 488 779 l 299 779 q 293 821 293 796 q 318 885 293 864 q 388 907 343 907 l 488 907 l 488 972 l 760 1000 l 760 907 l 897 907 m 488 628 q 417 653 456 653 q 336 572 356 653 q 317 364 317 492 q 333 155 317 235 q 407 75 350 75 q 469 117 451 75 q 488 219 488 160 l 488 628 z "},"ḍ":{"ha":835,"x_min":39,"x_max":803,"o":"m 39 0 m 760 163 q 803 17 760 72 q 744 -11 782 -1 q 674 -21 707 -21 q 506 63 546 -21 q 311 -31 444 -31 q 103 77 167 -31 q 39 357 39 185 q 135 640 39 543 q 417 736 232 736 q 488 732 456 736 l 488 972 l 760 1000 l 760 163 m 488 628 q 417 653 456 653 q 336 572 356 653 q 317 364 317 492 q 333 155 317 235 q 407 75 350 75 q 469 117 451 75 q 488 219 488 160 l 488 628 m 447 -57 q 554 -86 514 -57 q 594 -168 594 -115 q 552 -250 594 -221 q 442 -279 510 -279 q 334 -251 375 -279 q 293 -171 293 -222 q 337 -87 293 -117 q 447 -57 381 -57 z "},"ǳ":{"ha":1435,"x_min":39,"x_max":1417,"o":"m 39 0 m 760 163 q 803 17 760 72 q 744 -11 782 -1 q 674 -21 707 -21 q 506 63 546 -21 q 311 -31 444 -31 q 103 77 167 -31 q 39 357 39 185 q 135 640 39 543 q 417 736 232 736 q 488 732 456 736 l 488 972 l 760 1000 l 760 163 m 488 628 q 417 653 456 653 q 336 572 356 653 q 317 364 317 492 q 333 155 317 235 q 407 75 350 75 q 469 117 451 75 q 488 219 488 160 l 488 628 m 1406 708 l 1414 626 l 1146 117 l 1417 138 l 1403 0 l 844 0 l 836 82 l 1103 590 l 863 572 l 876 708 l 1406 708 z "},"ǆ":{"ha":1435,"x_min":39,"x_max":1417,"o":"m 39 0 m 760 163 q 803 17 760 72 q 744 -11 782 -1 q 674 -21 707 -21 q 506 63 546 -21 q 311 -31 444 -31 q 103 77 167 -31 q 39 357 39 185 q 135 640 39 543 q 417 736 232 736 q 488 732 456 736 l 488 972 l 760 1000 l 760 163 m 488 628 q 417 653 456 653 q 336 572 356 653 q 317 364 317 492 q 333 155 317 235 q 407 75 350 75 q 469 117 451 75 q 488 219 488 160 l 488 628 m 1406 708 l 1414 626 l 1146 117 l 1417 138 l 1403 0 l 844 0 l 836 82 l 1103 590 l 863 572 l 876 708 l 1406 708 m 1324 1053 l 1378 989 l 1182 799 l 1093 799 l 893 989 l 947 1053 l 1136 953 l 1324 1053 z "},"e":{"ha":749,"x_min":39,"x_max":728,"o":"m 658 238 q 688 206 678 228 q 697 160 697 185 q 656 54 697 97 q 549 -10 614 11 q 414 -31 485 -31 q 137 73 235 -31 q 39 360 39 176 q 142 641 39 546 q 436 736 246 736 q 643 686 558 736 q 728 535 728 636 q 638 363 728 410 q 389 317 547 317 q 318 321 343 317 q 358 185 324 233 q 469 138 392 138 q 581 163 529 138 q 658 238 632 189 m 317 383 q 448 417 406 383 q 490 535 490 451 q 473 619 490 585 q 417 653 456 653 q 317 383 321 653 z "},"é":{"ha":749,"x_min":39,"x_max":728,"o":"m 39 0 m 658 238 q 688 206 678 228 q 697 160 697 185 q 656 54 697 97 q 549 -10 614 11 q 414 -31 485 -31 q 137 73 235 -31 q 39 360 39 176 q 142 641 39 546 q 436 736 246 736 q 643 686 558 736 q 728 535 728 636 q 638 363 728 410 q 389 317 547 317 q 318 321 343 317 q 358 185 324 233 q 469 138 392 138 q 581 163 529 138 q 658 238 632 189 m 317 383 q 448 417 406 383 q 490 535 490 451 q 473 619 490 585 q 417 653 456 653 q 317 383 321 653 m 579 1071 q 632 1028 610 1057 q 654 968 654 999 q 615 898 654 921 q 500 853 576 875 l 304 797 l 274 863 l 579 1071 z "},"ĕ":{"ha":749,"x_min":39,"x_max":728,"o":"m 39 0 m 658 238 q 688 206 678 228 q 697 160 697 185 q 656 54 697 97 q 549 -10 614 11 q 414 -31 485 -31 q 137 73 235 -31 q 39 360 39 176 q 142 641 39 546 q 436 736 246 736 q 643 686 558 736 q 728 535 728 636 q 638 363 728 410 q 389 317 547 317 q 318 321 343 317 q 358 185 324 233 q 469 138 392 138 q 581 163 529 138 q 658 238 632 189 m 317 383 q 448 417 406 383 q 490 535 490 451 q 473 619 490 585 q 417 653 456 653 q 317 383 321 653 m 686 1035 q 617 876 686 936 q 417 815 549 815 q 217 876 285 815 q 149 1035 149 936 l 353 1035 l 351 981 q 365 912 351 936 q 417 888 378 888 q 470 913 457 888 q 483 985 483 939 l 482 1035 l 686 1035 z "},"ě":{"ha":749,"x_min":39,"x_max":728,"o":"m 39 0 m 658 238 q 688 206 678 228 q 697 160 697 185 q 656 54 697 97 q 549 -10 614 11 q 414 -31 485 -31 q 137 73 235 -31 q 39 360 39 176 q 142 641 39 546 q 436 736 246 736 q 643 686 558 736 q 728 535 728 636 q 638 363 728 410 q 389 317 547 317 q 318 321 343 317 q 358 185 324 233 q 469 138 392 138 q 581 163 529 138 q 658 238 632 189 m 317 383 q 448 417 406 383 q 490 535 490 451 q 473 619 490 585 q 417 653 456 653 q 317 383 321 653 m 604 1053 l 658 989 l 463 799 l 374 799 l 174 989 l 228 1053 l 417 953 l 604 1053 z "},"ê":{"ha":749,"x_min":39,"x_max":728,"o":"m 39 0 m 658 238 q 688 206 678 228 q 697 160 697 185 q 656 54 697 97 q 549 -10 614 11 q 414 -31 485 -31 q 137 73 235 -31 q 39 360 39 176 q 142 641 39 546 q 436 736 246 736 q 643 686 558 736 q 728 535 728 636 q 638 363 728 410 q 389 317 547 317 q 318 321 343 317 q 358 185 324 233 q 469 138 392 138 q 581 163 529 138 q 658 238 632 189 m 317 383 q 448 417 406 383 q 490 535 490 451 q 473 619 490 585 q 417 653 456 653 q 317 383 321 653 m 229 813 l 175 878 l 386 1038 l 446 1038 l 660 878 l 606 813 l 418 883 l 229 813 z "},"ë":{"ha":749,"x_min":39,"x_max":728,"o":"m 39 0 m 658 238 q 688 206 678 228 q 697 160 697 185 q 656 54 697 97 q 549 -10 614 11 q 414 -31 485 -31 q 137 73 235 -31 q 39 360 39 176 q 142 641 39 546 q 436 736 246 736 q 643 686 558 736 q 728 535 728 636 q 638 363 728 410 q 389 317 547 317 q 318 321 343 317 q 358 185 324 233 q 469 138 392 138 q 581 163 529 138 q 658 238 632 189 m 317 383 q 448 417 406 383 q 490 535 490 451 q 473 619 490 585 q 417 653 456 653 q 317 383 321 653 m 578 1042 q 685 1013 644 1042 q 725 931 725 983 q 683 849 725 878 q 572 819 640 819 q 465 848 506 819 q 424 928 424 876 q 467 1012 424 982 q 578 1042 511 1042 m 258 1042 q 365 1013 325 1042 q 406 931 406 983 q 363 849 406 878 q 253 819 321 819 q 145 848 186 819 q 104 928 104 876 q 148 1012 104 982 q 258 1042 192 1042 z "},"ė":{"ha":749,"x_min":39,"x_max":728,"o":"m 39 0 m 658 238 q 688 206 678 228 q 697 160 697 185 q 656 54 697 97 q 549 -10 614 11 q 414 -31 485 -31 q 137 73 235 -31 q 39 360 39 176 q 142 641 39 546 q 436 736 246 736 q 643 686 558 736 q 728 535 728 636 q 638 363 728 410 q 389 317 547 317 q 318 321 343 317 q 358 185 324 233 q 469 138 392 138 q 581 163 529 138 q 658 238 632 189 m 317 383 q 448 417 406 383 q 490 535 490 451 q 473 619 490 585 q 417 653 456 653 q 317 383 321 653 m 425 1042 q 532 1013 492 1042 q 572 931 572 983 q 530 849 572 878 q 419 819 488 819 q 312 848 353 819 q 271 928 271 876 q 315 1012 271 982 q 425 1042 358 1042 z "},"ẹ":{"ha":749,"x_min":39,"x_max":728,"o":"m 39 0 m 658 238 q 688 206 678 228 q 697 160 697 185 q 656 54 697 97 q 549 -10 614 11 q 414 -31 485 -31 q 137 73 235 -31 q 39 360 39 176 q 142 641 39 546 q 436 736 246 736 q 643 686 558 736 q 728 535 728 636 q 638 363 728 410 q 389 317 547 317 q 318 321 343 317 q 358 185 324 233 q 469 138 392 138 q 581 163 529 138 q 658 238 632 189 m 317 383 q 448 417 406 383 q 490 535 490 451 q 473 619 490 585 q 417 653 456 653 q 317 383 321 653 m 421 -57 q 528 -86 488 -57 q 568 -168 568 -115 q 526 -250 568 -221 q 415 -279 483 -279 q 308 -251 349 -279 q 267 -171 267 -222 q 310 -87 267 -117 q 421 -57 354 -57 z "},"è":{"ha":749,"x_min":39,"x_max":728,"o":"m 39 0 m 658 238 q 688 206 678 228 q 697 160 697 185 q 656 54 697 97 q 549 -10 614 11 q 414 -31 485 -31 q 137 73 235 -31 q 39 360 39 176 q 142 641 39 546 q 436 736 246 736 q 643 686 558 736 q 728 535 728 636 q 638 363 728 410 q 389 317 547 317 q 318 321 343 317 q 358 185 324 233 q 469 138 392 138 q 581 163 529 138 q 658 238 632 189 m 317 383 q 448 417 406 383 q 490 535 490 451 q 473 619 490 585 q 417 653 456 653 q 317 383 321 653 m 335 853 q 219 898 258 875 q 179 968 179 921 q 201 1028 179 999 q 254 1071 224 1057 l 560 863 l 529 797 l 335 853 z "},"ē":{"ha":749,"x_min":39,"x_max":728,"o":"m 39 0 m 658 238 q 688 206 678 228 q 697 160 697 185 q 656 54 697 97 q 549 -10 614 11 q 414 -31 485 -31 q 137 73 235 -31 q 39 360 39 176 q 142 641 39 546 q 436 736 246 736 q 643 686 558 736 q 728 535 728 636 q 638 363 728 410 q 389 317 547 317 q 318 321 343 317 q 358 185 324 233 q 469 138 392 138 q 581 163 529 138 q 658 238 632 189 m 317 383 q 448 417 406 383 q 490 535 490 451 q 473 619 490 585 q 417 653 456 653 q 317 383 321 653 m 618 990 q 631 936 631 969 q 609 883 631 903 q 551 863 588 863 l 215 863 q 203 917 203 883 q 224 970 203 950 q 282 990 246 990 l 618 990 z "},"ę":{"ha":749,"x_min":39,"x_max":728,"o":"m 594 10 q 510 -76 542 -29 q 478 -175 478 -122 q 496 -232 478 -217 q 556 -247 514 -247 q 600 -238 578 -247 q 632 -212 622 -229 q 658 -239 649 -225 q 668 -272 668 -253 q 619 -343 668 -319 q 515 -367 569 -367 q 368 -332 426 -367 q 310 -224 310 -297 q 432 -31 310 -114 l 414 -31 q 137 73 235 -31 q 39 360 39 176 q 142 641 39 546 q 436 736 246 736 q 643 686 558 736 q 728 535 728 636 q 638 363 728 410 q 389 317 547 317 q 318 321 343 317 q 358 185 324 233 q 469 138 392 138 q 581 163 529 138 q 658 238 632 189 q 688 206 678 228 q 697 160 697 185 q 594 10 697 63 m 317 383 q 448 417 406 383 q 490 535 490 451 q 473 619 490 585 q 417 653 456 653 q 317 383 321 653 z "},"ẽ":{"ha":749,"x_min":39,"x_max":728,"o":"m 39 0 m 658 238 q 688 206 678 228 q 697 160 697 185 q 656 54 697 97 q 549 -10 614 11 q 414 -31 485 -31 q 137 73 235 -31 q 39 360 39 176 q 142 641 39 546 q 436 736 246 736 q 643 686 558 736 q 728 535 728 636 q 638 363 728 410 q 389 317 547 317 q 318 321 343 317 q 358 185 324 233 q 469 138 392 138 q 581 163 529 138 q 658 238 632 189 m 317 383 q 448 417 406 383 q 490 535 490 451 q 473 619 490 585 q 417 653 456 653 q 317 383 321 653 m 661 1011 q 684 970 675 993 q 693 926 693 947 q 656 856 693 875 q 554 838 618 838 q 408 851 517 838 q 261 865 300 865 q 172 838 200 865 q 149 877 158 854 q 140 921 140 900 q 177 991 140 972 q 279 1010 214 1010 q 424 996 315 1010 q 572 982 532 982 q 661 1011 633 982 z "},"ə":{"ha":742,"x_min":14,"x_max":703,"o":"m 328 736 q 605 633 507 736 q 703 346 703 529 q 599 65 703 160 q 306 -31 496 -31 q 98 19 182 -31 q 14 171 14 69 q 104 342 14 296 q 353 389 194 389 q 424 385 399 389 q 384 520 418 472 q 272 568 350 568 q 161 542 213 568 q 83 468 110 517 q 54 499 64 478 q 44 546 44 521 q 86 651 44 608 q 192 715 128 694 q 328 736 257 736 m 325 53 q 425 322 421 53 q 294 288 336 322 q 251 171 251 254 q 269 87 251 121 q 325 53 286 53 z "},"f":{"ha":497,"x_min":1,"x_max":715,"o":"m 94 -21 l 94 646 l 1 646 l 1 708 l 94 708 l 99 776 q 444 1000 113 1000 q 635 973 554 1000 q 715 874 715 946 q 669 798 715 822 q 560 774 624 774 q 518 776 542 774 q 485 786 494 779 q 489 821 488 801 q 490 856 490 840 q 477 913 490 890 q 435 935 464 935 q 379 896 392 935 q 367 789 367 857 l 367 708 l 489 708 l 489 646 l 367 646 l 367 0 l 94 -21 z "},"g":{"ha":829,"x_min":39,"x_max":754,"o":"m 390 -199 q 461 -161 439 -199 q 489 -63 483 -124 q 494 107 494 -3 l 494 154 q 301 82 432 82 q 103 167 168 82 q 39 400 39 253 q 132 651 39 567 q 397 736 225 736 q 565 708 490 736 l 754 736 l 754 140 q 720 -100 754 -10 q 605 -234 686 -190 q 381 -278 524 -278 q 242 -260 311 -278 q 127 -203 174 -242 q 81 -106 81 -164 q 126 -19 81 -49 q 238 10 171 10 q 278 7 256 10 q 311 -3 301 4 q 306 -74 306 -47 q 390 -199 306 -199 m 482 633 q 411 653 453 653 q 333 589 350 653 q 317 417 317 525 q 331 252 317 317 q 401 188 346 188 q 464 231 446 188 q 482 338 482 275 l 482 633 z "},"ğ":{"ha":829,"x_min":39,"x_max":754,"o":"m 39 0 m 390 -199 q 461 -161 439 -199 q 489 -63 483 -124 q 494 107 494 -3 l 494 154 q 301 82 432 82 q 103 167 168 82 q 39 400 39 253 q 132 651 39 567 q 397 736 225 736 q 565 708 490 736 l 754 736 l 754 140 q 720 -100 754 -10 q 605 -234 686 -190 q 381 -278 524 -278 q 242 -260 311 -278 q 127 -203 174 -242 q 81 -106 81 -164 q 126 -19 81 -49 q 238 10 171 10 q 278 7 256 10 q 311 -3 301 4 q 306 -74 306 -47 q 390 -199 306 -199 m 482 633 q 411 653 453 653 q 333 589 350 653 q 317 417 317 525 q 331 252 317 317 q 401 188 346 188 q 464 231 446 188 q 482 338 482 275 l 482 633 m 681 1035 q 612 876 681 936 q 411 815 543 815 q 211 876 279 815 q 143 1035 143 936 l 347 1035 l 346 981 q 359 912 346 936 q 411 888 372 888 q 465 913 451 888 q 478 985 478 939 l 476 1035 l 681 1035 z "},"ĝ":{"ha":829,"x_min":39,"x_max":754,"o":"m 39 0 m 390 -199 q 461 -161 439 -199 q 489 -63 483 -124 q 494 107 494 -3 l 494 154 q 301 82 432 82 q 103 167 168 82 q 39 400 39 253 q 132 651 39 567 q 397 736 225 736 q 565 708 490 736 l 754 736 l 754 140 q 720 -100 754 -10 q 605 -234 686 -190 q 381 -278 524 -278 q 242 -260 311 -278 q 127 -203 174 -242 q 81 -106 81 -164 q 126 -19 81 -49 q 238 10 171 10 q 278 7 256 10 q 311 -3 301 4 q 306 -74 306 -47 q 390 -199 306 -199 m 482 633 q 411 653 453 653 q 333 589 350 653 q 317 417 317 525 q 331 252 317 317 q 401 188 346 188 q 464 231 446 188 q 482 338 482 275 l 482 633 m 224 813 l 169 878 l 381 1038 l 440 1038 l 654 878 l 600 813 l 413 883 l 224 813 z "},"ģ":{"ha":829,"x_min":39,"x_max":754,"o":"m 39 0 m 390 -199 q 461 -161 439 -199 q 489 -63 483 -124 q 494 107 494 -3 l 494 154 q 301 82 432 82 q 103 167 168 82 q 39 400 39 253 q 132 651 39 567 q 397 736 225 736 q 565 708 490 736 l 754 736 l 754 140 q 720 -100 754 -10 q 605 -234 686 -190 q 381 -278 524 -278 q 242 -260 311 -278 q 127 -203 174 -242 q 81 -106 81 -164 q 126 -19 81 -49 q 238 10 171 10 q 278 7 256 10 q 311 -3 301 4 q 306 -74 306 -47 q 390 -199 306 -199 m 482 633 q 411 653 453 653 q 333 589 350 653 q 317 417 317 525 q 331 252 317 317 q 401 188 346 188 q 464 231 446 188 q 482 338 482 275 l 482 633 m 419 788 q 320 815 351 788 q 289 900 289 842 q 315 986 289 946 q 384 1051 340 1026 q 481 1075 428 1075 q 536 1069 503 1075 q 479 924 479 997 q 511 808 479 860 q 472 794 499 800 q 419 788 444 788 z "},"ġ":{"ha":829,"x_min":39,"x_max":754,"o":"m 39 0 m 390 -199 q 461 -161 439 -199 q 489 -63 483 -124 q 494 107 494 -3 l 494 154 q 301 82 432 82 q 103 167 168 82 q 39 400 39 253 q 132 651 39 567 q 397 736 225 736 q 565 708 490 736 l 754 736 l 754 140 q 720 -100 754 -10 q 605 -234 686 -190 q 381 -278 524 -278 q 242 -260 311 -278 q 127 -203 174 -242 q 81 -106 81 -164 q 126 -19 81 -49 q 238 10 171 10 q 278 7 256 10 q 311 -3 301 4 q 306 -74 306 -47 q 390 -199 306 -199 m 482 633 q 411 653 453 653 q 333 589 350 653 q 317 417 317 525 q 331 252 317 317 q 401 188 346 188 q 464 231 446 188 q 482 338 482 275 l 482 633 m 419 1042 q 526 1013 486 1042 q 567 931 567 983 q 524 849 567 878 q 414 819 482 819 q 306 848 347 819 q 265 928 265 876 q 309 1012 265 982 q 419 1042 353 1042 z "},"h":{"ha":835,"x_min":75,"x_max":813,"o":"m 347 833 q 335 653 347 704 q 417 716 367 696 q 529 736 468 736 q 713 672 656 736 q 769 475 769 607 l 769 163 q 813 17 769 72 q 754 -11 792 -1 q 683 -21 717 -21 q 546 22 594 -21 q 497 153 497 65 l 497 472 q 485 589 497 547 q 428 631 474 631 q 372 603 390 631 q 351 540 354 576 q 347 444 347 503 l 347 0 l 75 0 l 75 972 l 347 1000 l 347 833 z "},"ħ":{"ha":835,"x_min":-49,"x_max":813,"o":"m 769 163 q 813 17 769 72 q 754 -11 792 -1 q 683 -21 717 -21 q 546 22 594 -21 q 497 153 497 65 l 497 472 q 485 589 497 547 q 428 631 474 631 q 372 603 390 631 q 351 540 354 576 q 347 444 347 503 l 347 0 l 75 0 l 75 779 l -43 779 q -49 821 -49 796 q -24 885 -49 864 q 46 907 1 907 l 75 907 l 75 972 l 347 1000 l 347 907 l 556 907 q 561 865 561 890 q 535 801 561 822 q 465 779 510 779 l 347 779 q 335 653 344 696 q 417 716 367 696 q 529 736 468 736 q 713 672 656 736 q 769 475 769 607 l 769 163 z "},"ĥ":{"ha":835,"x_min":-17,"x_max":813,"o":"m 0 0 m 347 833 q 335 653 347 704 q 417 716 367 696 q 529 736 468 736 q 713 672 656 736 q 769 475 769 607 l 769 163 q 813 17 769 72 q 754 -11 792 -1 q 683 -21 717 -21 q 546 22 594 -21 q 497 153 497 65 l 497 472 q 485 589 497 547 q 428 631 474 631 q 372 603 390 631 q 351 540 354 576 q 347 444 347 503 l 347 0 l 75 0 l 75 972 l 347 1000 l 347 833 m 38 1021 l -17 1086 l 194 1246 l 254 1246 l 468 1086 l 414 1021 l 226 1092 l 38 1021 z "},"ḥ":{"ha":835,"x_min":75,"x_max":813,"o":"m 75 0 m 347 833 q 335 653 347 704 q 417 716 367 696 q 529 736 468 736 q 713 672 656 736 q 769 475 769 607 l 769 163 q 813 17 769 72 q 754 -11 792 -1 q 683 -21 717 -21 q 546 22 594 -21 q 497 153 497 65 l 497 472 q 485 589 497 547 q 428 631 474 631 q 372 603 390 631 q 351 540 354 576 q 347 444 347 503 l 347 0 l 75 0 l 75 972 l 347 1000 l 347 833 m 426 -57 q 533 -86 493 -57 q 574 -168 574 -115 q 531 -250 574 -221 q 421 -279 489 -279 q 313 -251 354 -279 q 272 -171 272 -222 q 316 -87 272 -117 q 426 -57 360 -57 z "},"i":{"ha":411,"x_min":53,"x_max":381,"o":"m 207 1042 q 314 1013 274 1042 q 354 931 354 983 q 312 849 354 878 q 201 819 269 819 q 94 848 135 819 q 53 928 53 876 q 97 1012 53 982 q 207 1042 140 1042 m 338 163 q 381 17 338 72 q 322 -11 360 -1 q 251 -21 285 -21 q 113 22 161 -21 q 65 153 65 65 l 65 708 l 338 708 l 338 163 z "},"ı":{"ha":411,"x_min":65,"x_max":381,"o":"m 338 163 q 381 17 338 72 q 322 -11 360 -1 q 251 -21 285 -21 q 113 22 161 -21 q 65 153 65 65 l 65 708 l 338 708 l 338 163 z "},"í":{"ha":411,"x_min":58,"x_max":439,"o":"m 58 0 m 338 163 q 381 17 338 72 q 322 -11 360 -1 q 251 -21 285 -21 q 113 22 161 -21 q 65 153 65 65 l 65 708 l 338 708 l 338 163 m 364 1071 q 417 1028 394 1057 q 439 968 439 999 q 400 898 439 921 q 285 853 361 875 l 89 797 l 58 863 l 364 1071 z "},"ĭ":{"ha":411,"x_min":-67,"x_max":471,"o":"m 0 0 m 338 163 q 381 17 338 72 q 322 -11 360 -1 q 251 -21 285 -21 q 113 22 161 -21 q 65 153 65 65 l 65 708 l 338 708 l 338 163 m 471 1035 q 402 876 471 936 q 201 815 333 815 q 1 876 69 815 q -67 1035 -67 936 l 138 1035 l 136 981 q 149 912 136 936 q 201 888 163 888 q 255 913 242 888 q 268 985 268 939 l 267 1035 l 471 1035 z "},"î":{"ha":411,"x_min":-40,"x_max":444,"o":"m 0 0 m 338 163 q 381 17 338 72 q 322 -11 360 -1 q 251 -21 285 -21 q 113 22 161 -21 q 65 153 65 65 l 65 708 l 338 708 l 338 163 m 14 813 l -40 878 l 171 1038 l 231 1038 l 444 878 l 390 813 l 203 883 l 14 813 z "},"ï":{"ha":411,"x_min":-111,"x_max":510,"o":"m 0 0 m 338 163 q 381 17 338 72 q 322 -11 360 -1 q 251 -21 285 -21 q 113 22 161 -21 q 65 153 65 65 l 65 708 l 338 708 l 338 163 m 363 1042 q 469 1013 429 1042 q 510 931 510 983 q 467 849 510 878 q 357 819 425 819 q 249 848 290 819 q 208 928 208 876 q 252 1012 208 982 q 363 1042 296 1042 m 43 1042 q 150 1013 110 1042 q 190 931 190 983 q 148 849 190 878 q 38 819 106 819 q -70 848 -29 819 q -111 928 -111 876 q -67 1012 -111 982 q 43 1042 -24 1042 z "},"ị":{"ha":411,"x_min":53,"x_max":385,"o":"m 53 0 m 207 1042 q 314 1013 274 1042 q 354 931 354 983 q 312 849 354 878 q 201 819 269 819 q 94 848 135 819 q 53 928 53 876 q 97 1012 53 982 q 207 1042 140 1042 m 338 163 q 381 17 338 72 q 322 -11 360 -1 q 251 -21 285 -21 q 113 22 161 -21 q 65 153 65 65 l 65 708 l 338 708 l 338 163 m 238 -57 q 344 -86 304 -57 q 385 -168 385 -115 q 342 -250 385 -221 q 232 -279 300 -279 q 124 -251 165 -279 q 83 -171 83 -222 q 127 -87 83 -117 q 238 -57 171 -57 z "},"ì":{"ha":411,"x_min":-36,"x_max":381,"o":"m 0 0 m 338 163 q 381 17 338 72 q 322 -11 360 -1 q 251 -21 285 -21 q 113 22 161 -21 q 65 153 65 65 l 65 708 l 338 708 l 338 163 m 119 853 q 3 898 43 875 q -36 968 -36 921 q -14 1028 -36 999 q 39 1071 8 1057 l 344 863 l 314 797 l 119 853 z "},"ĳ":{"ha":832,"x_min":53,"x_max":775,"o":"m 53 0 m 207 1042 q 314 1013 274 1042 q 354 931 354 983 q 312 849 354 878 q 201 819 269 819 q 94 848 135 819 q 53 928 53 876 q 97 1012 53 982 q 207 1042 140 1042 m 338 163 q 381 17 338 72 q 322 -11 360 -1 q 251 -21 285 -21 q 113 22 161 -21 q 65 153 65 65 l 65 708 l 338 708 l 338 163 m 628 1042 q 735 1013 694 1042 q 775 931 775 983 q 733 849 775 878 q 622 819 690 819 q 515 848 556 819 q 474 928 474 876 q 517 1012 474 982 q 628 1042 561 1042 m 758 64 q 708 -185 758 -92 q 532 -278 658 -278 q 434 -262 479 -278 q 372 -208 389 -246 q 449 -168 424 -201 q 480 -89 474 -135 q 486 29 486 -43 l 486 708 l 758 708 l 758 64 z "},"ī":{"ha":411,"x_min":-12,"x_max":415,"o":"m 0 0 m 338 163 q 381 17 338 72 q 322 -11 360 -1 q 251 -21 285 -21 q 113 22 161 -21 q 65 153 65 65 l 65 708 l 338 708 l 338 163 m 403 990 q 415 936 415 969 q 394 883 415 903 q 336 863 372 863 l 0 863 q -12 917 -12 883 q 9 970 -12 950 q 67 990 31 990 l 403 990 z "},"į":{"ha":411,"x_min":56,"x_max":439,"o":"m 204 819 q 97 848 138 819 q 56 928 56 876 q 99 1012 56 982 q 210 1042 143 1042 q 317 1013 276 1042 q 357 931 357 983 q 315 849 357 878 q 204 819 272 819 m 403 -212 q 429 -239 419 -225 q 439 -272 439 -253 q 389 -343 439 -319 q 286 -367 339 -367 q 139 -332 197 -367 q 81 -224 81 -297 q 219 -19 81 -107 q 65 153 65 -4 l 65 708 l 338 708 l 338 163 q 381 17 338 72 q 353 0 367 6 q 249 -175 249 -82 q 267 -232 249 -217 q 326 -247 285 -247 q 371 -238 349 -247 q 403 -212 393 -229 z "},"ĩ":{"ha":411,"x_min":-75,"x_max":478,"o":"m 0 0 m 338 163 q 381 17 338 72 q 322 -11 360 -1 q 251 -21 285 -21 q 113 22 161 -21 q 65 153 65 65 l 65 708 l 338 708 l 338 163 m 446 1011 q 469 970 460 993 q 478 926 478 947 q 440 856 478 875 q 339 838 403 838 q 193 851 301 838 q 46 865 85 865 q -43 838 -15 865 q -66 877 -57 854 q -75 921 -75 900 q -38 991 -75 972 q 64 1010 -1 1010 q 208 996 100 1010 q 357 982 317 982 q 446 1011 418 982 z "},"j":{"ha":421,"x_min":-39,"x_max":364,"o":"m 217 1042 q 324 1013 283 1042 q 364 931 364 983 q 322 849 364 878 q 211 819 279 819 q 103 848 144 819 q 63 928 63 876 q 106 1012 63 982 q 217 1042 150 1042 m 347 64 q 297 -185 347 -92 q 121 -278 247 -278 q 23 -262 68 -278 q -39 -208 -22 -246 q 38 -168 13 -201 q 69 -89 63 -135 q 75 29 75 -43 l 75 708 l 347 708 l 347 64 z "},"ȷ":{"ha":421,"x_min":-39,"x_max":347,"o":"m 347 64 q 297 -185 347 -92 q 121 -278 247 -278 q 22 -262 67 -278 q -39 -208 -22 -246 q 38 -168 13 -201 q 69 -89 63 -135 q 75 29 75 -43 l 75 708 l 347 708 l 347 64 z "},"ĵ":{"ha":421,"x_min":-39,"x_max":456,"o":"m 0 0 m 347 64 q 297 -185 347 -92 q 121 -278 247 -278 q 22 -262 67 -278 q -39 -208 -22 -246 q 38 -168 13 -201 q 69 -89 63 -135 q 75 29 75 -43 l 75 708 l 347 708 l 347 64 m 25 813 l -29 878 l 182 1038 l 242 1038 l 456 878 l 401 813 l 214 883 l 25 813 z "},"k":{"ha":794,"x_min":75,"x_max":804,"o":"m 75 0 l 75 972 l 347 1000 l 347 0 l 75 0 m 563 708 l 794 708 l 601 431 l 804 0 l 510 0 l 367 390 l 563 708 z "},"ķ":{"ha":794,"x_min":75,"x_max":804,"o":"m 75 0 m 75 0 l 75 972 l 347 1000 l 347 0 l 75 0 m 563 708 l 794 708 l 601 431 l 804 0 l 510 0 l 367 390 l 563 708 m 399 -71 q 498 -98 467 -71 q 529 -183 529 -125 q 503 -269 529 -229 q 434 -334 478 -310 q 338 -358 390 -358 q 282 -354 332 -358 q 339 -208 339 -282 q 307 -92 339 -143 q 347 -77 319 -83 q 399 -71 374 -71 z "},"ĸ":{"ha":794,"x_min":75,"x_max":804,"o":"m 75 0 l 75 708 l 347 736 l 347 0 l 75 0 m 563 708 l 794 708 l 601 431 l 804 0 l 510 0 l 367 390 l 563 708 z "},"l":{"ha":411,"x_min":65,"x_max":381,"o":"m 338 1000 l 338 163 q 381 17 338 72 q 322 -11 360 -1 q 251 -21 285 -21 q 113 22 161 -21 q 65 153 65 65 l 65 972 l 338 1000 z "},"ĺ":{"ha":411,"x_min":53,"x_max":449,"o":"m 396 1199 q 433 1151 418 1179 q 449 1096 449 1124 q 423 1037 449 1057 q 363 1010 397 1017 q 272 1000 328 1004 l 69 986 l 53 1057 l 396 1199 m 338 972 l 338 163 q 381 17 338 72 q 322 -11 360 -1 q 251 -21 285 -21 q 113 22 161 -21 q 65 153 65 65 l 65 944 l 338 972 z "},"ľ":{"ha":411,"x_min":65,"x_max":579,"o":"m 65 0 m 338 1000 l 338 163 q 381 17 338 72 q 322 -11 360 -1 q 251 -21 285 -21 q 113 22 161 -21 q 65 153 65 65 l 65 972 l 338 1000 m 381 979 q 420 994 393 989 q 474 1000 447 1000 q 550 970 521 1000 q 579 882 579 940 q 561 812 579 847 q 507 753 543 776 q 421 731 471 731 q 372 739 396 731 q 403 794 394 765 q 413 864 413 824 q 381 979 413 928 z "},"ļ":{"ha":411,"x_min":65,"x_max":381,"o":"m 65 0 m 338 1000 l 338 163 q 381 17 338 72 q 322 -11 360 -1 q 251 -21 285 -21 q 113 22 161 -21 q 65 153 65 65 l 65 972 l 338 1000 m 206 -71 q 305 -98 274 -71 q 336 -183 336 -125 q 310 -269 336 -229 q 241 -334 285 -310 q 144 -358 197 -358 q 89 -354 139 -358 q 146 -208 146 -282 q 114 -92 146 -143 q 153 -77 126 -83 q 206 -71 181 -71 z "},"ŀ":{"ha":503,"x_min":65,"x_max":544,"o":"m 338 1000 l 338 163 q 381 17 338 72 q 322 -11 360 -1 q 251 -21 285 -21 q 113 22 161 -21 q 65 153 65 65 l 65 972 l 338 1000 m 456 560 q 521 534 497 560 q 544 464 544 508 q 519 393 544 419 q 450 367 493 367 q 382 392 407 367 q 357 460 357 418 q 385 533 357 506 q 456 560 413 560 z "},"ǉ":{"ha":411,"x_min":-47,"x_max":381,"o":"m 203 1028 q 95 1056 136 1028 q 54 1136 54 1085 q 98 1220 54 1190 q 208 1250 142 1250 q 315 1221 275 1250 q 356 1139 356 1192 q 313 1057 356 1086 q 203 1028 271 1028 m 381 17 q 323 -11 360 -1 q 253 -21 286 -21 q 113 -69 200 -69 q 15 -53 60 -69 q -47 0 -31 -37 q 38 51 14 8 q 65 168 61 94 l 65 972 l 338 1000 l 338 917 l 339 917 l 339 272 q 338 219 339 236 l 338 163 q 381 17 338 72 z "},"ł":{"ha":593,"x_min":10,"x_max":583,"o":"m 557 628 q 583 554 583 593 q 567 507 583 525 q 517 476 550 489 l 418 440 l 418 163 q 461 17 418 72 q 403 -11 440 -1 q 332 -21 365 -21 q 194 22 242 -21 q 146 153 146 65 l 146 340 l 36 300 q 16 338 22 318 q 10 374 10 358 q 26 421 10 403 q 76 451 43 439 l 146 476 l 146 972 l 418 1000 l 418 576 l 557 628 z "},"m":{"ha":1236,"x_min":65,"x_max":1214,"o":"m 65 708 l 285 725 l 296 600 q 381 704 324 672 q 522 736 438 736 q 732 626 678 736 q 940 736 789 736 q 1116 670 1061 736 q 1171 475 1171 604 l 1171 163 q 1214 17 1171 72 q 1156 -11 1193 -1 q 1086 -21 1119 -21 q 947 22 996 -21 q 899 153 899 65 l 899 472 q 888 589 899 547 q 835 631 876 631 q 773 580 786 631 q 760 444 760 529 l 760 0 l 488 0 l 488 472 q 476 589 488 547 q 418 631 464 631 q 363 603 381 631 q 341 540 344 576 q 338 444 338 503 l 338 0 l 65 0 l 65 708 z "},"n":{"ha":825,"x_min":65,"x_max":803,"o":"m 65 708 l 285 725 l 296 600 q 381 704 324 672 q 522 736 438 736 q 703 671 647 736 q 760 475 760 606 l 760 163 q 803 17 760 72 q 744 -11 782 -1 q 674 -21 707 -21 q 536 22 585 -21 q 488 153 488 65 l 488 472 q 476 589 488 547 q 418 631 464 631 q 363 603 381 631 q 341 540 344 576 q 338 444 338 503 l 338 0 l 65 0 l 65 708 z "},"ń":{"ha":825,"x_min":65,"x_max":803,"o":"m 65 0 m 65 708 l 285 725 l 296 600 q 381 704 324 672 q 522 736 438 736 q 703 671 647 736 q 760 475 760 606 l 760 163 q 803 17 760 72 q 744 -11 782 -1 q 674 -21 707 -21 q 536 22 585 -21 q 488 153 488 65 l 488 472 q 476 589 488 547 q 418 631 464 631 q 363 603 381 631 q 341 540 344 576 q 338 444 338 503 l 338 0 l 65 0 l 65 708 m 600 1071 q 653 1028 631 1057 q 675 968 675 999 q 636 898 675 921 q 521 853 597 875 l 325 797 l 294 863 l 600 1071 z "},"ŉ":{"ha":825,"x_min":-119,"x_max":803,"o":"m 0 0 m 65 708 l 285 725 l 296 600 q 381 704 324 672 q 522 736 438 736 q 703 671 647 736 q 760 475 760 606 l 760 163 q 803 17 760 72 q 744 -11 782 -1 q 674 -21 707 -21 q 536 22 585 -21 q 488 153 488 65 l 488 472 q 476 589 488 547 q 418 631 464 631 q 363 603 381 631 q 341 540 344 576 q 338 444 338 503 l 338 0 l 65 0 l 65 708 m -3 1015 q 97 985 67 1015 q 128 885 128 954 q 102 785 128 832 q 33 709 76 738 q -64 681 -11 681 q -119 688 -92 681 q -62 857 -62 771 q -94 992 -62 929 q -55 1008 -82 1001 q -3 1015 -28 1015 z "},"ň":{"ha":825,"x_min":65,"x_max":803,"o":"m 65 0 m 65 708 l 285 725 l 296 600 q 381 704 324 672 q 522 736 438 736 q 703 671 647 736 q 760 475 760 606 l 760 163 q 803 17 760 72 q 744 -11 782 -1 q 674 -21 707 -21 q 536 22 585 -21 q 488 153 488 65 l 488 472 q 476 589 488 547 q 418 631 464 631 q 363 603 381 631 q 341 540 344 576 q 338 444 338 503 l 338 0 l 65 0 l 65 708 m 625 1053 l 679 989 l 483 799 l 394 799 l 194 989 l 249 1053 l 438 953 l 625 1053 z "},"ņ":{"ha":825,"x_min":65,"x_max":803,"o":"m 65 0 m 65 708 l 285 725 l 296 600 q 381 704 324 672 q 522 736 438 736 q 703 671 647 736 q 760 475 760 606 l 760 163 q 803 17 760 72 q 744 -11 782 -1 q 674 -21 707 -21 q 536 22 585 -21 q 488 153 488 65 l 488 472 q 476 589 488 547 q 418 631 464 631 q 363 603 381 631 q 341 540 344 576 q 338 444 338 503 l 338 0 l 65 0 l 65 708 m 411 -71 q 510 -98 479 -71 q 542 -183 542 -125 q 516 -269 542 -229 q 447 -334 490 -310 q 350 -358 403 -358 q 294 -354 344 -358 q 351 -208 351 -282 q 319 -92 351 -143 q 359 -77 332 -83 q 411 -71 386 -71 z "},"ṅ":{"ha":825,"x_min":65,"x_max":803,"o":"m 65 0 m 65 708 l 285 725 l 296 600 q 381 704 324 672 q 522 736 438 736 q 703 671 647 736 q 760 475 760 606 l 760 163 q 803 17 760 72 q 744 -11 782 -1 q 674 -21 707 -21 q 536 22 585 -21 q 488 153 488 65 l 488 472 q 476 589 488 547 q 418 631 464 631 q 363 603 381 631 q 341 540 344 576 q 338 444 338 503 l 338 0 l 65 0 l 65 708 m 446 1042 q 553 1013 513 1042 q 593 931 593 983 q 551 849 593 878 q 440 819 508 819 q 333 848 374 819 q 292 928 292 876 q 335 1012 292 982 q 446 1042 379 1042 z "},"ŋ":{"ha":817,"x_min":65,"x_max":760,"o":"m 488 472 q 476 589 488 547 q 418 631 464 631 q 363 603 381 631 q 341 540 344 576 q 338 444 338 503 l 338 0 l 65 0 l 65 708 l 285 725 l 296 600 q 381 704 324 672 q 522 736 438 736 q 703 671 647 736 q 760 475 760 606 l 760 64 q 710 -185 760 -93 q 533 -278 660 -278 q 436 -262 481 -278 q 374 -208 392 -246 q 450 -168 425 -201 q 481 -89 475 -135 q 488 29 488 -43 l 488 472 z "},"ǌ":{"ha":825,"x_min":65,"x_max":803,"o":"m 440 819 q 333 848 374 819 q 292 928 292 876 q 335 1012 292 982 q 446 1042 379 1042 q 553 1013 513 1042 q 593 931 593 983 q 551 849 593 878 q 440 819 508 819 m 803 17 q 744 -11 782 -1 q 674 -21 707 -21 q 574 -3 614 -21 q 350 -278 556 -278 q 252 -262 297 -278 q 190 -208 207 -246 q 281 -147 258 -200 q 304 0 303 -93 l 65 0 l 65 708 l 285 725 l 296 600 l 304 619 l 304 708 l 389 708 q 522 736 443 736 q 703 671 647 736 q 760 475 760 606 l 760 163 q 803 17 760 72 z "},"ñ":{"ha":825,"x_min":65,"x_max":803,"o":"m 65 0 m 65 708 l 285 725 l 296 600 q 381 704 324 672 q 522 736 438 736 q 703 671 647 736 q 760 475 760 606 l 760 163 q 803 17 760 72 q 744 -11 782 -1 q 674 -21 707 -21 q 536 22 585 -21 q 488 153 488 65 l 488 472 q 476 589 488 547 q 418 631 464 631 q 363 603 381 631 q 341 540 344 576 q 338 444 338 503 l 338 0 l 65 0 l 65 708 m 682 1011 q 705 970 696 993 q 714 926 714 947 q 676 856 714 875 q 575 838 639 838 q 429 851 538 838 q 282 865 321 865 q 193 838 221 865 q 170 877 179 854 q 161 921 161 900 q 198 991 161 972 q 300 1010 235 1010 q 444 996 336 1010 q 593 982 553 982 q 682 1011 654 982 z "},"o":{"ha":811,"x_min":39,"x_max":772,"o":"m 406 736 q 678 640 585 736 q 772 364 772 543 q 729 157 772 246 q 603 19 686 68 q 406 -31 521 -31 q 210 17 293 -31 q 83 150 128 64 q 39 350 39 236 q 134 634 39 532 q 406 736 229 736 m 406 53 q 478 138 463 53 q 494 357 494 222 q 478 572 494 490 q 406 653 463 653 q 333 572 349 653 q 317 357 317 490 q 333 138 317 222 q 406 53 349 53 z "},"ó":{"ha":811,"x_min":39,"x_max":772,"o":"m 39 0 m 406 736 q 678 640 585 736 q 772 364 772 543 q 729 157 772 246 q 603 19 686 68 q 406 -31 521 -31 q 210 17 293 -31 q 83 150 128 64 q 39 350 39 236 q 134 634 39 532 q 406 736 229 736 m 406 53 q 478 138 463 53 q 494 357 494 222 q 478 572 494 490 q 406 653 463 653 q 333 572 349 653 q 317 357 317 490 q 333 138 317 222 q 406 53 349 53 m 568 1071 q 621 1028 599 1057 q 643 968 643 999 q 604 898 643 921 q 489 853 565 875 l 293 797 l 263 863 l 568 1071 z "},"ŏ":{"ha":811,"x_min":39,"x_max":772,"o":"m 39 0 m 406 736 q 678 640 585 736 q 772 364 772 543 q 729 157 772 246 q 603 19 686 68 q 406 -31 521 -31 q 210 17 293 -31 q 83 150 128 64 q 39 350 39 236 q 134 634 39 532 q 406 736 229 736 m 406 53 q 478 138 463 53 q 494 357 494 222 q 478 572 494 490 q 406 653 463 653 q 333 572 349 653 q 317 357 317 490 q 333 138 317 222 q 406 53 349 53 m 675 1035 q 606 876 675 936 q 406 815 538 815 q 206 876 274 815 q 138 1035 138 936 l 342 1035 l 340 981 q 353 912 340 936 q 406 888 367 888 q 459 913 446 888 q 472 985 472 939 l 471 1035 l 675 1035 z "},"ô":{"ha":811,"x_min":39,"x_max":772,"o":"m 39 0 m 406 736 q 678 640 585 736 q 772 364 772 543 q 729 157 772 246 q 603 19 686 68 q 406 -31 521 -31 q 210 17 293 -31 q 83 150 128 64 q 39 350 39 236 q 134 634 39 532 q 406 736 229 736 m 406 53 q 478 138 463 53 q 494 357 494 222 q 478 572 494 490 q 406 653 463 653 q 333 572 349 653 q 317 357 317 490 q 333 138 317 222 q 406 53 349 53 m 218 813 l 164 878 l 375 1038 l 435 1038 l 649 878 l 594 813 l 407 883 l 218 813 z "},"ö":{"ha":811,"x_min":39,"x_max":772,"o":"m 39 0 m 406 736 q 678 640 585 736 q 772 364 772 543 q 729 157 772 246 q 603 19 686 68 q 406 -31 521 -31 q 210 17 293 -31 q 83 150 128 64 q 39 350 39 236 q 134 634 39 532 q 406 736 229 736 m 406 53 q 478 138 463 53 q 494 357 494 222 q 478 572 494 490 q 406 653 463 653 q 333 572 349 653 q 317 357 317 490 q 333 138 317 222 q 406 53 349 53 m 567 1042 q 674 1013 633 1042 q 714 931 714 983 q 672 849 714 878 q 561 819 629 819 q 453 848 494 819 q 413 928 413 876 q 456 1012 413 982 q 567 1042 500 1042 m 247 1042 q 354 1013 314 1042 q 394 931 394 983 q 352 849 394 878 q 242 819 310 819 q 134 848 175 819 q 93 928 93 876 q 137 1012 93 982 q 247 1042 181 1042 z "},"ọ":{"ha":811,"x_min":39,"x_max":772,"o":"m 39 0 m 406 736 q 678 640 585 736 q 772 364 772 543 q 729 157 772 246 q 603 19 686 68 q 406 -31 521 -31 q 210 17 293 -31 q 83 150 128 64 q 39 350 39 236 q 134 634 39 532 q 406 736 229 736 m 406 53 q 478 138 463 53 q 494 357 494 222 q 478 572 494 490 q 406 653 463 653 q 333 572 349 653 q 317 357 317 490 q 333 138 317 222 q 406 53 349 53 m 413 -57 q 519 -86 479 -57 q 560 -168 560 -115 q 517 -250 560 -221 q 407 -279 475 -279 q 299 -251 340 -279 q 258 -171 258 -222 q 302 -87 258 -117 q 413 -57 346 -57 z "},"ò":{"ha":811,"x_min":39,"x_max":772,"o":"m 39 0 m 406 736 q 678 640 585 736 q 772 364 772 543 q 729 157 772 246 q 603 19 686 68 q 406 -31 521 -31 q 210 17 293 -31 q 83 150 128 64 q 39 350 39 236 q 134 634 39 532 q 406 736 229 736 m 406 53 q 478 138 463 53 q 494 357 494 222 q 478 572 494 490 q 406 653 463 653 q 333 572 349 653 q 317 357 317 490 q 333 138 317 222 q 406 53 349 53 m 324 853 q 208 898 247 875 q 168 968 168 921 q 190 1028 168 999 q 243 1071 213 1057 l 549 863 l 518 797 l 324 853 z "},"ő":{"ha":811,"x_min":39,"x_max":838,"o":"m 39 0 m 406 736 q 678 640 585 736 q 772 364 772 543 q 729 157 772 246 q 603 19 686 68 q 406 -31 521 -31 q 210 17 293 -31 q 83 150 128 64 q 39 350 39 236 q 134 634 39 532 q 406 736 229 736 m 406 53 q 478 138 463 53 q 494 357 494 222 q 478 572 494 490 q 406 653 463 653 q 333 572 349 653 q 317 357 317 490 q 333 138 317 222 q 406 53 349 53 m 432 1089 q 497 1049 468 1079 q 525 985 525 1019 q 491 900 525 935 q 403 844 457 865 l 222 772 l 181 831 l 432 1089 m 744 1089 q 809 1049 781 1079 q 838 985 838 1019 q 803 901 838 936 q 717 844 769 865 l 536 772 l 493 831 l 744 1089 z "},"ō":{"ha":811,"x_min":39,"x_max":772,"o":"m 39 0 m 406 736 q 678 640 585 736 q 772 364 772 543 q 729 157 772 246 q 603 19 686 68 q 406 -31 521 -31 q 210 17 293 -31 q 83 150 128 64 q 39 350 39 236 q 134 634 39 532 q 406 736 229 736 m 406 53 q 478 138 463 53 q 494 357 494 222 q 478 572 494 490 q 406 653 463 653 q 333 572 349 653 q 317 357 317 490 q 333 138 317 222 q 406 53 349 53 m 607 990 q 619 936 619 969 q 598 883 619 903 q 540 863 576 863 l 204 863 q 192 917 192 883 q 213 970 192 950 q 271 990 235 990 l 607 990 z "},"ǫ":{"ha":811,"x_min":39,"x_max":772,"o":"m 557 -4 q 439 -189 439 -89 q 457 -246 439 -231 q 517 -261 475 -261 q 561 -252 539 -261 q 593 -226 583 -243 q 619 -253 610 -239 q 629 -286 629 -267 q 580 -357 629 -333 q 476 -381 531 -381 q 329 -346 388 -381 q 271 -237 271 -311 q 414 -31 271 -118 l 406 -31 q 210 17 293 -31 q 83 150 128 64 q 39 350 39 236 q 134 634 39 532 q 406 736 229 736 q 678 640 585 736 q 772 364 772 543 q 717 133 772 229 q 557 -4 661 38 m 317 357 q 333 138 317 222 q 406 53 349 53 q 478 138 463 53 q 494 357 494 222 q 478 572 494 490 q 406 653 463 653 q 333 572 349 653 q 317 357 317 490 z "},"ø":{"ha":811,"x_min":39,"x_max":772,"o":"m 658 658 q 772 364 772 564 q 729 157 772 246 q 603 19 686 68 q 406 -31 521 -31 q 228 7 310 -31 l 171 -79 q 105 -63 133 -79 q 76 -18 76 -47 q 99 38 76 6 l 129 83 q 62 201 85 132 q 39 350 39 269 q 134 634 39 532 q 406 736 229 736 q 547 717 482 736 l 624 833 q 690 818 661 833 q 719 772 719 803 q 696 717 719 747 l 658 658 m 406 653 q 333 574 350 653 q 317 368 317 494 l 469 599 q 406 653 447 653 m 406 53 q 478 138 463 53 q 494 357 494 222 l 494 411 l 329 160 q 406 53 349 53 z "},"ǿ":{"ha":811,"x_min":39,"x_max":772,"o":"m 39 0 m 658 658 q 772 364 772 564 q 729 157 772 246 q 603 19 686 68 q 406 -31 521 -31 q 228 7 310 -31 l 171 -79 q 105 -63 133 -79 q 76 -18 76 -47 q 99 38 76 6 l 129 83 q 62 201 85 132 q 39 350 39 269 q 134 634 39 532 q 406 736 229 736 q 547 717 482 736 l 624 833 q 690 818 661 833 q 719 772 719 803 q 696 717 719 747 l 658 658 m 406 653 q 333 574 350 653 q 317 368 317 494 l 469 599 q 406 653 447 653 m 406 53 q 478 138 463 53 q 494 357 494 222 l 494 411 l 329 160 q 406 53 349 53 m 568 1071 q 621 1028 599 1057 q 643 968 643 999 q 604 898 643 921 q 489 853 565 875 l 293 797 l 263 863 l 568 1071 z "},"õ":{"ha":811,"x_min":39,"x_max":772,"o":"m 39 0 m 406 736 q 678 640 585 736 q 772 364 772 543 q 729 157 772 246 q 603 19 686 68 q 406 -31 521 -31 q 210 17 293 -31 q 83 150 128 64 q 39 350 39 236 q 134 634 39 532 q 406 736 229 736 m 406 53 q 478 138 463 53 q 494 357 494 222 q 478 572 494 490 q 406 653 463 653 q 333 572 349 653 q 317 357 317 490 q 333 138 317 222 q 406 53 349 53 m 650 1011 q 673 970 664 993 q 682 926 682 947 q 644 856 682 875 q 543 838 607 838 q 397 851 506 838 q 250 865 289 865 q 161 838 189 865 q 138 877 147 854 q 129 921 129 900 q 166 991 129 972 q 268 1010 203 1010 q 413 996 304 1010 q 561 982 521 982 q 650 1011 622 982 z "},"œ":{"ha":1204,"x_min":39,"x_max":1183,"o":"m 1114 238 q 1143 206 1133 228 q 1153 160 1153 185 q 1111 54 1153 97 q 1005 -10 1069 11 q 869 -31 940 -31 q 632 43 735 -31 q 406 -31 532 -31 q 210 17 293 -31 q 83 150 128 64 q 39 350 39 236 q 134 634 39 532 q 406 736 229 736 q 639 667 542 736 q 759 719 693 701 q 892 736 825 736 q 1099 686 1015 736 q 1183 535 1183 636 q 1093 363 1183 410 q 844 317 1003 317 q 774 321 799 317 q 813 185 779 233 q 925 138 847 138 q 1036 163 985 138 q 1114 238 1088 189 m 494 378 q 476 577 493 501 q 406 653 460 653 q 333 572 349 653 q 317 357 317 490 q 333 138 317 222 q 406 53 349 53 q 478 138 463 53 q 494 357 494 222 l 494 378 m 772 383 q 903 417 861 383 q 946 535 946 451 q 928 619 946 585 q 872 653 911 653 q 772 383 776 653 z "},"p":{"ha":835,"x_min":75,"x_max":796,"o":"m 533 736 q 735 634 674 736 q 796 364 796 532 q 696 72 796 174 q 408 -31 596 -31 q 347 -26 376 -31 l 347 -250 l 75 -268 l 75 708 l 294 725 l 306 600 q 391 704 333 672 q 533 736 449 736 m 428 631 q 372 603 390 631 q 351 538 354 575 q 347 443 347 501 l 347 78 q 418 53 376 53 q 500 136 482 53 q 518 357 518 219 q 501 557 518 483 q 428 631 485 631 z "},"þ":{"ha":835,"x_min":75,"x_max":796,"o":"m 347 833 q 335 653 347 704 q 533 736 394 736 q 735 634 674 736 q 796 364 796 532 q 696 72 796 174 q 408 -31 596 -31 q 347 -26 376 -31 l 347 -250 l 75 -268 l 75 972 l 347 1000 l 347 833 m 428 631 q 372 603 390 631 q 351 538 354 575 q 347 443 347 501 l 347 78 q 418 53 376 53 q 500 136 482 53 q 518 357 518 219 q 501 557 518 483 q 428 631 485 631 z "},"q":{"ha":825,"x_min":39,"x_max":760,"o":"m 488 -128 q 500 54 488 3 q 307 -31 438 -31 q 101 71 164 -31 q 39 342 39 172 q 132 631 39 526 q 403 736 225 736 q 571 708 496 736 l 760 736 l 760 -250 l 488 -278 l 488 -128 m 488 628 q 417 653 456 653 q 335 569 353 653 q 317 349 317 486 q 333 148 317 221 q 407 75 349 75 q 463 103 444 75 q 484 169 481 132 q 488 265 488 206 l 488 628 z "},"r":{"ha":678,"x_min":65,"x_max":688,"o":"m 397 617 q 347 573 357 617 q 338 444 338 529 l 338 0 l 65 0 l 65 708 l 285 725 l 296 600 q 372 701 319 665 q 494 736 424 736 q 635 687 583 736 q 688 550 688 638 q 647 435 688 476 q 531 394 606 394 q 488 398 513 394 q 454 408 464 401 q 463 490 463 444 q 397 617 463 617 z "},"ŕ":{"ha":678,"x_min":64,"x_max":688,"o":"m 64 0 m 397 617 q 347 573 357 617 q 338 444 338 529 l 338 0 l 65 0 l 65 708 l 285 725 l 296 600 q 372 701 319 665 q 494 736 424 736 q 635 687 583 736 q 688 550 688 638 q 647 435 688 476 q 531 394 606 394 q 488 398 513 394 q 454 408 464 401 q 463 490 463 444 q 397 617 463 617 m 369 1071 q 422 1028 400 1057 q 444 968 444 999 q 406 898 444 921 q 290 853 367 875 l 94 797 l 64 863 l 369 1071 z "},"ř":{"ha":678,"x_min":-36,"x_max":688,"o":"m 0 0 m 397 617 q 347 573 357 617 q 338 444 338 529 l 338 0 l 65 0 l 65 708 l 285 725 l 296 600 q 372 701 319 665 q 494 736 424 736 q 635 687 583 736 q 688 550 688 638 q 647 435 688 476 q 531 394 606 394 q 488 398 513 394 q 454 408 464 401 q 463 490 463 444 q 397 617 463 617 m 394 1053 l 449 989 l 253 799 l 164 799 l -36 989 l 18 1053 l 207 953 l 394 1053 z "},"ŗ":{"ha":678,"x_min":58,"x_max":688,"o":"m 58 0 m 397 617 q 347 573 357 617 q 338 444 338 529 l 338 0 l 65 0 l 65 708 l 285 725 l 296 600 q 372 701 319 665 q 494 736 424 736 q 635 687 583 736 q 688 550 688 638 q 647 435 688 476 q 531 394 606 394 q 488 398 513 394 q 454 408 464 401 q 463 490 463 444 q 397 617 463 617 m 175 -71 q 274 -98 243 -71 q 306 -183 306 -125 q 280 -269 306 -229 q 210 -334 254 -310 q 114 -358 167 -358 q 58 -354 108 -358 q 115 -208 115 -282 q 83 -92 115 -143 q 123 -77 96 -83 q 175 -71 150 -71 z "},"ṛ":{"ha":678,"x_min":54,"x_max":688,"o":"m 54 0 m 397 617 q 347 573 357 617 q 338 444 338 529 l 338 0 l 65 0 l 65 708 l 285 725 l 296 600 q 372 701 319 665 q 494 736 424 736 q 635 687 583 736 q 688 550 688 638 q 647 435 688 476 q 531 394 606 394 q 488 398 513 394 q 454 408 464 401 q 463 490 463 444 q 397 617 463 617 m 208 -57 q 315 -86 275 -57 q 356 -168 356 -115 q 313 -250 356 -221 q 203 -279 271 -279 q 95 -251 136 -279 q 54 -171 54 -222 q 98 -87 54 -117 q 208 -57 142 -57 z "},"s":{"ha":671,"x_min":24,"x_max":642,"o":"m 354 657 q 305 638 324 657 q 286 588 286 619 q 308 522 286 550 q 361 472 329 493 q 449 422 393 451 q 550 362 513 388 q 615 298 588 336 q 642 207 642 260 q 551 26 642 83 q 313 -31 460 -31 q 111 5 199 -31 q 24 122 24 40 q 69 208 24 179 q 181 236 114 236 q 222 233 199 236 q 256 224 246 231 q 250 154 250 179 q 266 76 250 104 q 322 49 282 49 q 379 73 358 49 q 400 136 400 97 q 378 202 400 174 q 325 251 357 231 q 238 301 293 272 q 135 361 174 335 q 70 426 97 388 q 43 517 43 464 q 135 683 43 631 q 363 736 226 736 q 555 704 468 736 q 642 600 642 672 q 594 519 642 549 q 486 489 547 489 q 444 492 468 489 q 411 501 421 494 q 415 536 414 517 q 417 571 417 556 q 401 633 417 608 q 354 657 386 657 z "},"ś":{"ha":671,"x_min":24,"x_max":642,"o":"m 24 0 m 354 657 q 305 638 324 657 q 286 588 286 619 q 308 522 286 550 q 361 472 329 493 q 449 422 393 451 q 550 362 513 388 q 615 298 588 336 q 642 207 642 260 q 551 26 642 83 q 313 -31 460 -31 q 111 5 199 -31 q 24 122 24 40 q 69 208 24 179 q 181 236 114 236 q 222 233 199 236 q 256 224 246 231 q 250 154 250 179 q 266 76 250 104 q 322 49 282 49 q 379 73 358 49 q 400 136 400 97 q 378 202 400 174 q 325 251 357 231 q 238 301 293 272 q 135 361 174 335 q 70 426 97 388 q 43 517 43 464 q 135 683 43 631 q 363 736 226 736 q 555 704 468 736 q 642 600 642 672 q 594 519 642 549 q 486 489 547 489 q 444 492 468 489 q 411 501 421 494 q 415 536 414 517 q 417 571 417 556 q 401 633 417 608 q 354 657 386 657 m 517 1071 q 569 1028 547 1057 q 592 968 592 999 q 553 898 592 921 q 438 853 514 875 l 242 797 l 211 863 l 517 1071 z "},"š":{"ha":671,"x_min":24,"x_max":642,"o":"m 24 0 m 354 657 q 305 638 324 657 q 286 588 286 619 q 308 522 286 550 q 361 472 329 493 q 449 422 393 451 q 550 362 513 388 q 615 298 588 336 q 642 207 642 260 q 551 26 642 83 q 313 -31 460 -31 q 111 5 199 -31 q 24 122 24 40 q 69 208 24 179 q 181 236 114 236 q 222 233 199 236 q 256 224 246 231 q 250 154 250 179 q 266 76 250 104 q 322 49 282 49 q 379 73 358 49 q 400 136 400 97 q 378 202 400 174 q 325 251 357 231 q 238 301 293 272 q 135 361 174 335 q 70 426 97 388 q 43 517 43 464 q 135 683 43 631 q 363 736 226 736 q 555 704 468 736 q 642 600 642 672 q 594 519 642 549 q 486 489 547 489 q 444 492 468 489 q 411 501 421 494 q 415 536 414 517 q 417 571 417 556 q 401 633 417 608 q 354 657 386 657 m 542 1053 l 596 989 l 400 799 l 311 799 l 111 989 l 165 1053 l 354 953 l 542 1053 z "},"ş":{"ha":671,"x_min":24,"x_max":642,"o":"m 286 588 q 308 522 286 550 q 361 472 329 493 q 449 422 393 451 q 550 362 513 388 q 615 298 588 336 q 642 207 642 260 q 562 35 642 92 q 350 -29 482 -22 l 329 -81 l 364 -79 q 490 -112 443 -79 q 538 -214 538 -144 q 477 -321 538 -283 q 335 -358 417 -358 q 232 -340 278 -358 q 186 -274 186 -321 q 203 -218 186 -239 q 313 -264 239 -264 q 351 -249 335 -264 q 368 -210 368 -233 q 342 -165 368 -176 q 275 -153 317 -153 q 219 -156 256 -153 l 265 -29 q 94 13 164 -24 q 24 122 24 49 q 69 208 24 179 q 181 236 114 236 q 222 233 199 236 q 256 224 246 231 q 250 154 250 179 q 266 76 250 104 q 322 49 282 49 q 379 73 358 49 q 400 136 400 97 q 378 202 400 174 q 325 251 357 231 q 238 301 293 272 q 135 361 174 335 q 70 426 97 388 q 43 517 43 464 q 135 683 43 631 q 363 736 226 736 q 555 704 468 736 q 642 600 642 672 q 594 519 642 549 q 486 489 547 489 q 444 492 468 489 q 411 501 421 494 q 415 536 414 517 q 417 571 417 556 q 401 633 417 608 q 354 657 386 657 q 305 638 324 657 q 286 588 286 619 z "},"ŝ":{"ha":671,"x_min":24,"x_max":642,"o":"m 24 0 m 354 657 q 305 638 324 657 q 286 588 286 619 q 308 522 286 550 q 361 472 329 493 q 449 422 393 451 q 550 362 513 388 q 615 298 588 336 q 642 207 642 260 q 551 26 642 83 q 313 -31 460 -31 q 111 5 199 -31 q 24 122 24 40 q 69 208 24 179 q 181 236 114 236 q 222 233 199 236 q 256 224 246 231 q 250 154 250 179 q 266 76 250 104 q 322 49 282 49 q 379 73 358 49 q 400 136 400 97 q 378 202 400 174 q 325 251 357 231 q 238 301 293 272 q 135 361 174 335 q 70 426 97 388 q 43 517 43 464 q 135 683 43 631 q 363 736 226 736 q 555 704 468 736 q 642 600 642 672 q 594 519 642 549 q 486 489 547 489 q 444 492 468 489 q 411 501 421 494 q 415 536 414 517 q 417 571 417 556 q 401 633 417 608 q 354 657 386 657 m 167 813 l 113 878 l 324 1038 l 383 1038 l 597 878 l 543 813 l 356 883 l 167 813 z "},"ș":{"ha":671,"x_min":24,"x_max":642,"o":"m 24 0 m 354 657 q 305 638 324 657 q 286 588 286 619 q 308 522 286 550 q 361 472 329 493 q 449 422 393 451 q 550 362 513 388 q 615 298 588 336 q 642 207 642 260 q 551 26 642 83 q 313 -31 460 -31 q 111 5 199 -31 q 24 122 24 40 q 69 208 24 179 q 181 236 114 236 q 222 233 199 236 q 256 224 246 231 q 250 154 250 179 q 266 76 250 104 q 322 49 282 49 q 379 73 358 49 q 400 136 400 97 q 378 202 400 174 q 325 251 357 231 q 238 301 293 272 q 135 361 174 335 q 70 426 97 388 q 43 517 43 464 q 135 683 43 631 q 363 736 226 736 q 555 704 468 736 q 642 600 642 672 q 594 519 642 549 q 486 489 547 489 q 444 492 468 489 q 411 501 421 494 q 415 536 414 517 q 417 571 417 556 q 401 633 417 608 q 354 657 386 657 m 326 -71 q 426 -98 394 -71 q 457 -183 457 -125 q 431 -269 457 -229 q 362 -334 406 -310 q 265 -358 318 -358 q 210 -354 260 -358 q 267 -208 267 -282 q 235 -92 267 -143 q 274 -77 247 -83 q 326 -71 301 -71 z "},"ṣ":{"ha":671,"x_min":24,"x_max":642,"o":"m 24 0 m 354 657 q 305 638 324 657 q 286 588 286 619 q 308 522 286 550 q 361 472 329 493 q 449 422 393 451 q 550 362 513 388 q 615 298 588 336 q 642 207 642 260 q 551 26 642 83 q 313 -31 460 -31 q 111 5 199 -31 q 24 122 24 40 q 69 208 24 179 q 181 236 114 236 q 222 233 199 236 q 256 224 246 231 q 250 154 250 179 q 266 76 250 104 q 322 49 282 49 q 379 73 358 49 q 400 136 400 97 q 378 202 400 174 q 325 251 357 231 q 238 301 293 272 q 135 361 174 335 q 70 426 97 388 q 43 517 43 464 q 135 683 43 631 q 363 736 226 736 q 555 704 468 736 q 642 600 642 672 q 594 519 642 549 q 486 489 547 489 q 444 492 468 489 q 411 501 421 494 q 415 536 414 517 q 417 571 417 556 q 401 633 417 608 q 354 657 386 657 m 360 -57 q 467 -86 426 -57 q 507 -168 507 -115 q 465 -250 507 -221 q 354 -279 422 -279 q 247 -251 288 -279 q 206 -171 206 -222 q 249 -87 206 -117 q 360 -57 293 -57 z "},"ß":{"ha":1058,"x_min":-39,"x_max":1049,"o":"m 75 735 q 193 940 75 881 q 496 1000 311 1000 q 654 985 569 1000 q 800 936 739 971 q 861 846 861 901 q 839 776 861 806 q 771 703 817 746 q 712 641 731 665 q 693 588 693 617 q 715 522 693 550 q 768 472 736 493 q 856 422 800 451 q 957 362 919 388 q 1022 298 994 336 q 1049 207 1049 260 q 957 26 1049 83 q 719 -31 865 -31 q 518 5 606 -31 q 431 122 431 40 q 476 208 431 179 q 588 236 521 236 q 628 233 606 236 q 661 224 651 231 q 656 154 656 179 q 729 49 656 49 q 785 73 765 49 q 806 136 806 97 q 784 202 806 174 q 731 251 763 231 q 643 301 699 272 q 542 362 579 336 q 477 426 504 388 q 450 517 450 464 q 475 593 450 557 q 549 678 500 629 q 611 750 590 721 q 632 808 632 779 q 590 891 632 861 q 486 921 547 921 q 379 886 411 921 q 347 775 347 851 l 347 63 q 297 -187 347 -94 q 121 -279 247 -279 q 23 -263 68 -279 q -39 -210 -22 -247 q 38 -169 13 -203 q 69 -90 63 -136 q 75 28 75 -44 l 75 735 z "},"ſ":{"ha":440,"x_min":65,"x_max":686,"o":"m 65 -21 l 65 763 q 163 945 65 890 q 415 1000 260 1000 q 605 973 524 1000 q 686 874 686 946 q 640 798 686 822 q 529 774 593 774 q 488 776 511 774 q 456 786 465 779 q 461 849 461 822 q 406 935 461 935 q 349 896 361 935 q 338 789 338 857 l 338 0 l 65 -21 z "},"t":{"ha":469,"x_min":7,"x_max":493,"o":"m 7 646 l 7 689 q 158 762 76 714 q 289 860 239 810 l 367 860 l 367 708 l 493 708 l 493 646 l 367 646 l 367 161 q 383 94 367 118 q 439 60 400 69 q 372 -1 418 18 q 272 -21 326 -21 q 140 24 186 -21 q 94 153 94 68 l 94 646 l 7 646 z "},"ŧ":{"ha":564,"x_min":10,"x_max":554,"o":"m 399 356 l 399 161 q 415 94 399 118 q 471 60 432 69 q 404 -1 450 18 q 304 -21 358 -21 q 172 24 218 -21 q 126 153 126 68 l 126 356 l 15 356 q 10 397 10 372 q 34 462 10 440 q 103 483 58 483 l 126 483 l 126 646 l 39 646 l 39 689 q 190 762 108 714 q 321 860 271 810 l 399 860 l 399 708 l 525 708 l 525 646 l 399 646 l 399 483 l 549 483 q 554 443 554 467 q 528 378 554 400 q 458 356 503 356 l 399 356 z "},"ť":{"ha":469,"x_min":7,"x_max":592,"o":"m 7 0 m 7 646 l 7 689 q 158 762 76 714 q 289 860 239 810 l 367 860 l 367 708 l 493 708 l 493 646 l 367 646 l 367 161 q 383 94 367 118 q 439 60 400 69 q 372 -1 418 18 q 272 -21 326 -21 q 140 24 186 -21 q 94 153 94 68 l 94 646 l 7 646 m 393 979 q 433 994 406 989 q 486 1000 460 1000 q 563 970 533 1000 q 592 882 592 940 q 574 812 592 847 q 519 753 556 776 q 433 731 483 731 q 385 739 408 731 q 416 794 407 765 q 425 864 425 824 q 393 979 425 928 z "},"ţ":{"ha":469,"x_min":7,"x_max":493,"o":"m 367 646 l 367 161 q 383 94 367 118 q 439 60 400 69 q 372 -1 418 19 q 274 -21 326 -21 l 249 -81 l 283 -79 q 410 -112 363 -79 q 457 -214 457 -144 q 397 -321 457 -283 q 254 -358 336 -358 q 151 -340 197 -358 q 106 -274 106 -321 q 122 -218 106 -239 q 232 -264 158 -264 q 271 -249 254 -264 q 288 -210 288 -233 q 262 -165 288 -176 q 194 -153 236 -153 q 139 -156 175 -153 l 193 -8 q 119 49 144 8 q 94 153 94 90 l 94 646 l 7 646 l 7 689 q 158 762 76 714 q 289 860 239 810 l 367 860 l 367 708 l 493 708 l 493 646 l 367 646 z "},"ț":{"ha":469,"x_min":7,"x_max":493,"o":"m 7 0 m 7 646 l 7 689 q 158 762 76 714 q 289 860 239 810 l 367 860 l 367 708 l 493 708 l 493 646 l 367 646 l 367 161 q 383 94 367 118 q 439 60 400 69 q 372 -1 418 18 q 272 -21 326 -21 q 140 24 186 -21 q 94 153 94 68 l 94 646 l 7 646 m 246 -71 q 345 -98 314 -71 q 376 -183 376 -125 q 351 -269 376 -229 q 281 -334 325 -310 q 185 -358 238 -358 q 129 -354 179 -358 q 186 -208 186 -282 q 154 -92 186 -143 q 194 -77 167 -83 q 246 -71 221 -71 z "},"ṭ":{"ha":469,"x_min":7,"x_max":493,"o":"m 7 0 m 7 646 l 7 689 q 158 762 76 714 q 289 860 239 810 l 367 860 l 367 708 l 493 708 l 493 646 l 367 646 l 367 161 q 383 94 367 118 q 439 60 400 69 q 372 -1 418 18 q 272 -21 326 -21 q 140 24 186 -21 q 94 153 94 68 l 94 646 l 7 646 m 279 -57 q 386 -86 346 -57 q 426 -168 426 -115 q 384 -250 426 -221 q 274 -279 342 -279 q 166 -251 207 -279 q 125 -171 125 -222 q 169 -87 125 -117 q 279 -57 213 -57 z "},"u":{"ha":840,"x_min":65,"x_max":808,"o":"m 765 163 q 808 17 765 72 q 750 -11 788 -1 q 679 -21 713 -21 q 511 63 550 -21 q 317 -31 450 -31 q 159 13 214 -31 q 85 132 104 56 q 65 328 65 208 l 65 708 l 343 708 l 343 335 q 347 191 343 242 q 365 108 350 140 q 413 75 379 75 q 493 225 493 75 l 493 708 l 765 708 l 765 163 z "},"ú":{"ha":840,"x_min":65,"x_max":808,"o":"m 65 0 m 765 163 q 808 17 765 72 q 750 -11 788 -1 q 679 -21 713 -21 q 511 63 550 -21 q 317 -31 450 -31 q 159 13 214 -31 q 85 132 104 56 q 65 328 65 208 l 65 708 l 343 708 l 343 335 q 347 191 343 242 q 365 108 350 140 q 413 75 379 75 q 493 225 493 75 l 493 708 l 765 708 l 765 163 m 575 1071 q 628 1028 606 1057 q 650 968 650 999 q 611 898 650 921 q 496 853 572 875 l 300 797 l 269 863 l 575 1071 z "},"ŭ":{"ha":840,"x_min":65,"x_max":808,"o":"m 65 0 m 765 163 q 808 17 765 72 q 750 -11 788 -1 q 679 -21 713 -21 q 511 63 550 -21 q 317 -31 450 -31 q 159 13 214 -31 q 85 132 104 56 q 65 328 65 208 l 65 708 l 343 708 l 343 335 q 347 191 343 242 q 365 108 350 140 q 413 75 379 75 q 493 225 493 75 l 493 708 l 765 708 l 765 163 m 682 1035 q 613 876 682 936 q 413 815 544 815 q 213 876 281 815 q 144 1035 144 936 l 349 1035 l 347 981 q 360 912 347 936 q 413 888 374 888 q 466 913 453 888 q 479 985 479 939 l 478 1035 l 682 1035 z "},"û":{"ha":840,"x_min":65,"x_max":808,"o":"m 65 0 m 765 163 q 808 17 765 72 q 750 -11 788 -1 q 679 -21 713 -21 q 511 63 550 -21 q 317 -31 450 -31 q 159 13 214 -31 q 85 132 104 56 q 65 328 65 208 l 65 708 l 343 708 l 343 335 q 347 191 343 242 q 365 108 350 140 q 413 75 379 75 q 493 225 493 75 l 493 708 l 765 708 l 765 163 m 225 813 l 171 878 l 382 1038 l 442 1038 l 656 878 l 601 813 l 414 883 l 225 813 z "},"ü":{"ha":840,"x_min":65,"x_max":808,"o":"m 65 0 m 765 163 q 808 17 765 72 q 750 -11 788 -1 q 679 -21 713 -21 q 511 63 550 -21 q 317 -31 450 -31 q 159 13 214 -31 q 85 132 104 56 q 65 328 65 208 l 65 708 l 343 708 l 343 335 q 347 191 343 242 q 365 108 350 140 q 413 75 379 75 q 493 225 493 75 l 493 708 l 765 708 l 765 163 m 574 1042 q 681 1013 640 1042 q 721 931 721 983 q 678 849 721 878 q 568 819 636 819 q 460 848 501 819 q 419 928 419 876 q 463 1012 419 982 q 574 1042 507 1042 m 254 1042 q 361 1013 321 1042 q 401 931 401 983 q 359 849 401 878 q 249 819 317 819 q 141 848 182 819 q 100 928 100 876 q 144 1012 100 982 q 254 1042 188 1042 z "},"ụ":{"ha":840,"x_min":65,"x_max":808,"o":"m 65 0 m 765 163 q 808 17 765 72 q 750 -11 788 -1 q 679 -21 713 -21 q 511 63 550 -21 q 317 -31 450 -31 q 159 13 214 -31 q 85 132 104 56 q 65 328 65 208 l 65 708 l 343 708 l 343 335 q 347 191 343 242 q 365 108 350 140 q 413 75 379 75 q 493 225 493 75 l 493 708 l 765 708 l 765 163 m 419 -57 q 526 -86 486 -57 q 567 -168 567 -115 q 524 -250 567 -221 q 414 -279 482 -279 q 306 -251 347 -279 q 265 -171 265 -222 q 309 -87 265 -117 q 419 -57 353 -57 z "},"ù":{"ha":840,"x_min":65,"x_max":808,"o":"m 65 0 m 765 163 q 808 17 765 72 q 750 -11 788 -1 q 679 -21 713 -21 q 511 63 550 -21 q 317 -31 450 -31 q 159 13 214 -31 q 85 132 104 56 q 65 328 65 208 l 65 708 l 343 708 l 343 335 q 347 191 343 242 q 365 108 350 140 q 413 75 379 75 q 493 225 493 75 l 493 708 l 765 708 l 765 163 m 331 853 q 215 898 254 875 q 175 968 175 921 q 197 1028 175 999 q 250 1071 219 1057 l 556 863 l 525 797 l 331 853 z "},"ű":{"ha":840,"x_min":65,"x_max":844,"o":"m 65 0 m 765 163 q 808 17 765 72 q 750 -11 788 -1 q 679 -21 713 -21 q 511 63 550 -21 q 317 -31 450 -31 q 159 13 214 -31 q 85 132 104 56 q 65 328 65 208 l 65 708 l 343 708 l 343 335 q 347 191 343 242 q 365 108 350 140 q 413 75 379 75 q 493 225 493 75 l 493 708 l 765 708 l 765 163 m 439 1089 q 503 1049 475 1079 q 532 985 532 1019 q 498 900 532 935 q 410 844 464 865 l 229 772 l 188 831 l 439 1089 m 751 1089 q 816 1049 788 1079 q 844 985 844 1019 q 810 901 844 936 q 724 844 776 865 l 543 772 l 500 831 l 751 1089 z "},"ū":{"ha":840,"x_min":65,"x_max":808,"o":"m 65 0 m 765 163 q 808 17 765 72 q 750 -11 788 -1 q 679 -21 713 -21 q 511 63 550 -21 q 317 -31 450 -31 q 159 13 214 -31 q 85 132 104 56 q 65 328 65 208 l 65 708 l 343 708 l 343 335 q 347 191 343 242 q 365 108 350 140 q 413 75 379 75 q 493 225 493 75 l 493 708 l 765 708 l 765 163 m 614 990 q 626 936 626 969 q 605 883 626 903 q 547 863 583 863 l 211 863 q 199 917 199 883 q 220 970 199 950 q 278 990 242 990 l 614 990 z "},"ų":{"ha":840,"x_min":65,"x_max":872,"o":"m 836 -212 q 863 -239 853 -225 q 872 -272 872 -253 q 823 -343 872 -319 q 719 -367 774 -367 q 572 -332 631 -367 q 514 -224 514 -297 q 651 -19 514 -107 q 511 63 546 -11 q 317 -31 450 -31 q 159 13 214 -31 q 85 132 104 56 q 65 328 65 208 l 65 708 l 343 708 l 343 335 q 347 191 343 242 q 365 108 350 140 q 413 75 379 75 q 493 225 493 75 l 493 708 l 765 708 l 765 163 q 808 17 765 72 q 806 14 806 14 q 716 -73 750 -25 q 682 -175 682 -121 q 700 -232 682 -217 q 760 -247 718 -247 q 804 -238 782 -247 q 836 -212 826 -229 z "},"ů":{"ha":840,"x_min":65,"x_max":808,"o":"m 65 0 m 765 163 q 808 17 765 72 q 750 -11 788 -1 q 679 -21 713 -21 q 511 63 550 -21 q 317 -31 450 -31 q 159 13 214 -31 q 85 132 104 56 q 65 328 65 208 l 65 708 l 343 708 l 343 335 q 347 191 343 242 q 365 108 350 140 q 413 75 379 75 q 493 225 493 75 l 493 708 l 765 708 l 765 163 m 413 804 q 298 841 343 804 q 253 939 253 878 q 297 1035 253 1001 q 413 1069 340 1069 q 528 1035 485 1069 q 572 939 572 1001 q 527 841 572 878 q 413 804 482 804 m 413 861 q 459 883 443 861 q 475 939 475 904 q 459 993 475 972 q 413 1014 443 1014 q 366 993 382 1014 q 350 939 350 972 q 365 883 350 904 q 413 861 381 861 z "},"ũ":{"ha":840,"x_min":65,"x_max":808,"o":"m 65 0 m 765 163 q 808 17 765 72 q 750 -11 788 -1 q 679 -21 713 -21 q 511 63 550 -21 q 317 -31 450 -31 q 159 13 214 -31 q 85 132 104 56 q 65 328 65 208 l 65 708 l 343 708 l 343 335 q 347 191 343 242 q 365 108 350 140 q 413 75 379 75 q 493 225 493 75 l 493 708 l 765 708 l 765 163 m 657 1011 q 680 970 671 993 q 689 926 689 947 q 651 856 689 875 q 550 838 614 838 q 404 851 513 838 q 257 865 296 865 q 168 838 196 865 q 145 877 154 854 q 136 921 136 900 q 173 991 136 972 q 275 1010 210 1010 q 419 996 311 1010 q 568 982 528 982 q 657 1011 629 982 z "},"v":{"ha":764,"x_min":14,"x_max":776,"o":"m 776 708 l 551 0 l 204 0 l 14 708 l 299 708 l 417 108 l 535 708 l 776 708 z "},"w":{"ha":1129,"x_min":14,"x_max":1142,"o":"m 1142 708 l 936 0 l 632 0 l 557 324 l 489 0 l 185 0 l 14 708 l 299 708 l 397 108 l 494 708 l 718 708 l 815 108 l 914 708 l 1142 708 z "},"ẃ":{"ha":1129,"x_min":14,"x_max":1142,"o":"m 14 0 m 1142 708 l 936 0 l 632 0 l 557 324 l 489 0 l 185 0 l 14 708 l 299 708 l 397 108 l 494 708 l 718 708 l 815 108 l 914 708 l 1142 708 m 767 1071 q 819 1028 797 1057 q 842 968 842 999 q 803 898 842 921 q 688 853 764 875 l 492 797 l 461 863 l 767 1071 z "},"ŵ":{"ha":1129,"x_min":14,"x_max":1142,"o":"m 14 0 m 1142 708 l 936 0 l 632 0 l 557 324 l 489 0 l 185 0 l 14 708 l 299 708 l 397 108 l 494 708 l 718 708 l 815 108 l 914 708 l 1142 708 m 417 813 l 363 878 l 574 1038 l 633 1038 l 847 878 l 793 813 l 606 883 l 417 813 z "},"ẅ":{"ha":1129,"x_min":14,"x_max":1142,"o":"m 14 0 m 1142 708 l 936 0 l 632 0 l 557 324 l 489 0 l 185 0 l 14 708 l 299 708 l 397 108 l 494 708 l 718 708 l 815 108 l 914 708 l 1142 708 m 765 1042 q 872 1013 832 1042 q 913 931 913 983 q 870 849 913 878 q 760 819 828 819 q 652 848 693 819 q 611 928 611 876 q 655 1012 611 982 q 765 1042 699 1042 m 446 1042 q 553 1013 513 1042 q 593 931 593 983 q 551 849 593 878 q 440 819 508 819 q 333 848 374 819 q 292 928 292 876 q 335 1012 292 982 q 446 1042 379 1042 z "},"ẁ":{"ha":1129,"x_min":14,"x_max":1142,"o":"m 14 0 m 1142 708 l 936 0 l 632 0 l 557 324 l 489 0 l 185 0 l 14 708 l 299 708 l 397 108 l 494 708 l 718 708 l 815 108 l 914 708 l 1142 708 m 522 853 q 406 898 446 875 q 367 968 367 921 q 389 1028 367 999 q 442 1071 411 1057 l 747 863 l 717 797 l 522 853 z "},"x":{"ha":675,"x_min":-10,"x_max":681,"o":"m 286 228 l 222 0 l -10 0 l 193 372 l 10 708 l 304 708 l 394 511 l 440 708 l 672 708 l 482 358 l 681 0 l 386 0 l 286 228 z "},"y":{"ha":740,"x_min":14,"x_max":747,"o":"m 747 708 l 401 -268 l 129 -250 l 293 82 l 189 82 l 14 708 l 299 708 l 407 192 l 524 708 l 747 708 z "},"ý":{"ha":740,"x_min":14,"x_max":747,"o":"m 14 0 m 747 708 l 401 -268 l 129 -250 l 293 82 l 189 82 l 14 708 l 299 708 l 407 192 l 524 708 l 747 708 m 568 1071 q 621 1028 599 1057 q 643 968 643 999 q 604 898 643 921 q 489 853 565 875 l 293 797 l 263 863 l 568 1071 z "},"ŷ":{"ha":740,"x_min":14,"x_max":747,"o":"m 14 0 m 747 708 l 401 -268 l 129 -250 l 293 82 l 189 82 l 14 708 l 299 708 l 407 192 l 524 708 l 747 708 m 218 813 l 164 878 l 375 1038 l 435 1038 l 649 878 l 594 813 l 407 883 l 218 813 z "},"ÿ":{"ha":740,"x_min":14,"x_max":747,"o":"m 14 0 m 747 708 l 401 -268 l 129 -250 l 293 82 l 189 82 l 14 708 l 299 708 l 407 192 l 524 708 l 747 708 m 567 1042 q 674 1013 633 1042 q 714 931 714 983 q 672 849 714 878 q 561 819 629 819 q 453 848 494 819 q 413 928 413 876 q 456 1012 413 982 q 567 1042 500 1042 m 247 1042 q 354 1013 314 1042 q 394 931 394 983 q 352 849 394 878 q 242 819 310 819 q 134 848 175 819 q 93 928 93 876 q 137 1012 93 982 q 247 1042 181 1042 z "},"ỳ":{"ha":740,"x_min":14,"x_max":747,"o":"m 14 0 m 747 708 l 401 -268 l 129 -250 l 293 82 l 189 82 l 14 708 l 299 708 l 407 192 l 524 708 l 747 708 m 324 853 q 208 898 247 875 q 168 968 168 921 q 190 1028 168 999 q 243 1071 213 1057 l 549 863 l 518 797 l 324 853 z "},"ỹ":{"ha":740,"x_min":14,"x_max":747,"o":"m 14 0 m 747 708 l 401 -268 l 129 -250 l 293 82 l 189 82 l 14 708 l 299 708 l 407 192 l 524 708 l 747 708 m 650 1011 q 673 970 664 993 q 682 926 682 947 q 644 856 682 875 q 543 838 607 838 q 397 851 506 838 q 250 865 289 865 q 161 838 189 865 q 138 877 147 854 q 129 921 129 900 q 166 991 129 972 q 268 1010 203 1010 q 413 996 304 1010 q 561 982 521 982 q 650 1011 622 982 z "},"z":{"ha":600,"x_min":1,"x_max":582,"o":"m 571 708 l 579 626 l 311 117 l 582 138 l 568 0 l 10 0 l 1 82 l 268 590 l 28 572 l 42 708 l 571 708 z "},"ź":{"ha":600,"x_min":1,"x_max":582,"o":"m 1 0 m 571 708 l 579 626 l 311 117 l 582 138 l 568 0 l 10 0 l 1 82 l 268 590 l 28 572 l 42 708 l 571 708 m 464 1071 q 517 1028 494 1057 q 539 968 539 999 q 500 898 539 921 q 385 853 461 875 l 189 797 l 158 863 l 464 1071 z "},"ž":{"ha":600,"x_min":1,"x_max":582,"o":"m 1 0 m 571 708 l 579 626 l 311 117 l 582 138 l 568 0 l 10 0 l 1 82 l 268 590 l 28 572 l 42 708 l 571 708 m 489 1053 l 543 989 l 347 799 l 258 799 l 58 989 l 113 1053 l 301 953 l 489 1053 z "},"ż":{"ha":600,"x_min":1,"x_max":582,"o":"m 1 0 m 571 708 l 579 626 l 311 117 l 582 138 l 568 0 l 10 0 l 1 82 l 268 590 l 28 572 l 42 708 l 571 708 m 310 1042 q 417 1013 376 1042 q 457 931 457 983 q 415 849 457 878 q 304 819 372 819 q 197 848 238 819 q 156 928 156 876 q 199 1012 156 982 q 310 1042 243 1042 z "},"ẓ":{"ha":600,"x_min":1,"x_max":582,"o":"m 1 0 m 571 708 l 579 626 l 311 117 l 582 138 l 568 0 l 10 0 l 1 82 l 268 590 l 28 572 l 42 708 l 571 708 m 288 -57 q 394 -86 354 -57 q 435 -168 435 -115 q 392 -250 435 -221 q 282 -279 350 -279 q 174 -251 215 -279 q 133 -171 133 -222 q 177 -87 133 -117 q 288 -57 221 -57 z "},"ﬁ":{"ha":882,"x_min":1,"x_max":850,"o":"m 543 857 q 522 915 543 896 q 463 935 501 935 q 387 897 407 935 q 367 789 367 858 l 367 708 l 807 708 l 807 163 q 850 17 807 72 q 792 -11 829 -1 q 722 -21 756 -21 q 583 22 632 -21 q 535 153 535 65 l 535 646 l 367 646 l 367 0 l 94 -21 l 94 646 l 1 646 l 1 708 l 94 708 l 99 763 q 208 947 107 894 q 472 1000 310 1000 q 713 977 604 1000 q 822 883 822 954 q 769 799 822 825 q 642 774 717 774 q 585 778 615 774 q 536 789 556 782 q 543 857 543 819 z "},"ﬂ":{"ha":881,"x_min":1,"x_max":849,"o":"m 806 163 q 849 17 806 72 q 791 -11 828 -1 q 721 -21 754 -21 q 582 22 631 -21 q 533 153 533 65 l 533 850 q 514 903 533 885 q 458 921 494 921 q 385 883 404 921 q 367 775 367 846 l 367 708 l 489 708 l 489 646 l 367 646 l 367 0 l 94 -21 l 94 646 l 1 646 l 1 708 l 94 708 l 99 763 q 206 947 110 894 q 464 1000 303 1000 q 619 981 560 1000 l 806 1000 l 806 163 z "},"ª":{"ha":646,"x_min":39,"x_max":593,"o":"m 313 936 q 500 897 438 936 q 563 749 563 857 l 563 531 q 593 425 563 467 q 550 402 576 410 q 496 394 524 394 q 418 410 449 394 q 374 461 388 426 q 325 406 361 424 q 243 388 289 388 q 98 426 157 388 q 39 538 39 464 q 126 666 39 633 q 356 699 214 699 l 356 789 q 344 852 356 831 q 301 874 333 874 q 253 853 267 874 q 239 789 239 832 q 243 736 239 786 q 188 728 229 728 q 104 749 138 728 q 71 811 71 769 q 144 908 71 881 q 313 936 218 936 m 356 639 q 272 617 300 639 q 243 543 243 594 q 256 489 243 510 q 297 468 269 468 q 342 495 328 468 q 356 560 356 522 l 356 639 m 556 328 q 565 279 565 299 q 548 231 565 243 q 489 219 531 219 l 90 219 q 81 268 81 249 q 98 316 81 304 q 156 328 115 328 l 556 328 z "},"º":{"ha":603,"x_min":38,"x_max":571,"o":"m 304 936 q 501 867 432 936 q 571 671 571 799 q 500 466 571 543 q 304 389 429 389 q 110 464 183 389 q 38 661 38 539 q 108 863 38 789 q 304 936 178 936 m 304 456 q 351 515 340 456 q 361 665 361 575 q 351 812 361 754 q 304 869 340 869 q 258 812 268 869 q 247 665 247 754 q 258 515 247 575 q 304 456 268 456 m 69 219 q 60 268 60 249 q 77 316 60 304 q 135 328 94 328 l 533 328 q 543 279 543 299 q 526 231 543 243 q 468 219 508 219 l 69 219 z "},"Δ":{"ha":833,"x_min":-4,"x_max":860,"o":"m 590 917 l 860 0 l -4 0 l 288 917 l 590 917 m 383 722 l 207 101 l 556 101 l 390 682 l 383 722 z "},"Ω":{"ha":931,"x_min":26,"x_max":904,"o":"m 465 944 q 699 892 600 944 q 850 742 797 840 q 903 510 903 644 q 841 294 903 385 q 663 150 779 203 l 904 150 l 904 0 l 517 0 l 496 115 q 568 244 553 163 q 583 463 583 325 q 561 735 583 628 q 465 842 539 842 q 369 735 392 842 q 347 463 347 628 q 363 244 347 326 q 435 115 379 163 l 414 0 l 26 0 l 26 150 l 268 150 q 90 294 151 203 q 28 510 28 385 q 81 742 28 644 q 232 892 133 840 q 465 944 331 944 z "},"μ":{"ha":850,"x_min":75,"x_max":818,"o":"m 775 163 q 818 17 775 72 q 760 -11 797 -1 q 689 -21 722 -21 q 521 63 560 -21 q 347 -29 461 -25 l 347 -250 l 75 -268 l 75 708 l 353 736 l 353 335 q 356 191 353 242 q 374 108 360 140 q 422 75 389 75 q 503 225 503 75 l 503 708 l 775 708 l 775 163 z "},"π":{"ha":896,"x_min":10,"x_max":888,"o":"m 888 663 q 859 591 888 615 q 782 567 831 567 l 782 163 q 825 17 782 72 q 767 -11 804 -1 q 697 -21 731 -21 q 558 22 607 -21 q 510 153 510 65 l 510 567 l 386 567 l 386 0 l 114 0 l 114 567 l 15 567 q 10 613 10 585 q 38 684 10 660 q 114 708 65 708 l 881 708 q 888 663 888 692 z "},"¹":{"ha":482,"x_min":33,"x_max":458,"o":"m 458 482 l 458 396 l 67 396 l 67 482 l 164 482 l 164 761 q 93 735 133 735 q 46 760 58 735 q 33 831 33 785 q 292 944 190 882 l 364 924 l 364 482 l 458 482 z "},"²":{"ha":497,"x_min":33,"x_max":444,"o":"m 232 936 q 385 897 325 936 q 444 778 444 857 q 404 666 444 718 q 299 564 364 614 q 236 518 285 553 l 442 526 l 442 396 l 49 396 l 43 467 l 110 522 q 208 630 172 578 q 244 738 244 682 q 223 793 244 774 q 164 813 201 813 q 65 761 97 813 q 33 818 33 781 q 95 906 33 876 q 232 936 157 936 z "},"³":{"ha":485,"x_min":33,"x_max":432,"o":"m 224 936 q 353 905 301 936 q 406 810 406 874 q 296 682 406 713 q 397 642 361 675 q 432 549 432 608 q 373 422 432 467 q 218 376 314 376 q 88 405 143 376 q 33 493 33 433 q 54 542 33 525 q 164 499 97 499 q 216 514 197 499 q 235 560 235 529 q 216 608 235 592 q 164 625 197 625 q 125 624 136 625 l 125 697 q 239 765 239 697 q 220 811 239 794 q 171 828 201 828 q 114 811 138 828 q 71 763 90 794 q 40 819 40 781 q 95 907 40 878 q 224 936 150 936 z "},"⁄":{"ha":454,"x_min":36,"x_max":414,"o":"m 300 993 q 353 1000 318 1000 q 397 987 381 1000 q 414 947 414 974 q 410 908 414 928 l 150 -119 q 99 -126 132 -126 q 53 -113 71 -126 q 36 -74 36 -100 q 42 -35 36 -60 l 300 993 z "},"½":{"ha":1161,"x_min":33,"x_max":1083,"o":"m 694 1000 q 740 987 722 1000 q 757 947 757 974 q 751 908 757 933 l 493 -119 q 442 -126 475 -126 q 397 -113 414 -126 q 379 -74 379 -100 q 385 -35 379 -60 l 643 993 q 694 1000 661 1000 m 364 924 l 364 482 l 457 482 l 457 396 l 67 396 l 67 482 l 164 482 l 164 761 q 93 735 133 735 q 46 760 58 735 q 33 831 33 785 q 292 944 190 882 l 364 924 m 871 540 q 1024 501 964 540 q 1083 382 1083 461 q 1040 265 1083 319 q 924 157 996 211 l 875 122 l 1081 131 l 1081 0 l 688 0 l 682 71 q 744 124 703 88 q 847 233 810 181 q 883 342 883 285 q 862 397 883 378 q 803 417 840 417 q 704 365 736 417 q 672 422 672 385 q 734 510 672 481 q 871 540 796 540 z "},"⅓":{"ha":1161,"x_min":33,"x_max":1099,"o":"m 717 988 q 762 974 744 988 q 779 935 779 961 q 774 896 779 921 l 515 -132 q 463 -139 497 -139 q 417 -126 435 -139 q 400 -86 400 -112 q 406 -47 400 -72 l 665 981 q 717 988 683 988 m 364 924 l 364 482 l 458 482 l 458 396 l 67 396 l 67 482 l 164 482 l 164 761 q 93 735 133 735 q 46 760 58 735 q 33 831 33 785 q 292 944 190 882 l 364 924 m 890 540 q 1020 509 968 540 q 1072 414 1072 478 q 961 286 1072 317 q 1063 246 1028 279 q 1099 153 1099 213 q 1040 26 1099 71 q 885 -19 981 -19 q 755 9 810 -19 q 700 97 700 38 q 721 146 700 129 q 772 113 743 124 q 831 101 800 101 q 883 117 864 101 q 901 164 901 133 q 883 213 901 196 q 831 229 864 229 q 792 228 803 229 l 792 301 q 906 369 906 301 q 887 415 906 399 q 838 432 868 432 q 781 415 804 432 q 738 367 757 399 q 707 424 707 385 q 762 511 707 482 q 890 540 817 540 z "},"⅔":{"ha":1161,"x_min":58,"x_max":1099,"o":"m 717 988 q 762 974 744 988 q 779 935 779 961 q 774 896 779 921 l 515 -132 q 464 -139 497 -139 q 419 -126 436 -139 q 401 -86 401 -112 q 407 -47 401 -72 l 665 981 q 717 988 683 988 m 256 936 q 409 897 349 936 q 469 778 469 857 q 429 665 469 717 q 321 561 389 613 l 260 518 l 467 526 l 467 396 l 72 396 l 67 467 l 132 521 q 233 629 196 578 q 269 738 269 681 q 248 793 269 774 q 189 813 226 813 q 90 761 122 813 q 58 818 58 781 q 119 906 58 876 q 256 936 181 936 m 890 540 q 1020 509 968 540 q 1072 414 1072 478 q 963 286 1072 317 q 1063 246 1028 279 q 1099 153 1099 213 q 1040 26 1099 71 q 885 -19 981 -19 q 755 9 810 -19 q 700 97 700 38 q 721 146 700 129 q 772 113 743 124 q 831 101 800 101 q 883 117 864 101 q 901 164 901 133 q 883 213 901 196 q 831 229 864 229 q 792 228 803 229 l 792 301 q 906 369 906 301 q 887 415 906 399 q 838 432 868 432 q 781 415 804 432 q 738 367 757 399 q 707 424 707 385 q 762 511 707 482 q 890 540 817 540 z "},"¼":{"ha":1161,"x_min":33,"x_max":1143,"o":"m 696 1000 q 741 987 724 1000 q 758 947 758 974 q 753 908 758 933 l 494 -119 q 442 -126 476 -126 q 397 -113 414 -126 q 381 -74 381 -100 q 385 -35 381 -54 l 644 993 q 696 1000 663 1000 m 364 924 l 364 482 l 458 482 l 458 396 l 67 396 l 67 482 l 164 482 l 164 761 q 93 735 133 735 q 46 760 58 735 q 33 831 33 785 q 293 944 186 881 l 364 924 m 1060 192 l 1143 192 l 1136 81 l 1060 81 l 1060 0 l 854 0 l 854 81 l 640 81 q 619 128 619 99 q 642 190 619 156 l 861 521 l 1060 521 l 1060 192 m 860 382 l 740 192 l 860 192 l 860 382 z "},"¾":{"ha":1161,"x_min":49,"x_max":1143,"o":"m 696 1000 q 741 987 724 1000 q 758 947 758 974 q 753 908 758 933 l 494 -119 q 442 -126 476 -126 q 397 -113 414 -126 q 381 -74 381 -100 q 385 -35 381 -54 l 644 993 q 696 1000 663 1000 m 238 936 q 368 905 315 936 q 421 810 421 874 q 310 682 421 713 q 412 642 376 675 q 447 549 447 608 q 388 422 447 467 q 233 376 329 376 q 103 405 158 376 q 49 493 49 433 q 69 542 49 525 q 179 499 113 499 q 231 514 213 499 q 249 560 249 529 q 231 608 249 592 q 179 625 213 625 q 140 624 151 625 l 140 697 q 254 765 254 697 q 235 811 254 794 q 186 828 217 828 q 129 811 153 828 q 86 763 106 794 q 56 819 56 781 q 110 907 56 878 q 238 936 165 936 m 1058 192 l 1143 192 l 1136 81 l 1058 81 l 1058 0 l 854 0 l 854 81 l 640 81 q 619 128 619 99 q 642 190 619 156 l 861 521 l 1058 521 l 1058 192 m 860 382 l 740 192 l 860 192 l 860 382 z "},"⅛":{"ha":1161,"x_min":33,"x_max":1139,"o":"m 696 1000 q 741 987 724 1000 q 758 947 758 974 q 753 908 758 933 l 493 -119 q 442 -126 475 -126 q 397 -113 414 -126 q 379 -74 379 -100 q 385 -35 379 -60 l 643 993 q 696 1000 661 1000 m 364 924 l 364 482 l 458 482 l 458 396 l 67 396 l 67 482 l 164 482 l 164 761 q 93 735 133 735 q 46 760 58 735 q 33 831 33 785 q 293 944 189 882 l 364 924 m 921 540 q 1057 512 1004 540 q 1110 415 1110 483 q 1084 347 1110 375 q 1010 294 1058 319 q 1104 219 1069 257 q 1139 132 1139 182 q 1072 19 1139 57 q 914 -19 1006 -19 q 760 17 825 -19 q 696 126 696 54 q 803 261 696 194 q 733 328 757 299 q 708 400 708 358 q 770 506 708 472 q 921 540 832 540 m 917 475 q 884 461 894 475 q 874 424 874 447 q 891 381 874 399 q 949 335 908 363 q 967 417 967 369 q 954 460 967 444 q 917 475 942 475 m 868 211 q 850 126 850 176 q 866 69 850 92 q 914 47 882 47 q 965 108 965 47 q 944 157 965 138 q 868 211 924 176 z "},"*":{"ha":633,"x_min":24,"x_max":565,"o":"m 517 854 q 558 790 544 828 q 565 753 565 767 q 479 664 565 693 q 425 651 454 656 l 532 539 q 483 479 515 503 q 426 458 456 458 q 339 517 382 458 q 297 600 314 553 l 208 438 q 138 465 167 442 q 96 536 96 496 q 128 614 96 572 q 171 663 150 643 l 26 689 q 24 717 24 708 q 31 764 24 739 q 113 831 53 831 q 169 819 140 831 q 235 789 204 808 l 214 949 q 288 968 249 968 q 363 936 343 968 q 383 853 383 904 q 375 786 383 822 l 517 854 z "},"\\":{"ha":472,"x_min":36,"x_max":438,"o":"m 157 1113 q 213 1108 188 1113 l 429 -124 q 438 -187 438 -156 q 404 -256 438 -235 q 315 -278 371 -278 q 260 -274 285 -278 l 43 958 q 36 1021 36 993 q 69 1091 36 1069 q 157 1113 101 1113 z "},"·":{"ha":350,"x_min":26,"x_max":328,"o":"m 181 456 q 288 426 247 456 q 328 344 328 397 q 285 263 328 292 q 175 233 243 233 q 67 262 108 233 q 26 342 26 290 q 70 426 26 396 q 181 456 114 456 z "},"•":{"ha":432,"x_min":40,"x_max":393,"o":"m 222 506 q 346 467 299 506 q 393 361 393 428 q 343 252 393 292 q 214 213 293 213 q 88 251 136 213 q 40 356 40 290 q 92 465 40 425 q 222 506 143 506 z "},":":{"ha":357,"x_min":28,"x_max":329,"o":"m 28 0 m 182 736 q 289 707 249 736 q 329 625 329 678 q 287 543 329 572 q 176 514 244 514 q 69 542 110 514 q 28 622 28 571 q 72 706 28 676 q 182 736 115 736 m 182 194 q 289 165 249 194 q 329 83 329 136 q 287 1 329 31 q 176 -28 244 -28 q 69 1 110 -28 q 28 81 28 29 q 72 165 28 135 q 182 194 115 194 z "},",":{"ha":347,"x_min":28,"x_max":319,"o":"m 160 194 q 319 39 319 194 q 288 -73 319 -21 q 204 -156 257 -125 q 90 -187 151 -187 q 28 -179 57 -187 q 93 14 93 -86 q 56 168 93 99 q 101 187 69 179 q 160 194 132 194 z "},"…":{"ha":1050,"x_min":42,"x_max":994,"o":"m 42 0 m 543 194 q 650 165 610 194 q 690 83 690 136 q 648 1 690 31 q 538 -28 606 -28 q 430 1 471 -28 q 389 81 389 29 q 433 165 389 135 q 543 194 476 194 m 847 194 q 954 165 914 194 q 994 83 994 136 q 952 1 994 31 q 842 -28 910 -28 q 734 1 775 -28 q 693 81 693 29 q 737 165 693 135 q 847 194 781 194 m 196 194 q 303 165 263 194 q 343 83 343 136 q 301 1 343 31 q 190 -28 258 -28 q 83 1 124 -28 q 42 81 42 29 q 85 165 42 135 q 196 194 129 194 z "},"!":{"ha":350,"x_min":26,"x_max":328,"o":"m 164 946 q 263 908 231 946 q 296 801 296 871 q 282 621 296 738 l 251 267 q 185 250 228 250 q 124 265 144 250 q 97 306 104 279 q 85 379 89 332 l 42 901 q 95 934 61 922 q 164 946 129 946 m 181 194 q 288 165 247 194 q 328 83 328 136 q 285 1 328 31 q 175 -28 243 -28 q 67 1 108 -28 q 26 81 26 29 q 70 165 26 135 q 181 194 114 194 z "},"¡":{"ha":350,"x_min":26,"x_max":328,"o":"m 181 735 q 288 706 247 735 q 328 624 328 676 q 285 542 328 571 q 175 513 243 513 q 67 541 108 513 q 26 621 26 569 q 70 705 26 675 q 181 735 114 735 m 165 457 q 226 442 206 457 q 253 402 246 428 q 267 328 261 376 l 308 -194 q 255 -227 289 -215 q 186 -239 221 -239 q 88 -201 119 -239 q 56 -94 56 -164 q 68 86 56 -46 l 100 440 q 165 457 122 457 z "},"#":{"ha":863,"x_min":50,"x_max":811,"o":"m 607 917 q 674 900 638 917 l 674 688 l 794 688 q 811 626 811 658 q 788 547 811 572 q 724 521 764 521 l 674 521 l 674 365 l 794 365 q 811 304 811 336 q 788 226 811 253 q 724 200 764 200 l 674 200 l 674 94 q 650 25 674 50 q 575 0 626 0 q 507 17 543 0 l 507 200 l 368 200 l 368 94 q 268 0 368 0 q 201 17 238 0 l 201 200 l 67 200 q 50 261 50 229 q 74 339 50 313 q 138 365 97 365 l 201 365 l 201 521 l 67 521 q 50 583 50 550 q 74 663 50 638 q 138 688 97 688 l 201 688 l 201 822 q 301 917 201 917 q 368 900 332 917 l 368 688 l 507 688 l 507 822 q 531 892 507 867 q 607 917 556 917 m 507 521 l 368 521 l 368 365 l 507 365 l 507 521 z "},".":{"ha":350,"x_min":26,"x_max":328,"o":"m 181 194 q 288 165 247 194 q 328 83 328 136 q 285 1 328 31 q 175 -28 243 -28 q 67 1 108 -28 q 26 81 26 29 q 70 165 26 135 q 181 194 114 194 z "},"?":{"ha":706,"x_min":3,"x_max":678,"o":"m 329 944 q 582 896 486 944 q 678 722 678 847 q 653 624 678 668 q 592 547 628 579 q 499 469 557 514 q 392 376 426 414 q 358 290 358 339 q 333 281 350 285 q 299 278 315 278 q 229 306 254 278 q 204 382 204 335 q 227 458 204 422 q 297 547 250 494 q 378 651 350 606 q 406 750 406 696 q 325 861 406 861 q 240 726 240 861 q 249 636 240 682 q 176 626 218 626 q 51 663 100 626 q 3 771 3 699 q 97 904 3 864 q 329 944 190 944 m 300 194 q 407 165 367 194 q 447 83 447 136 q 405 1 447 31 q 294 -28 363 -28 q 187 1 228 -28 q 146 81 146 29 q 190 165 146 135 q 300 194 233 194 z "},"¿":{"ha":706,"x_min":28,"x_max":704,"o":"m 401 735 q 508 706 468 735 q 549 624 549 676 q 506 542 549 571 q 396 513 464 513 q 288 541 329 513 q 247 621 247 569 q 291 705 247 675 q 401 735 335 735 m 407 431 q 477 402 451 431 q 503 326 503 374 q 479 249 503 285 q 408 161 456 213 q 328 58 356 103 q 300 -42 300 13 q 382 -153 300 -153 q 465 -18 465 -153 q 457 72 465 26 q 531 82 490 82 q 656 46 607 82 q 704 -62 704 10 q 610 -196 704 -156 q 378 -236 515 -236 q 124 -187 219 -236 q 28 -14 28 -139 q 53 85 28 40 q 113 162 78 129 q 207 239 149 194 q 313 332 279 294 q 347 418 347 369 q 373 427 356 424 q 407 431 390 431 z "},"\"":{"ha":568,"x_min":17,"x_max":533,"o":"m 29 639 q 42 782 42 700 q 17 1006 42 908 q 96 1014 64 1014 q 208 979 171 1014 q 244 869 244 944 q 221 748 244 817 q 164 639 197 679 l 29 639 m 318 639 q 331 782 331 700 q 306 1006 331 907 q 383 1014 353 1014 q 497 979 460 1014 q 533 869 533 944 q 510 748 533 817 q 453 639 486 679 l 318 639 z "},"'":{"ha":279,"x_min":17,"x_max":244,"o":"m 29 639 q 42 782 42 700 q 17 1006 42 908 q 96 1014 64 1014 q 208 979 171 1014 q 244 869 244 944 q 221 748 244 817 q 164 639 197 679 l 29 639 z "},";":{"ha":365,"x_min":38,"x_max":339,"o":"m 38 0 m 192 736 q 299 707 258 736 q 339 625 339 678 q 297 543 339 572 q 186 514 254 514 q 78 542 119 514 q 38 622 38 571 q 81 706 38 676 q 192 736 125 736 m 171 194 q 331 39 331 194 q 299 -73 331 -21 q 215 -156 268 -125 q 101 -187 163 -187 q 39 -179 68 -187 q 104 14 104 -86 q 67 168 104 99 q 112 187 81 179 q 171 194 143 194 z "},"/":{"ha":472,"x_min":36,"x_max":438,"o":"m 315 1113 q 404 1091 371 1113 q 438 1021 438 1069 q 429 958 438 990 l 213 -274 q 157 -278 188 -278 q 69 -256 101 -278 q 36 -187 36 -235 q 43 -124 36 -158 l 260 1108 q 315 1113 285 1113 z "},"_":{"ha":704,"x_min":10,"x_max":694,"o":"m 15 -196 q 10 -150 10 -178 q 38 -78 10 -103 q 114 -54 65 -54 l 688 -54 q 694 -100 694 -72 q 667 -172 694 -147 q 589 -196 639 -196 l 15 -196 z "},"{":{"ha":536,"x_min":38,"x_max":532,"o":"m 389 1111 q 532 1100 464 1111 l 532 1019 l 490 1019 q 405 990 432 1019 q 378 897 378 960 l 379 582 q 347 481 379 514 q 238 439 314 449 q 324 413 294 431 q 367 364 354 396 q 379 276 379 332 l 379 -12 q 489 -185 379 -185 l 531 -185 l 531 -267 q 386 -278 447 -278 q 224 -240 281 -278 q 168 -111 168 -203 l 168 233 q 133 340 168 300 q 38 382 97 381 l 38 482 q 140 515 107 482 q 172 618 172 549 l 172 947 q 224 1074 172 1036 q 389 1111 275 1111 z "},"}":{"ha":535,"x_min":4,"x_max":499,"o":"m 157 582 q 190 481 157 514 q 299 439 222 449 q 212 413 242 431 q 169 364 182 396 q 157 276 157 332 l 157 -12 q 134 -136 157 -87 q 47 -185 111 -185 l 6 -185 l 6 -267 q 151 -278 89 -278 q 313 -240 256 -278 q 369 -111 369 -203 l 369 233 q 404 340 369 300 q 499 382 439 381 l 499 482 q 398 515 431 482 q 365 618 365 549 l 365 947 q 314 1074 365 1036 q 147 1111 263 1111 q 4 1100 75 1111 l 4 1019 l 47 1019 q 132 990 106 1019 q 158 897 158 960 l 157 582 z "},"[":{"ha":472,"x_min":103,"x_max":478,"o":"m 468 1099 q 478 1057 478 1079 q 463 1019 478 1032 q 419 1006 447 1006 l 315 1006 l 315 -171 l 419 -171 q 463 -184 447 -171 q 478 -222 478 -197 q 468 -264 478 -244 l 103 -264 l 103 1099 l 468 1099 z "},"]":{"ha":472,"x_min":-6,"x_max":369,"o":"m 4 -264 q -6 -222 -6 -244 q 10 -184 -6 -197 q 53 -171 25 -171 l 157 -171 l 157 1006 l 53 1006 q 10 1019 25 1006 q -6 1057 -6 1032 q 4 1099 -6 1079 l 369 1099 l 369 -264 l 4 -264 z "},"(":{"ha":454,"x_min":71,"x_max":524,"o":"m 449 1111 q 524 1083 497 1111 q 337 815 396 993 q 278 417 278 636 q 337 19 278 197 q 524 -250 396 -160 q 449 -278 497 -278 q 259 -189 346 -278 q 122 59 172 -100 q 71 417 71 218 q 122 774 71 615 q 259 1022 172 933 q 449 1111 346 1111 z "},")":{"ha":454,"x_min":-69,"x_max":383,"o":"m 6 1111 q 195 1022 108 1111 q 333 774 282 933 q 383 417 383 615 q 333 59 383 218 q 195 -189 282 -100 q 6 -278 108 -278 q -69 -250 -43 -278 q 117 18 58 -160 q 175 417 175 196 q 117 815 175 638 q -69 1083 58 993 q 6 1111 -43 1111 z "},"—":{"ha":1406,"x_min":10,"x_max":1396,"o":"m 15 264 q 10 310 10 282 q 38 381 10 357 q 114 406 65 406 l 1389 406 q 1396 360 1396 389 q 1368 288 1396 313 q 1290 264 1340 264 l 15 264 z "},"–":{"ha":714,"x_min":10,"x_max":704,"o":"m 15 264 q 10 310 10 282 q 38 381 10 357 q 114 406 65 406 l 697 406 q 704 360 704 389 q 676 288 704 311 q 597 264 649 264 l 15 264 z "},"-":{"ha":517,"x_min":40,"x_max":478,"o":"m 47 253 q 40 304 40 276 q 139 400 40 396 l 468 417 q 475 391 472 407 q 478 365 478 375 q 452 295 478 318 q 376 269 426 272 l 47 253 z "},"­":{"ha":517,"x_min":40,"x_max":478,"o":"m 47 253 q 40 304 40 276 q 65 374 40 351 q 139 400 90 397 l 468 417 q 475 391 472 407 q 478 365 478 375 q 452 295 478 318 q 376 269 426 272 l 47 253 z "},"«":{"ha":721,"x_min":8,"x_max":678,"o":"m 192 708 l 358 708 l 238 440 l 353 175 l 190 175 l 8 440 l 192 708 m 510 708 l 678 708 l 557 440 l 672 175 l 508 175 l 328 440 l 510 708 z "},"»":{"ha":721,"x_min":43,"x_max":711,"o":"m 210 708 l 393 440 l 210 175 l 47 175 l 164 440 l 43 708 l 210 708 m 529 708 l 711 440 l 529 175 l 367 175 l 483 440 l 361 708 l 529 708 z "},"‹":{"ha":401,"x_min":8,"x_max":358,"o":"m 192 708 l 358 708 l 238 440 l 353 175 l 190 175 l 8 440 l 192 708 z "},"›":{"ha":401,"x_min":43,"x_max":393,"o":"m 393 440 l 210 175 l 47 175 l 164 440 l 43 708 l 210 708 l 393 440 z "},"„":{"ha":668,"x_min":17,"x_max":635,"o":"m 150 194 q 269 156 228 194 q 310 39 310 117 q 278 -73 310 -21 q 193 -156 246 -125 q 81 -187 140 -187 q 17 -179 46 -187 q 83 14 83 -86 q 44 168 83 100 q 90 187 58 179 q 150 194 122 194 m 475 194 q 594 156 553 194 q 635 39 635 117 q 603 -73 635 -21 q 518 -156 571 -125 q 406 -187 465 -187 q 342 -179 371 -187 q 408 14 408 -86 q 371 168 408 99 q 415 187 383 179 q 475 194 447 194 z "},"“":{"ha":668,"x_min":35,"x_max":651,"o":"m 193 633 q 75 672 115 633 q 35 789 35 711 q 66 901 35 849 q 150 984 97 953 q 264 1015 203 1015 q 326 1008 294 1015 q 261 814 261 913 q 299 660 261 731 q 253 641 285 649 q 193 633 222 633 m 518 633 q 400 672 440 633 q 360 789 360 711 q 391 901 360 849 q 475 984 422 953 q 589 1015 528 1015 q 651 1008 619 1015 q 586 814 586 913 q 624 660 586 731 q 578 641 610 649 q 518 633 547 633 z "},"”":{"ha":668,"x_min":17,"x_max":635,"o":"m 150 1015 q 269 976 228 1015 q 310 861 310 938 q 278 748 310 800 q 193 665 246 696 q 81 633 140 633 q 17 642 46 633 q 83 836 83 735 q 44 989 83 921 q 90 1008 58 1000 q 150 1015 122 1015 m 475 1015 q 594 976 553 1015 q 635 861 635 938 q 603 748 635 800 q 518 665 571 696 q 406 633 465 633 q 342 642 371 633 q 408 836 408 735 q 371 989 408 919 q 415 1008 383 1000 q 475 1015 447 1015 z "},"‘":{"ha":443,"x_min":133,"x_max":426,"o":"m 293 633 q 174 672 215 633 q 133 789 133 711 q 165 901 133 849 q 250 984 197 953 q 363 1015 303 1015 q 426 1008 394 1015 q 360 814 360 914 q 399 660 360 729 q 353 641 385 649 q 293 633 321 633 z "},"’":{"ha":343,"x_min":17,"x_max":310,"o":"m 150 1015 q 269 976 228 1015 q 310 861 310 938 q 278 748 310 800 q 193 665 246 696 q 81 633 140 633 q 17 642 46 633 q 83 836 83 735 q 44 989 83 921 q 90 1008 58 1000 q 150 1015 122 1015 z "},"‚":{"ha":343,"x_min":17,"x_max":310,"o":"m 150 193 q 269 154 228 193 q 310 38 310 115 q 278 -74 310 -22 q 193 -158 246 -126 q 81 -189 140 -189 q 17 -181 46 -189 q 83 13 83 -87 q 44 167 83 99 q 90 185 58 178 q 150 193 122 193 z "}," ":{"ha":826,"x_min":0,"x_max":0,"o":""}," ":{"ha":840,"x_min":0,"x_max":0,"o":""}," ":{"ha":846,"x_min":0,"x_max":0,"o":""}," ":{"ha":243,"x_min":0,"x_max":0,"o":""}," ":{"ha":844,"x_min":0,"x_max":0,"o":""},"¢":{"ha":863,"x_min":103,"x_max":789,"o":"m 717 335 q 756 308 742 329 q 769 258 769 286 q 702 117 769 168 q 533 60 635 65 l 533 18 q 514 -44 533 -21 q 456 -68 494 -68 q 394 -53 431 -68 l 394 69 q 178 197 254 97 q 103 449 103 296 q 177 693 103 600 q 392 814 251 786 l 392 869 q 411 932 392 908 q 469 956 431 956 q 531 940 494 956 l 531 825 q 717 782 644 822 q 789 650 789 742 q 744 564 789 593 q 632 535 699 535 q 590 538 614 535 q 557 547 567 540 q 563 617 563 592 q 550 708 563 674 q 499 742 538 742 q 381 456 381 742 q 419 287 381 347 q 561 226 458 226 q 655 255 615 226 q 717 335 694 283 z "},"¤":{"ha":863,"x_min":86,"x_max":776,"o":"m 701 144 l 574 260 q 424 224 508 224 q 294 250 351 224 l 185 135 l 93 224 l 199 325 q 154 469 154 388 q 196 608 154 549 l 86 704 l 158 801 l 282 682 q 424 715 344 715 q 547 690 490 715 l 653 806 l 746 718 l 642 619 q 693 469 693 557 q 657 338 693 393 l 776 239 l 701 144 m 424 357 q 493 387 468 357 q 518 469 518 417 q 493 552 518 522 q 424 582 468 582 q 355 552 381 582 q 329 469 329 522 q 355 387 329 417 q 424 357 381 357 z "},"$":{"ha":863,"x_min":68,"x_max":792,"o":"m 792 267 q 710 64 792 136 q 489 -25 628 -8 l 489 -78 q 469 -140 489 -117 q 411 -164 450 -164 q 350 -149 386 -164 l 350 -29 q 149 22 229 -22 q 68 157 68 65 q 118 272 68 229 q 242 314 168 314 q 314 306 288 314 q 306 229 306 264 q 331 114 306 156 q 418 72 356 72 q 500 100 469 72 q 531 178 531 128 q 506 253 531 222 q 443 306 481 285 q 340 357 406 328 q 210 424 260 393 q 124 507 160 456 q 89 635 89 558 q 169 819 89 747 q 374 910 250 890 l 374 964 q 393 1026 374 1003 q 451 1050 413 1050 q 513 1035 476 1050 l 513 915 q 696 865 621 907 q 771 743 771 824 q 722 636 771 672 q 597 600 674 600 q 525 610 556 600 q 533 700 533 656 q 440 814 533 814 q 376 790 400 814 q 351 724 351 765 q 377 642 351 675 q 442 586 403 608 q 547 535 481 564 q 674 471 625 500 q 758 392 724 442 q 792 267 792 342 z "},"€":{"ha":863,"x_min":-4,"x_max":847,"o":"m 793 261 q 847 161 847 228 q 797 54 847 97 q 669 -10 746 11 q 511 -31 592 -31 q 106 290 172 -31 l 0 290 q -4 324 -4 306 q 16 376 -4 358 q 71 393 36 393 l 92 393 q 90 453 90 413 l 90 476 l 0 476 q -4 510 -4 492 q 16 562 -4 544 q 71 579 36 579 l 101 579 q 249 831 133 746 q 547 917 365 917 q 765 882 685 917 q 844 757 844 847 q 794 660 844 692 q 671 628 744 628 q 599 636 632 628 q 607 714 607 681 q 592 792 607 769 q 528 814 576 814 q 411 579 419 814 l 596 579 l 599 546 q 578 494 599 511 q 522 476 558 476 l 410 476 q 414 393 410 433 l 596 393 l 599 360 q 578 308 599 325 q 522 290 558 290 l 431 290 q 487 203 449 233 q 590 174 525 174 q 793 261 731 174 z "},"ƒ":{"ha":863,"x_min":-104,"x_max":867,"o":"m 597 1000 q 786 973 706 1000 q 867 874 867 946 q 821 798 867 822 q 711 774 775 774 q 669 776 693 774 q 636 786 646 779 q 642 842 642 817 q 628 899 642 876 q 586 921 615 921 q 531 882 543 921 q 518 775 518 843 l 518 579 l 740 579 q 744 546 744 565 q 724 494 744 511 q 667 476 704 476 l 519 476 l 519 -12 q 422 -195 519 -140 q 167 -250 324 -250 q -23 -223 58 -250 q -104 -124 -104 -196 q -58 -48 -104 -72 q 53 -24 -11 -24 q 94 -26 71 -24 q 126 -36 117 -29 q 121 -92 121 -67 q 134 -149 121 -126 q 176 -171 147 -171 q 233 -132 221 -171 q 246 -25 246 -93 l 246 476 l 101 476 q 97 510 97 492 q 117 562 97 544 q 172 579 138 579 l 244 579 l 244 763 q 342 945 244 890 q 597 1000 440 1000 z "},"₲":{"ha":863,"x_min":49,"x_max":844,"o":"m 608 393 l 826 413 l 826 26 q 553 -29 701 -22 l 553 -78 q 533 -140 553 -117 q 475 -164 514 -164 q 414 -149 450 -164 l 414 -25 q 139 126 229 0 q 49 439 49 251 q 146 772 49 651 q 438 913 243 892 l 438 964 q 457 1026 438 1003 q 515 1050 476 1050 q 576 1035 540 1050 l 576 915 q 844 729 844 899 q 795 615 844 657 q 671 572 746 572 q 599 581 626 572 q 607 657 607 622 q 583 770 607 726 q 501 814 558 814 q 369 493 369 814 q 404 238 369 332 q 547 144 439 144 q 618 156 588 144 l 608 393 z "},"£":{"ha":863,"x_min":36,"x_max":817,"o":"m 428 421 q 394 272 428 329 q 283 186 361 214 l 790 203 l 775 0 l 76 0 l 61 140 q 124 192 104 158 q 148 267 143 225 q 153 388 153 310 l 153 456 l 40 456 q 36 489 36 471 q 56 541 36 524 q 111 558 76 558 l 153 558 l 153 679 q 251 862 153 807 q 506 917 349 917 q 722 876 628 917 q 817 743 817 835 q 768 636 817 672 q 643 600 719 600 q 571 610 601 600 q 579 701 579 656 q 496 838 579 838 q 440 802 451 838 q 428 692 428 767 l 428 558 l 638 558 q 642 525 642 544 q 622 473 642 490 q 565 456 601 456 l 428 456 l 428 421 z "},"¥":{"ha":863,"x_min":54,"x_max":810,"o":"m 575 372 l 575 290 l 731 290 q 735 257 735 276 q 715 204 735 222 q 658 186 694 186 l 575 186 l 575 0 l 278 0 l 278 186 l 135 186 q 131 219 131 201 q 150 273 131 256 q 206 290 169 290 l 278 290 l 278 372 l 135 372 q 131 406 131 388 q 150 459 131 442 q 206 476 169 476 l 246 476 l 54 917 l 358 917 l 486 554 l 590 917 l 810 917 l 604 476 l 731 476 q 735 443 735 463 q 715 390 735 408 q 658 372 694 372 l 575 372 z "},"∙":{"ha":350,"x_min":26,"x_max":328,"o":"m 26 233 m 181 456 q 288 426 247 456 q 328 344 328 397 q 285 263 328 292 q 175 233 243 233 q 67 262 108 233 q 26 342 26 290 q 70 426 26 396 q 181 456 114 456 z "},"∕":{"ha":163,"x_min":-94,"x_max":285,"o":"m 222 1000 q 267 987 250 1000 q 285 947 285 974 q 279 908 285 933 l 19 -119 q -32 -126 1 -126 q -77 -113 -60 -126 q -94 -74 -94 -100 q -89 -35 -94 -60 l 169 993 q 222 1000 188 1000 z "},"+":{"ha":863,"x_min":136,"x_max":726,"o":"m 711 403 q 726 342 726 372 q 703 285 726 304 q 639 265 679 265 l 508 265 l 508 104 q 486 35 508 61 q 422 10 464 10 q 354 24 385 10 l 354 265 l 151 265 q 136 326 136 296 q 160 383 136 364 q 224 403 183 403 l 354 403 l 354 550 q 376 619 354 593 q 440 644 397 644 q 508 631 478 644 l 508 403 l 711 403 z "},"−":{"ha":863,"x_min":136,"x_max":726,"o":"m 151 265 q 136 326 136 296 q 160 383 136 364 q 224 403 183 403 l 711 403 q 726 342 726 372 q 703 285 726 304 q 639 265 679 265 l 151 265 z "},"×":{"ha":863,"x_min":146,"x_max":714,"o":"m 653 179 q 669 155 658 171 q 686 126 681 139 q 692 99 692 113 q 665 33 692 57 q 594 8 638 8 l 433 224 l 318 68 q 222 10 276 10 q 146 64 165 10 l 351 329 l 233 478 q 217 499 229 483 q 198 528 204 514 q 192 557 192 542 q 219 624 192 599 q 290 649 247 649 l 442 444 l 544 578 q 639 636 589 636 q 685 622 665 636 q 714 582 706 608 l 522 339 l 653 179 z "},"÷":{"ha":863,"x_min":136,"x_max":726,"o":"m 538 563 q 507 498 538 521 q 429 475 476 475 q 353 497 382 475 q 325 560 325 519 q 356 625 325 601 q 435 649 388 649 q 509 626 481 649 q 538 563 538 603 m 151 265 q 136 326 136 296 q 160 383 136 364 q 224 403 183 403 l 711 403 q 726 342 726 372 q 703 285 726 304 q 639 265 679 265 l 151 265 m 538 107 q 507 42 538 65 q 429 19 476 19 q 353 42 382 19 q 325 104 325 64 q 356 169 325 146 q 435 193 388 193 q 509 170 481 193 q 538 107 538 147 z "},"=":{"ha":863,"x_min":136,"x_max":726,"o":"m 151 367 q 136 428 136 397 q 160 485 136 465 q 224 504 183 504 l 711 504 q 726 443 726 474 q 703 386 726 406 q 639 367 679 367 l 151 367 m 151 122 q 136 183 136 153 q 160 240 136 221 q 224 260 183 260 l 711 260 q 726 199 726 229 q 703 142 726 161 q 639 122 679 122 l 151 122 z "},"≠":{"ha":863,"x_min":136,"x_max":726,"o":"m 711 260 q 726 199 726 229 q 703 142 726 161 q 639 122 679 122 l 396 122 l 283 -81 q 220 -60 247 -76 q 193 -12 193 -43 q 210 42 193 11 l 254 122 l 151 122 q 136 183 136 153 q 160 240 136 221 q 224 260 183 260 l 331 260 l 389 367 l 151 367 q 136 428 136 397 q 160 485 136 465 q 224 504 183 504 l 465 504 l 585 719 q 648 699 621 715 q 675 651 675 682 q 658 597 675 628 l 607 504 l 711 504 q 726 443 726 474 q 703 386 726 406 q 639 367 679 367 l 531 367 l 472 260 l 711 260 z "},">":{"ha":863,"x_min":147,"x_max":724,"o":"m 724 347 l 367 69 q 338 46 361 65 q 293 17 315 26 q 249 7 271 7 q 147 99 174 7 l 447 340 l 213 497 q 182 532 193 511 q 171 576 171 553 q 199 644 171 618 q 269 669 226 669 l 724 347 z "},"<":{"ha":863,"x_min":139,"x_max":715,"o":"m 650 193 q 692 114 692 161 q 664 36 692 65 q 593 7 636 7 l 139 329 l 497 608 q 528 632 506 614 q 571 660 550 650 q 614 669 592 669 q 715 578 689 669 l 429 350 l 650 193 z "},"≥":{"ha":863,"x_min":178,"x_max":685,"o":"m 653 413 l 460 243 q 392 188 418 206 q 338 171 367 171 q 277 191 304 171 q 250 244 250 211 q 254 269 250 256 l 447 418 l 321 513 q 253 600 253 561 q 280 660 253 635 q 343 685 307 685 l 653 413 m 669 138 q 685 76 685 107 q 661 19 685 39 q 597 0 638 0 l 193 0 q 178 61 178 31 q 201 118 178 99 q 265 138 225 138 l 669 138 z "},"≤":{"ha":863,"x_min":176,"x_max":683,"o":"m 524 686 q 583 664 560 686 q 607 606 607 642 l 414 457 l 540 363 q 608 275 608 314 q 581 215 608 240 q 518 190 554 190 l 208 463 l 401 632 q 524 686 460 686 m 667 138 q 683 76 683 108 q 660 19 683 38 q 596 0 638 0 l 192 0 q 176 61 176 31 q 200 118 176 99 q 264 138 224 138 l 667 138 z "},"±":{"ha":863,"x_min":164,"x_max":699,"o":"m 179 363 q 164 425 164 393 q 188 482 164 463 q 251 501 211 501 l 356 501 l 356 578 q 377 647 356 621 q 440 672 399 672 q 510 658 479 672 l 510 501 l 683 501 q 699 440 699 471 q 675 382 699 401 q 611 363 651 363 l 510 363 l 510 286 q 488 217 510 243 q 422 190 465 190 q 356 204 386 190 l 356 363 l 179 363 m 683 138 q 699 76 699 107 q 676 19 699 39 q 613 0 653 0 l 179 0 q 164 61 164 31 q 187 118 164 99 q 250 138 210 138 l 683 138 z "},"≈":{"ha":863,"x_min":133,"x_max":729,"o":"m 271 533 q 345 527 307 533 q 444 507 383 521 q 519 492 482 499 q 582 485 556 485 q 683 524 660 485 q 716 483 703 507 q 729 435 729 458 q 592 351 729 351 q 517 358 556 351 q 418 378 479 364 q 344 393 381 386 q 281 400 307 400 q 179 361 203 400 q 147 402 160 378 q 133 450 133 426 q 271 533 133 533 m 271 292 q 345 285 307 292 q 444 265 383 279 q 519 250 482 257 q 582 243 556 243 q 683 282 660 243 q 716 241 703 265 q 729 193 729 217 q 592 110 729 110 q 517 116 556 110 q 418 136 479 122 q 344 151 381 144 q 281 158 307 158 q 179 119 203 158 q 147 160 160 136 q 133 208 133 185 q 271 292 133 292 z "},"~":{"ha":863,"x_min":133,"x_max":729,"o":"m 583 363 q 519 369 557 363 q 444 385 482 376 q 346 405 385 399 q 269 411 307 411 q 133 328 133 411 q 147 280 133 304 q 179 239 160 256 q 279 278 201 278 q 342 271 306 278 q 417 256 379 264 q 518 235 481 242 q 593 229 556 229 q 729 313 729 229 q 716 360 729 336 q 683 401 703 385 q 583 363 661 363 z "},"¬":{"ha":863,"x_min":99,"x_max":733,"o":"m 733 13 q 667 -4 697 -4 q 603 22 625 -4 q 582 90 582 47 l 582 265 l 114 265 q 99 326 99 296 q 122 383 99 364 q 186 403 146 403 l 733 403 l 733 13 z "},"∞":{"ha":863,"x_min":10,"x_max":853,"o":"m 650 149 q 532 190 586 149 q 415 306 478 231 q 330 191 381 233 q 215 149 279 149 q 64 217 118 149 q 10 390 10 285 q 63 577 10 503 q 213 651 117 651 q 330 610 275 651 q 443 494 385 568 q 532 609 481 567 q 647 651 583 651 q 799 583 744 651 q 853 410 853 515 q 799 223 853 297 q 650 149 746 149 m 654 296 q 717 321 694 296 q 739 388 739 346 q 699 480 739 444 q 601 515 660 515 q 499 433 540 515 q 580 331 543 367 q 654 296 617 296 m 261 285 q 364 367 324 285 q 281 469 317 435 q 208 504 246 504 q 146 479 168 504 q 124 413 124 454 q 163 320 124 356 q 261 285 203 285 z "},"∫":{"ha":863,"x_min":-40,"x_max":838,"o":"m 592 1000 q 763 968 688 1000 q 838 868 838 936 q 795 801 838 824 q 696 779 753 779 q 629 790 644 779 q 635 840 635 818 q 624 899 635 878 q 582 921 614 921 q 525 882 538 921 q 513 775 513 843 l 513 -12 q 433 -196 513 -142 q 204 -250 353 -250 q 34 -218 108 -250 q -40 -118 -40 -186 q 1 -51 -40 -72 q 101 -29 43 -29 q 168 -40 153 -29 q 163 -90 163 -68 q 174 -149 163 -128 q 215 -171 185 -171 q 271 -132 258 -171 q 283 -25 283 -93 l 283 763 q 364 946 283 892 q 592 1000 444 1000 z "},"Ω":{"ha":931,"x_min":26,"x_max":904,"o":"m 26 0 m 465 944 q 699 892 600 944 q 850 742 797 840 q 903 510 903 644 q 841 294 903 385 q 663 150 779 203 l 904 150 l 904 0 l 517 0 l 496 115 q 568 244 553 163 q 583 463 583 325 q 561 735 583 628 q 465 842 539 842 q 369 735 392 842 q 347 463 347 628 q 363 244 347 326 q 435 115 379 163 l 414 0 l 26 0 l 26 150 l 268 150 q 90 294 151 203 q 28 510 28 385 q 81 742 28 644 q 232 892 133 840 q 465 944 331 944 z "},"∆":{"ha":863,"x_min":-1,"x_max":864,"o":"m 593 917 l 864 0 l -1 0 l 292 917 l 593 917 m 386 722 l 211 101 l 558 101 l 393 682 l 386 722 z "},"∏":{"ha":863,"x_min":33,"x_max":829,"o":"m 829 917 l 829 -110 l 532 -110 l 532 800 l 331 800 l 331 -110 l 33 -110 l 33 917 l 829 917 z "},"∑":{"ha":863,"x_min":10,"x_max":806,"o":"m 718 944 q 776 888 776 944 q 750 806 776 838 l 346 806 l 596 468 l 343 126 l 782 126 q 791 101 783 121 q 802 63 799 81 q 806 28 806 44 q 771 -74 806 -37 q 672 -110 736 -110 l 10 -110 l 372 388 l 89 786 q 61 833 71 813 q 51 879 51 854 q 71 944 51 921 l 718 944 z "},"√":{"ha":863,"x_min":56,"x_max":1132,"o":"m 1118 1128 q 1132 1071 1132 1092 q 1112 1012 1132 1033 q 1054 990 1092 990 l 814 990 l 593 0 l 288 0 l 56 668 q 128 715 86 696 q 217 735 171 735 q 299 710 269 735 q 347 626 328 685 l 497 182 l 701 1128 l 1118 1128 z "},"µ":{"ha":850,"x_min":75,"x_max":818,"o":"m 75 0 m 775 163 q 818 17 775 72 q 760 -11 797 -1 q 689 -21 722 -21 q 521 63 560 -21 q 347 -29 461 -25 l 347 -250 l 75 -268 l 75 708 l 353 736 l 353 335 q 356 191 353 242 q 374 108 360 140 q 422 75 389 75 q 503 225 503 75 l 503 708 l 775 708 l 775 163 z "},"∂":{"ha":863,"x_min":54,"x_max":800,"o":"m 413 1000 q 635 922 549 1000 q 761 718 722 844 q 800 438 800 592 q 710 95 800 221 q 428 -31 621 -31 q 236 12 321 -31 q 103 133 151 54 q 54 315 54 211 q 115 535 54 453 q 265 651 176 618 q 443 685 353 685 q 511 678 483 685 q 491 778 504 740 q 449 836 478 815 q 367 857 419 857 q 292 836 324 857 q 279 872 285 850 q 274 910 274 893 q 313 979 274 958 q 413 1000 351 1000 m 428 53 q 493 100 472 53 q 519 217 514 147 q 524 404 524 288 q 514 571 524 500 q 443 601 481 601 q 352 524 372 601 q 332 325 332 446 q 349 133 332 213 q 428 53 367 53 z "},"%":{"ha":1419,"x_min":39,"x_max":1382,"o":"m 1029 976 q 1128 900 1097 976 l 503 36 q 459 -13 481 4 q 410 -31 438 -31 q 311 47 342 -31 l 936 910 q 980 959 958 942 q 1029 976 1001 976 m 300 944 q 492 870 422 944 q 563 678 563 796 q 531 537 563 601 q 439 434 499 472 q 300 396 379 396 q 163 433 222 396 q 71 532 103 469 q 39 668 39 594 q 70 809 39 746 q 160 908 101 872 q 300 944 219 944 m 300 872 q 249 674 249 872 q 260 526 249 583 q 300 468 272 468 q 353 674 353 468 q 300 872 353 872 m 1119 518 q 1312 444 1242 518 q 1382 251 1382 369 q 1350 110 1382 175 q 1258 8 1318 46 q 1119 -31 1199 -31 q 982 6 1042 -31 q 890 105 922 43 q 858 242 858 167 q 890 383 858 319 q 980 482 921 446 q 1119 518 1039 518 m 1119 446 q 1067 247 1067 446 q 1119 42 1067 42 q 1172 247 1172 42 q 1119 446 1172 446 z "},"‰":{"ha":2008,"x_min":39,"x_max":1971,"o":"m 1029 976 q 1128 900 1097 976 l 503 36 q 459 -13 481 4 q 410 -31 438 -31 q 311 47 342 -31 l 936 910 q 980 959 958 942 q 1029 976 1001 976 m 300 944 q 492 870 422 944 q 563 678 563 796 q 531 537 563 601 q 439 434 499 472 q 300 396 379 396 q 163 433 222 396 q 71 532 103 469 q 39 668 39 594 q 70 809 39 746 q 160 908 101 872 q 300 944 219 944 m 300 872 q 249 674 249 872 q 260 526 249 583 q 300 468 272 468 q 353 674 353 468 q 300 872 353 872 m 1119 518 q 1312 444 1242 518 q 1382 251 1382 369 q 1350 110 1382 175 q 1258 8 1318 46 q 1119 -31 1199 -31 q 982 6 1042 -31 q 890 105 922 43 q 858 242 858 167 q 890 383 858 319 q 980 482 921 446 q 1119 518 1039 518 m 1708 518 q 1901 444 1831 518 q 1971 251 1971 369 q 1939 110 1971 175 q 1847 8 1907 46 q 1708 -31 1788 -31 q 1571 6 1631 -31 q 1478 105 1511 43 q 1446 242 1446 167 q 1477 383 1446 319 q 1568 482 1508 446 q 1708 518 1628 518 m 1119 446 q 1067 247 1067 446 q 1119 42 1067 42 q 1172 247 1172 42 q 1119 446 1172 446 m 1708 446 q 1656 247 1656 446 q 1708 42 1656 42 q 1761 247 1761 42 q 1708 446 1761 446 z "},"◊":{"ha":863,"x_min":33,"x_max":831,"o":"m 585 917 l 831 458 l 533 0 l 279 0 l 33 458 l 331 917 l 585 917 m 411 790 l 250 532 l 454 128 l 614 385 l 411 790 z "},"@":{"ha":1107,"x_min":39,"x_max":1069,"o":"m 554 835 q 820 785 704 835 q 1003 638 936 736 q 1069 397 1069 539 q 1013 165 1069 244 q 821 85 957 85 q 710 106 754 85 q 646 178 667 126 q 591 116 632 139 q 489 93 550 93 q 347 131 404 93 q 289 240 289 168 q 375 367 289 335 q 600 399 461 399 l 600 488 q 590 550 600 529 q 547 571 579 571 q 501 551 514 571 q 488 488 488 531 q 489 436 488 451 q 435 428 478 428 q 353 448 385 428 q 321 510 321 468 q 394 604 321 576 q 558 632 467 632 q 743 592 682 632 q 804 447 804 553 l 804 232 q 813 172 804 193 q 849 150 821 150 q 911 202 897 150 q 925 363 925 254 q 836 649 925 557 q 554 742 747 742 q 277 638 371 742 q 183 344 183 535 q 558 -36 183 -36 q 800 28 721 -36 q 824 -19 824 13 q 738 -106 824 -75 q 544 -136 651 -136 q 278 -79 392 -136 q 101 86 164 -22 q 39 344 39 194 q 101 599 39 488 q 281 772 164 710 q 554 835 397 835 m 600 340 q 517 318 546 340 q 489 246 489 296 q 502 192 489 213 q 544 172 515 172 q 587 199 574 172 q 600 263 600 225 l 600 340 z "},"&":{"ha":996,"x_min":28,"x_max":1011,"o":"m 985 163 q 1011 71 1011 114 q 973 -4 1011 19 q 869 -28 935 -28 q 674 28 778 -28 q 424 -28 565 -28 q 226 4 315 -28 q 82 103 136 36 q 28 267 28 169 q 78 411 28 353 q 217 493 129 469 q 140 725 140 632 q 232 889 140 835 q 456 944 324 943 q 660 902 572 944 q 747 769 747 860 q 699 672 747 707 q 585 636 651 636 q 517 644 549 636 q 525 717 525 685 q 439 849 525 849 q 379 753 379 849 q 415 572 379 668 q 515 388 451 475 q 658 239 579 300 q 665 347 665 279 q 610 517 665 465 q 652 536 626 529 q 706 543 678 543 q 837 499 790 543 q 883 371 883 454 q 821 156 883 246 q 901 144 858 144 q 952 150 928 144 q 985 163 976 156 m 263 331 q 317 153 263 218 q 479 88 372 88 q 560 100 526 88 q 410 234 488 153 q 274 404 333 315 q 265 369 268 390 q 263 331 263 347 z "},"¶":{"ha":936,"x_min":67,"x_max":990,"o":"m 203 -136 q 317 -175 247 -175 q 416 -127 389 -175 q 443 10 443 -79 l 443 368 q 338 353 390 353 q 137 431 207 353 q 67 643 67 508 q 162 865 67 799 q 433 931 257 931 q 588 917 519 931 l 588 49 q 532 -191 588 -104 q 344 -278 476 -278 q 228 -250 275 -278 q 182 -178 182 -222 q 188 -153 182 -164 q 203 -136 193 -142 m 990 917 q 967 835 990 861 q 890 810 944 810 q 832 817 856 810 l 832 0 l 696 -21 l 696 917 l 990 917 z "},"§":{"ha":600,"x_min":26,"x_max":572,"o":"m 419 164 q 513 75 479 122 q 546 -35 546 28 q 463 -194 546 -139 q 263 -250 381 -250 q 105 -217 168 -250 q 42 -110 42 -185 q 74 -28 42 -61 q 157 4 106 4 q 211 -11 192 4 q 208 -64 208 -42 q 224 -148 208 -118 q 281 -178 239 -178 q 335 -156 315 -178 q 356 -97 356 -133 q 320 -18 356 -50 q 213 54 285 14 q 117 113 154 86 q 53 182 79 140 q 26 281 26 224 q 71 428 26 361 q 181 531 115 494 q 88 619 121 572 q 54 729 54 667 q 136 889 54 833 q 336 944 218 944 q 494 912 431 944 q 557 804 557 879 q 526 723 557 756 q 443 690 494 690 q 388 706 408 690 q 392 758 392 729 q 376 842 392 811 q 318 872 360 872 q 264 850 283 872 q 244 792 244 828 q 278 713 244 743 q 386 640 313 682 q 484 579 447 606 q 547 512 521 553 q 572 414 572 471 q 531 284 572 351 q 419 164 489 217 m 194 378 q 233 294 194 329 q 351 210 271 258 q 392 262 379 233 q 406 317 406 290 q 369 399 406 364 q 256 482 332 435 q 210 435 225 463 q 194 378 194 408 z "},"©":{"ha":1043,"x_min":26,"x_max":1015,"o":"m 521 854 q 774 792 661 854 q 951 617 888 729 q 1015 365 1015 506 q 952 116 1015 224 q 777 -51 889 8 q 521 -110 665 -110 q 265 -51 376 -110 q 90 116 153 8 q 26 365 26 224 q 90 617 26 506 q 267 792 154 729 q 521 854 381 854 m 521 753 q 333 703 413 753 q 213 565 254 653 q 172 365 172 478 q 263 92 172 192 q 521 -8 354 -8 q 780 92 689 -8 q 871 365 871 192 q 830 566 871 478 q 710 703 789 654 q 521 753 631 753 m 546 650 q 685 621 631 650 q 739 525 739 592 q 707 465 739 486 q 629 444 675 444 q 599 447 617 444 q 576 453 582 449 q 578 478 576 465 q 579 503 579 492 q 570 567 579 543 q 535 592 561 592 q 469 388 469 592 q 493 269 469 311 q 578 226 517 226 q 689 303 656 226 q 717 282 707 297 q 726 247 726 267 q 672 142 726 179 q 540 106 618 106 q 342 179 411 106 q 274 382 274 253 q 344 581 274 513 q 546 650 415 650 z "},"®":{"ha":1043,"x_min":26,"x_max":1015,"o":"m 521 944 q 774 882 661 944 q 951 708 888 819 q 1015 456 1015 596 q 952 206 1015 314 q 777 40 889 99 q 521 -19 665 -19 q 265 40 376 -19 q 90 206 153 99 q 26 456 26 314 q 90 708 26 596 q 267 882 154 819 q 521 944 381 944 m 521 843 q 333 793 413 843 q 213 656 254 743 q 172 456 172 568 q 263 182 172 282 q 521 82 354 82 q 780 182 689 82 q 871 456 871 282 q 830 656 871 568 q 710 794 789 744 q 521 843 631 843 m 511 738 q 681 703 621 738 q 740 579 740 669 q 716 488 740 526 q 647 432 692 450 l 774 211 l 601 211 l 510 447 q 501 478 501 467 q 558 503 543 478 q 574 576 574 528 q 513 679 574 679 q 479 674 501 679 l 479 211 l 310 211 l 310 726 q 511 738 425 738 z "},"™":{"ha":1101,"x_min":10,"x_max":1036,"o":"m 392 917 l 385 844 l 286 844 l 286 413 l 114 413 l 114 844 l 10 844 l 10 917 l 392 917 m 986 917 l 1036 413 l 865 413 l 836 804 l 731 413 l 629 413 l 522 804 l 493 413 l 396 413 l 451 917 l 649 917 l 719 635 l 792 917 l 986 917 z "},"°":{"ha":504,"x_min":19,"x_max":485,"o":"m 251 514 q 133 542 186 514 q 50 619 81 569 q 19 735 19 669 q 84 892 19 835 q 251 950 149 950 q 420 892 356 950 q 485 735 485 835 q 419 575 485 636 q 251 514 353 514 m 251 603 q 324 640 301 603 q 347 735 347 676 q 324 826 347 790 q 251 861 300 861 q 181 826 204 861 q 157 735 157 790 q 180 640 157 678 q 251 603 203 603 z "},"|":{"ha":432,"x_min":114,"x_max":318,"o":"m 318 1111 l 114 1111 l 114 -278 l 318 -278 l 318 1111 z "},"¦":{"ha":435,"x_min":114,"x_max":321,"o":"m 321 539 l 321 917 l 118 917 l 118 539 l 321 539 m 317 0 l 317 378 l 114 378 l 114 0 l 317 0 z "},"ℓ":{"ha":568,"x_min":6,"x_max":549,"o":"m 510 194 q 549 122 549 176 q 485 17 549 54 q 319 -21 422 -21 q 127 44 188 -21 q 67 236 67 108 l 67 275 q 6 272 25 272 l 6 372 q 67 375 28 372 l 67 665 q 135 869 67 793 q 336 944 204 944 q 494 893 439 944 q 549 724 549 842 q 492 491 549 592 q 332 333 435 390 l 332 239 q 414 143 332 143 q 471 156 446 143 q 510 194 496 169 m 379 838 q 344 815 356 838 q 332 760 332 792 l 332 461 q 429 728 429 554 q 379 838 429 838 z "},"†":{"ha":606,"x_min":10,"x_max":596,"o":"m 431 -157 q 377 -190 411 -178 q 310 -201 343 -201 q 211 -164 243 -201 q 179 -58 179 -126 q 192 124 179 -8 l 226 501 q 40 454 138 501 q 10 572 10 503 q 40 693 10 640 q 226 644 128 644 q 210 766 226 708 q 161 900 194 824 q 227 925 189 917 q 301 933 265 933 q 376 925 338 933 q 443 900 415 917 q 394 766 410 824 q 378 644 378 708 q 565 693 476 644 q 596 572 596 640 q 565 454 596 503 q 378 501 467 501 l 431 -157 z "},"‡":{"ha":604,"x_min":8,"x_max":596,"o":"m 397 256 q 564 304 483 260 q 596 185 596 253 q 564 65 596 114 q 408 113 485 104 l 431 -157 q 377 -190 411 -178 q 310 -201 343 -201 q 211 -164 243 -201 q 179 -58 179 -126 q 190 111 179 3 q 40 65 115 103 q 8 185 8 114 q 40 304 8 253 q 204 256 114 263 l 226 501 q 40 454 138 501 q 8 572 8 503 q 40 693 8 642 q 226 644 128 644 q 210 766 226 708 q 161 900 194 824 q 227 925 189 917 q 301 933 265 933 q 376 925 338 933 q 442 900 415 917 q 394 765 410 821 q 378 644 378 708 q 564 693 476 644 q 596 572 596 642 q 564 454 596 503 q 378 501 467 501 l 397 256 z "},"℮":{"ha":1043,"x_min":26,"x_max":1015,"o":"m 521 944 q 774 882 661 944 q 951 708 888 819 q 1015 456 1015 596 q 1014 411 1015 425 l 335 411 l 335 143 q 526 97 419 97 q 708 136 625 97 q 836 243 790 175 l 938 168 q 765 29 872 78 q 526 -19 657 -19 q 267 39 381 -19 q 90 206 153 97 q 26 456 26 314 q 90 708 26 596 q 267 882 154 819 q 521 944 381 944 m 521 828 q 335 776 417 828 l 335 528 l 708 528 l 708 776 q 521 828 625 828 z "},"^":{"ha":738,"x_min":10,"x_max":728,"o":"m 479 917 q 577 635 517 747 q 728 456 638 524 q 611 385 704 385 q 458 467 521 385 q 342 738 394 549 q 216 467 274 550 q 99 385 158 385 q 10 456 32 385 q 176 633 106 510 q 288 917 247 757 l 479 917 z "},"̈":{"ha":0,"x_min":-308,"x_max":313,"o":"m 0 819 m 165 1042 q 272 1013 232 1042 q 313 931 313 983 q 270 849 313 878 q 160 819 228 819 q 52 848 93 819 q 11 928 11 876 q 55 1012 11 982 q 165 1042 99 1042 m -154 1042 q -47 1013 -87 1042 q -7 931 -7 983 q -49 849 -7 878 q -160 819 -92 819 q -267 848 -226 819 q -308 928 -308 876 q -265 1012 -308 982 q -154 1042 -221 1042 z "},"̇":{"ha":0,"x_min":-150,"x_max":151,"o":"m 0 819 m 4 1042 q 111 1013 71 1042 q 151 931 151 983 q 109 849 151 878 q -1 819 67 819 q -109 848 -68 819 q -150 928 -150 876 q -106 1012 -150 982 q 4 1042 -62 1042 z "},"̀":{"ha":0,"x_min":-264,"x_max":117,"o":"m 0 797 m -108 853 q -224 898 -185 875 q -264 968 -264 921 q -242 1028 -264 999 q -189 1071 -219 1057 l 117 863 l 86 797 l -108 853 z "},"́":{"ha":0,"x_min":-99,"x_max":282,"o":"m 0 797 m 207 1071 q 260 1028 238 1057 q 282 968 282 999 q 243 898 282 921 q 128 853 204 875 l -68 797 l -99 863 l 207 1071 z "},"̋":{"ha":0,"x_min":-239,"x_max":418,"o":"m 0 772 m 13 1089 q 77 1049 49 1079 q 106 985 106 1019 q 72 900 106 935 q -17 844 38 865 l -197 772 l -239 831 l 13 1089 m 325 1089 q 390 1049 361 1079 q 418 985 418 1019 q 384 901 418 936 q 297 844 350 865 l 117 772 l 74 831 l 325 1089 z "},"̂":{"ha":0,"x_min":-242,"x_max":243,"o":"m 0 813 m -187 813 l -242 878 l -31 1038 l 29 1038 l 243 878 l 189 813 l 1 883 l -187 813 z "},"̌":{"ha":0,"x_min":-242,"x_max":243,"o":"m 0 799 m 189 1053 l 243 989 l 47 799 l -42 799 l -242 989 l -187 1053 l 1 953 l 189 1053 z "},"̆":{"ha":0,"x_min":-264,"x_max":274,"o":"m 0 815 m 274 1035 q 205 876 274 936 q 4 815 136 815 q -196 876 -128 815 q -264 1035 -264 936 l -60 1035 l -61 981 q -48 912 -61 936 q 4 888 -35 888 q 58 913 44 888 q 71 985 71 939 l 69 1035 l 274 1035 z "},"̊":{"ha":0,"x_min":-153,"x_max":167,"o":"m 0 804 m 7 804 q -108 841 -62 804 q -153 939 -153 878 q -109 1035 -153 1001 q 7 1069 -65 1069 q 123 1035 79 1069 q 167 939 167 1001 q 122 841 167 878 q 7 804 76 804 m 7 861 q 53 883 38 861 q 69 939 69 904 q 53 993 69 972 q 7 1014 38 1014 q -40 993 -24 1014 q -56 939 -56 972 q -40 883 -56 904 q 7 861 -25 861 z "},"̃":{"ha":0,"x_min":-276,"x_max":276,"o":"m 0 838 m 244 1011 q 267 970 258 993 q 276 926 276 947 q 239 856 276 875 q 138 838 201 838 q -8 851 100 838 q -156 865 -117 865 q -244 838 -217 865 q -267 877 -258 854 q -276 921 -276 900 q -240 991 -276 972 q -137 1010 -203 1010 q 7 996 -101 1010 q 156 982 115 982 q 244 1011 217 982 z "},"̄":{"ha":0,"x_min":-194,"x_max":233,"o":"m 0 863 m 221 990 q 233 936 233 969 q 212 883 233 903 q 154 863 190 863 l -182 863 q -194 917 -194 883 q -173 970 -194 950 q -115 990 -151 990 l 221 990 z "},"̣":{"ha":0,"x_min":-154,"x_max":147,"o":"m 0 -57 q 107 -86 67 -57 q 147 -168 147 -115 q 105 -250 147 -221 q -6 -279 63 -279 q -113 -251 -72 -279 q -154 -171 -154 -222 q -110 -87 -154 -117 q 0 -57 -67 -57 z "},"̦":{"ha":0,"x_min":-261,"x_max":-14,"o":"m -144 -71 q -45 -98 -76 -71 q -14 -183 -14 -125 q -40 -269 -14 -229 q -109 -334 -65 -310 q -206 -358 -153 -358 q -261 -354 -211 -358 q -204 -208 -204 -282 q -236 -92 -204 -143 q -197 -77 -224 -83 q -144 -71 -169 -71 z "},"̧":{"ha":0,"x_min":-125,"x_max":226,"o":"m 0 0 m 53 -79 q 179 -112 132 -79 q 226 -214 226 -144 q 166 -321 226 -283 q 24 -358 106 -358 q -79 -340 -33 -358 q -125 -274 -125 -321 q -108 -218 -125 -239 q 1 -264 -72 -264 q 40 -249 24 -264 q 57 -210 57 -233 q 31 -165 57 -176 q -36 -153 6 -153 q -92 -156 -56 -153 l -29 15 l 57 15 l 18 -81 l 53 -79 z "},"ʼ":{"ha":274,"x_min":14,"x_max":261,"o":"m 131 1015 q 231 985 200 1015 q 261 885 261 954 q 235 785 261 832 q 166 709 210 738 q 69 681 122 681 q 14 688 42 681 q 71 857 71 771 q 39 992 71 929 q 78 1008 51 1001 q 131 1015 106 1015 z "},"ˉ":{"ha":456,"x_min":14,"x_max":442,"o":"m 14 863 m 429 990 q 442 936 442 969 q 420 883 442 903 q 363 863 399 863 l 26 863 q 14 917 14 883 q 35 970 14 950 q 93 990 57 990 l 429 990 z "},"´":{"ha":408,"x_min":14,"x_max":394,"o":"m 319 1071 q 372 1028 350 1057 q 394 968 394 999 q 356 898 394 921 q 240 853 317 875 l 44 797 l 14 863 l 319 1071 z "},"˘":{"ha":453,"x_min":-42,"x_max":496,"o":"m 496 1035 q 427 876 496 936 q 226 815 358 815 q 26 876 94 815 q -42 1035 -42 936 l 163 1035 l 161 981 q 174 912 161 936 q 226 888 188 888 q 280 913 267 888 q 293 985 293 939 l 292 1035 l 496 1035 z "},"ˇ":{"ha":513,"x_min":14,"x_max":499,"o":"m 444 1053 l 499 989 l 303 799 l 214 799 l 14 989 l 68 1053 l 257 953 l 444 1053 z "},"¸":{"ha":379,"x_min":14,"x_max":365,"o":"m 192 -79 q 318 -112 271 -79 q 365 -214 365 -144 q 305 -321 365 -283 q 163 -358 244 -358 q 60 -340 106 -358 q 14 -274 14 -321 q 31 -218 14 -239 q 140 -264 67 -264 q 179 -249 163 -264 q 196 -210 196 -233 q 170 -165 196 -176 q 103 -153 144 -153 q 47 -156 83 -153 l 110 15 l 196 15 l 157 -81 l 192 -79 z "},"ˆ":{"ha":513,"x_min":14,"x_max":499,"o":"m 68 813 l 14 878 l 225 1038 l 285 1038 l 499 878 l 444 813 l 257 883 l 68 813 z "},"¨":{"ha":619,"x_min":-1,"x_max":619,"o":"m 0 819 m 472 1042 q 579 1013 539 1042 q 619 931 619 983 q 577 849 619 878 q 467 819 535 819 q 359 848 400 819 q 318 928 318 876 q 362 1012 318 982 q 472 1042 406 1042 m 153 1042 q 260 1013 219 1042 q 300 931 300 983 q 258 849 300 878 q 147 819 215 819 q 40 848 81 819 q -1 928 -1 876 q 42 1012 -1 982 q 153 1042 86 1042 z "},"˙":{"ha":294,"x_min":-1,"x_max":300,"o":"m 153 1042 q 260 1013 219 1042 q 300 931 300 983 q 258 849 300 878 q 147 819 215 819 q 40 848 81 819 q -1 928 -1 876 q 42 1012 -1 982 q 153 1042 86 1042 z "},"`":{"ha":408,"x_min":14,"x_max":394,"o":"m 169 853 q 53 898 93 875 q 14 968 14 921 q 36 1028 14 999 q 89 1071 58 1057 l 394 863 l 364 797 l 169 853 z "},"˝":{"ha":700,"x_min":14,"x_max":671,"o":"m 265 1089 q 330 1049 301 1079 q 358 985 358 1019 q 324 900 358 935 q 236 844 290 865 l 56 772 l 14 831 l 265 1089 m 578 1089 q 642 1049 614 1079 q 671 985 671 1019 q 637 901 671 936 q 550 844 603 865 l 369 772 l 326 831 l 578 1089 z "},"¯":{"ha":456,"x_min":14,"x_max":442,"o":"m 429 990 q 442 936 442 969 q 420 883 442 903 q 363 863 399 863 l 26 863 q 14 917 14 883 q 35 970 14 950 q 93 990 57 990 l 429 990 z "},"˛":{"ha":385,"x_min":14,"x_max":372,"o":"m 306 22 q 216 -65 250 -17 q 182 -167 182 -112 q 200 -224 182 -208 q 260 -239 218 -239 q 304 -230 282 -239 q 336 -204 326 -221 q 363 -231 353 -217 q 372 -264 372 -244 q 322 -335 372 -311 q 219 -358 272 -358 q 72 -324 131 -358 q 14 -215 14 -289 q 75 -74 14 -135 q 231 31 136 -12 l 306 22 z "},"˚":{"ha":347,"x_min":14,"x_max":333,"o":"m 174 804 q 59 841 104 804 q 14 939 14 878 q 58 1035 14 1001 q 174 1069 101 1069 q 290 1035 246 1069 q 333 939 333 1001 q 288 841 333 878 q 174 804 243 804 m 174 861 q 220 883 204 861 q 236 939 236 904 q 220 993 236 972 q 174 1014 204 1014 q 127 993 143 1014 q 111 939 111 972 q 126 883 111 904 q 174 861 142 861 z "},"˜":{"ha":643,"x_min":58,"x_max":611,"o":"m 579 1011 q 602 970 593 993 q 611 926 611 947 q 574 856 611 875 q 472 838 536 838 q 326 851 435 838 q 179 865 218 865 q 90 838 118 865 q 67 877 76 854 q 58 921 58 900 q 95 991 58 972 q 197 1010 132 1010 q 342 996 233 1010 q 490 982 450 982 q 579 1011 551 982 z "}}}
